<svg xmlns="http://www.w3.org/2000/svg" width="20" height="20" viewBox="0 0 20 20" fill="none">
  <path d="M10.005 19.9895C15.5249 19.9895 19.9997 15.5147 19.9997 9.99474C19.9997 4.4748 15.5249 0 10.005 0C4.48505 0 0.0102539 4.4748 0.0102539 9.99474C0.0102539 15.5147 4.48505 19.9895 10.005 19.9895Z" fill="#1A73E8"/>
  <path d="M13.6412 14.312H6.83035C5.86179 14.312 5.01688 13.5804 5.01688 12.6119V12.6016V13.1683C5.01688 14.1368 5.86179 14.9817 6.83031 14.9817H13.6412C14.6201 14.9817 15.4547 14.1265 15.4547 13.1683V12.6016C15.4547 13.5701 14.6098 14.312 13.6412 14.312ZM5.00656 9.42803V8.65522L3.7392 6.56358C3.66707 6.45024 3.63615 6.34719 3.64647 6.24414V7.13024C3.64647 7.21269 3.67735 7.29514 3.72888 7.38787L5.00656 9.42803Z" fill="#185ABC"/>
  <path d="M13.6406 5.9043H4.09919C3.71794 5.9043 3.5016 6.23402 3.75919 6.58434L5.00595 8.74814V12.6121C5.00595 13.6013 5.72724 14.4256 6.70608 14.4256H13.6303C14.6092 14.4256 15.4437 13.591 15.4437 12.6121V7.72809C15.4541 6.73888 14.6194 5.9043 13.6406 5.9043Z" fill="white"/>
  <path d="M13.5278 8.63426H6.94365C6.65513 8.63426 6.37694 8.45912 6.37694 8.18088C6.37694 7.90268 6.65517 7.72754 6.94365 7.72754H13.5278C13.8163 7.72754 14.0945 7.90268 14.0945 8.18088C14.0945 8.45912 13.8163 8.63426 13.5278 8.63426H13.5278ZM13.5278 10.4478H6.94365C6.65513 10.4478 6.37694 10.2726 6.37694 9.99441C6.37694 9.71617 6.65517 9.54103 6.94365 9.54103H13.5278C13.8163 9.54103 14.0945 9.71621 14.0945 9.99441C14.0945 10.2726 13.8163 10.4478 13.5278 10.4478H13.5278ZM11.7041 12.2716H6.93337C6.64489 12.2716 6.3667 12.0964 6.3667 11.8182C6.3667 11.54 6.64489 11.3648 6.93337 11.3648H11.7041C11.9925 11.3648 12.2707 11.54 12.2707 11.8182C12.2707 12.0965 11.9925 12.2716 11.7041 12.2716Z" fill="#8AB4F8"/>
  <path d="M19.9998 9.94336C19.9792 14.3226 17.125 18.0423 13.1889 19.3612C12.1894 19.7012 11.1178 19.8764 10.005 19.8764C4.50274 19.8764 0.0411776 15.4354 0.0102539 9.94336V10.0052C0.0102539 15.5281 4.48214 20 10.005 20C11.1178 20 12.1894 19.8145 13.1889 19.4848C17.1456 18.1556 19.9998 14.4153 19.9998 10.0052V9.94336Z" fill="#185ABC"/>
  <path d="M13.1786 0.515107C12.1792 0.175143 11.1076 2.58286e-10 9.99474 2.58286e-10C4.47189 -3.9243e-05 0 4.47181 0 9.9947V10.0565C0.0308844 4.56454 4.49245 0.123577 9.99474 0.123577C11.1076 0.123577 12.1792 0.309041 13.1786 0.638802C17.125 1.95769 19.9689 5.67736 19.9895 10.0565V9.9947C19.9998 5.58463 17.1456 1.84435 13.1786 0.515107Z" fill="#8AB4F8"/>
</svg>