<svg xmlns="http://www.w3.org/2000/svg" width="64" height="64" viewBox="0 0 64 64" fill="none">
  <rect x="0.5" y="0.5" width="63" height="63" fill="white"/>
  <rect width="40" height="40" transform="translate(12 12)" fill="white"/>
  <path d="M37 47H33.6667V43.6667H37V47ZM33.6667 35.3333H30.3333V43.6667H33.6667V35.3333ZM47 32H43.6667V38.6667H47V32ZM43.6667 28.6667H40.3333V32H43.6667V28.6667ZM23.6667 32H20.3333V35.3333H23.6667V32ZM20.3333 28.6667H17V32H20.3333V28.6667ZM32 20.3333H35.3333V17H32V20.3333ZM19.5 19.5V24.5H24.5V19.5H19.5ZM27 27H17V17H27V27ZM19.5 39.5V44.5H24.5V39.5H19.5ZM27 47H17V37H27V47ZM39.5 19.5V24.5H44.5V19.5H39.5ZM47 27H37V17H47V27ZM43.6667 43.6667V38.6667H37V42H40.3333V47H47V43.6667H43.6667ZM40.3333 32H33.6667V35.3333H40.3333V32ZM33.6667 28.6667H23.6667V32H27V35.3333H30.3333V32H33.6667V28.6667ZM35.3333 27V23.6667H32V20.3333H28.6667V27H35.3333ZM23.25 20.75H20.75V23.25H23.25V20.75ZM23.25 40.75H20.75V43.25H23.25V40.75ZM43.25 20.75H40.75V23.25H43.25V20.75Z" fill="#3247BC"/>
  <rect x="0.5" y="0.5" width="63" height="63" stroke="#F3F3F3"/>
</svg>