<svg xmlns="http://www.w3.org/2000/svg" width="64" height="64" viewBox="0 0 64 64" fill="none">
  <rect width="64" height="64" fill="url(#paint0_linear)"/>
  <path d="M38.957 26.7422C39.1875 26.7422 39.418 26.75 39.6445 26.7617C38.6914 21.7344 33.4609 17.8906 27.1484 17.8906C20.1641 17.8906 14.5 22.6016 14.5 28.4141C14.5 31.582 16.2031 34.4375 18.8711 36.3672C18.9811 36.4449 19.0709 36.5479 19.1327 36.6675C19.1946 36.7872 19.2268 36.92 19.2266 37.0547C19.2266 37.1484 19.207 37.2344 19.1836 37.3242C18.9687 38.1172 18.6289 39.3867 18.6133 39.4453C18.5859 39.5469 18.5469 39.6484 18.5469 39.7539C18.5469 39.9844 18.7344 40.1758 18.9687 40.1758C19.0586 40.1758 19.1328 40.1406 19.2109 40.0977L21.9805 38.5C22.1875 38.3789 22.4102 38.3047 22.6523 38.3047C22.7773 38.3047 22.9023 38.3242 23.0234 38.3594C24.3164 38.7305 25.7109 38.9375 27.1523 38.9375C27.3867 38.9375 27.6172 38.9336 27.8477 38.9219C27.5703 38.1016 27.4219 37.2383 27.4219 36.3437C27.4219 31.0391 32.5859 26.7422 38.957 26.7422V26.7422ZM31.3672 23.3633C32.2969 23.3633 33.0547 24.1172 33.0547 25.0469C33.0547 25.9766 32.3008 26.7305 31.3672 26.7305C30.4375 26.7305 29.6797 25.9766 29.6797 25.0469C29.6797 24.1172 30.4375 23.3633 31.3672 23.3633ZM22.9336 26.7305C22.0039 26.7305 21.2461 25.9766 21.2461 25.0469C21.2461 24.1172 22 23.3633 22.9336 23.3633C23.8672 23.3633 24.6211 24.1172 24.6211 25.0469C24.6211 25.9766 23.8633 26.7305 22.9336 26.7305ZM45.8555 42.9648C48.0781 41.3555 49.4961 38.9805 49.4961 36.3359C49.4961 31.4922 44.7773 27.5664 38.9531 27.5664C33.1328 27.5664 28.4102 31.4922 28.4102 36.3359C28.4102 41.1797 33.1289 45.1055 38.9531 45.1055C40.1562 45.1055 41.3203 44.9336 42.3945 44.625C42.4961 44.5937 42.5977 44.5781 42.7031 44.5781C42.9062 44.5781 43.0898 44.6406 43.2617 44.7383L45.5703 46.0664C45.6367 46.1055 45.6992 46.1328 45.7734 46.1328C45.8197 46.1332 45.8657 46.1244 45.9086 46.107C45.9515 46.0895 45.9905 46.0638 46.0234 46.0312C46.056 45.9983 46.0817 45.9593 46.0992 45.9164C46.1166 45.8735 46.1254 45.8276 46.125 45.7812C46.125 45.6953 46.0898 45.6094 46.0703 45.5234C46.0586 45.4766 45.7734 44.418 45.5938 43.7539C45.5742 43.6797 45.5586 43.6055 45.5586 43.5312C45.5625 43.3008 45.6797 43.0937 45.8555 42.9648V42.9648ZM35.4453 34.9375C34.668 34.9375 34.0391 34.3086 34.0391 33.5352C34.0391 32.7617 34.668 32.1328 35.4453 32.1328C36.2227 32.1328 36.8516 32.7617 36.8516 33.5352C36.8516 34.3086 36.2188 34.9375 35.4453 34.9375ZM42.4727 34.9375C41.6953 34.9375 41.0664 34.3086 41.0664 33.5352C41.0664 32.7617 41.6953 32.1328 42.4727 32.1328C43.25 32.1328 43.8789 32.7617 43.8789 33.5352C43.8771 33.9072 43.7282 34.2634 43.4647 34.5261C43.2013 34.7888 42.8447 34.9367 42.4727 34.9375V34.9375Z" fill="white"/>
  <rect x="0.5" y="0.5" width="63" height="63" stroke="#12D96F" stroke-opacity="0.61"/>
  <defs>
    <linearGradient id="paint0_linear" x1="32" y1="0" x2="32" y2="64" gradientUnits="userSpaceOnUse">
      <stop stop-color="#14ED7A"/>
      <stop offset="1" stop-color="#0CC362"/>
    </linearGradient>
  </defs>
</svg>