<svg xmlns="http://www.w3.org/2000/svg" width="71" height="37" viewBox="0 0 71 37" fill="none">
  <path d="M63.9811 6.14735L56.3579 8.52362C50.2292 10.0612 44.9177 12.7493 39.2782 15.1094C29.722 19.1607 20.5047 23.9906 11.7206 29.5497L20.3142 29.8103C23.6177 30.114 25.0692 34.5654 21.0936 35.5895C15.0602 36.7197 8.88276 36.6576 2.91195 35.4069C2.40096 35.2801 1.93854 35.0109 1.57797 34.6304C1.21739 34.2498 0.973331 33.7734 0.873899 33.2559C0.774461 32.7385 0.823689 32.2011 1.01592 31.7057C1.20816 31.2102 1.53557 30.7769 1.96045 30.4556L6.33393 21.1631C8.33383 19.1632 10.0004 17.4967 11.8336 15.6634C13.6669 13.8302 13.3093 17.1391 13.8012 17.631C13.8812 18.9964 13.4586 20.3521 12.6131 21.4426C20.5717 16.8871 28.8349 12.8978 37.3402 9.50494C42.6862 7.18891 48.1682 5.21189 53.7532 3.58578L62.5323 1.3654C64.8494 1.01593 66.8385 0.338533 68.9781 1.47823C71.1178 2.61792 69.9619 2.46203 69.9619 2.46203C69.2687 3.45368 68.3789 4.29347 67.3492 4.92796C66.3195 5.56244 65.1725 5.97772 63.9811 6.14735Z" fill="#ACC2E4"/>
</svg>