<svg xmlns="http://www.w3.org/2000/svg" width="169" height="27" viewBox="0 0 169 27" fill="none">
  <path d="M165.875 12.5607C164.423 12.5607 163.251 11.3885 163.251 9.93661C163.251 8.48475 164.423 7.3125 165.875 7.3125C167.327 7.3125 168.499 8.48475 168.499 9.93661C168.51 11.3777 167.327 12.5607 165.875 12.5607ZM165.875 7.57061C164.595 7.57061 163.552 8.64606 163.552 9.92585C163.552 11.2056 164.595 12.2811 165.875 12.2811C167.155 12.2811 168.198 11.2056 168.198 9.92585C168.198 8.64606 167.155 7.57061 165.875 7.57061ZM166.574 11.3132L165.854 10.1302H165.37V11.3132H165.047V8.47399H165.972C166.456 8.47399 166.875 8.82889 166.875 9.31284C166.875 9.73227 166.596 10.0011 166.219 10.1087L166.951 11.3239H166.574V11.3132ZM165.94 8.78587H165.37V9.81831H165.94C166.284 9.81831 166.553 9.61397 166.553 9.30209C166.553 8.99021 166.295 8.78587 165.94 8.78587Z" fill="black"/>
  <path d="M128.227 7.36523C128.141 7.36523 128.109 7.3975 127.313 7.42976C126.495 7.46202 124.958 7.49429 121.828 7.49429H120.376H119.494H118.042C114.923 7.49429 113.375 7.46202 112.557 7.42976C111.772 7.3975 111.74 7.36523 111.643 7.36523C111.277 7.36523 111.277 7.61259 111.277 8.30088V11.0863C111.277 11.2369 111.277 11.6025 111.578 11.6025C111.912 11.6025 111.976 11.4842 112.514 10.3658C112.869 9.59143 113.59 8.4622 117.709 8.42993C118.139 8.44069 118.322 8.53748 118.322 9.21502V23.3035C118.322 24.4865 118.322 25.3038 116.805 25.3899C116.171 25.4544 115.751 25.4759 115.751 25.9061C115.751 26.3578 116.139 26.3578 116.386 26.3578C116.967 26.3578 119.419 26.2395 119.924 26.2395C120.924 26.2395 122.505 26.3578 123.495 26.3578C123.742 26.3578 124.129 26.3578 124.129 25.9061C124.129 25.4544 123.71 25.4221 123.065 25.3899C121.548 25.3038 121.548 24.4757 121.548 23.239V9.43011C121.548 8.64503 121.645 8.47295 122.527 8.44069C126.302 8.53748 126.979 9.62369 127.324 10.3658C127.872 11.4842 127.926 11.6025 128.259 11.6025C128.56 11.6025 128.56 11.2369 128.56 11.0863V8.30088C128.593 7.60184 128.593 7.36523 128.227 7.36523Z" fill="black"/>
  <path d="M95.4838 21.5426C95.215 21.5426 95.1504 21.6609 94.6019 22.7256C93.2683 25.3067 91.397 25.3067 90.0634 25.3067C87.5145 25.3067 86.8799 24.9733 86.8799 22.8224V17.6172C86.8799 16.7138 87.1166 16.7138 88.5685 16.7138C91.0528 16.7138 91.9025 16.7461 92.537 19.0798C92.6876 19.6606 92.8704 19.8112 93.107 19.8112C93.4727 19.8112 93.4727 19.3917 93.4727 19.2089C93.4727 18.9615 93.3866 17.9076 93.3866 17.6925C93.3866 17.0257 93.6017 13.9069 93.6017 13.4875C93.6017 13.1541 93.4512 13.0573 93.2683 13.0573C93.1178 13.0573 92.9672 13.1218 92.8166 13.509C92.2681 15.1114 91.9993 15.7782 88.633 15.7782C86.88 15.7782 86.8799 15.5308 86.8799 14.5629V10.1751C86.8799 8.65868 86.9983 8.45435 88.5147 8.45435C92.8166 8.45435 93.548 9.60509 93.9029 10.3902C94.4514 11.5086 94.5051 11.6269 94.8385 11.6269C95.1397 11.6269 95.1397 11.2613 95.1397 11.1107V8.3253C95.1397 7.62625 95.1397 7.38965 94.774 7.38965C94.688 7.38965 94.6557 7.42191 93.8706 7.45418C93.0532 7.48644 91.5045 7.5187 88.3856 7.5187H86.9337C84.3526 7.5187 83.0512 7.48644 82.3844 7.45418C81.7176 7.42191 81.6854 7.38965 81.6208 7.38965C81.4057 7.38965 81.0186 7.38965 81.0186 7.81983C81.0186 8.27152 81.4487 8.30378 82.1048 8.33605C83.6212 8.43284 83.6212 9.23943 83.6212 10.487V23.2741C83.6212 24.5109 83.6212 25.339 82.1048 25.425C81.4703 25.4896 81.0186 25.5111 81.0186 25.9413C81.0186 26.3929 81.4165 26.3929 81.6531 26.3929C81.8682 26.3929 82.1048 26.3607 82.5888 26.3284C83.0727 26.2962 83.8256 26.2639 85.0731 26.2639H85.4388C85.6216 26.2639 87.0413 26.2962 88.7728 26.3284C90.5258 26.3607 92.6445 26.3929 94.1932 26.3929C95.0751 26.3929 95.3763 26.0596 95.4085 25.4788C95.5053 24.3603 95.8387 22.4138 95.8387 22.0266C95.8387 21.8223 95.7527 21.5426 95.4838 21.5426Z" fill="black"/>
  <path d="M144.925 21.5426C144.656 21.5426 144.592 21.6609 144.043 22.7256C142.71 25.3067 140.838 25.3067 139.505 25.3067C136.956 25.3067 136.321 24.9733 136.321 22.8224V17.6172C136.321 16.7138 136.558 16.7138 138.01 16.7138C140.494 16.7138 141.344 16.7461 141.978 19.0798C142.129 19.6606 142.312 19.8112 142.548 19.8112C142.914 19.8112 142.914 19.3917 142.914 19.2089C142.914 18.9615 142.828 17.9076 142.828 17.6925C142.828 17.0257 143.043 13.9069 143.043 13.4875C143.043 13.1541 142.893 13.0573 142.71 13.0573C142.559 13.0573 142.409 13.1218 142.258 13.509C141.71 15.1114 141.441 15.7782 138.074 15.7782C136.321 15.7782 136.321 15.5308 136.321 14.5629V10.1751C136.321 8.65868 136.44 8.45435 137.956 8.45435C142.258 8.45435 142.989 9.60509 143.344 10.3902C143.893 11.5086 143.947 11.6269 144.28 11.6269C144.581 11.6269 144.581 11.2613 144.581 11.1107V8.3253C144.581 7.62625 144.581 7.38965 144.215 7.38965C144.129 7.38965 144.097 7.42191 143.312 7.45418C142.495 7.48644 140.946 7.5187 137.827 7.5187H136.375C133.794 7.5187 132.493 7.48644 131.826 7.45418C131.159 7.42191 131.127 7.38965 131.062 7.38965C130.847 7.38965 130.46 7.38965 130.46 7.81983C130.46 8.27152 130.89 8.30378 131.546 8.33605C133.063 8.43284 133.063 9.23943 133.063 10.487V23.2741C133.063 24.5109 133.063 25.339 131.546 25.425C130.912 25.4896 130.46 25.5111 130.46 25.9413C130.46 26.3929 130.858 26.3929 131.094 26.3929C131.31 26.3929 131.546 26.3607 132.03 26.3284C132.514 26.2962 133.267 26.2639 134.515 26.2639H134.88C135.063 26.2639 136.483 26.2962 138.214 26.3284C139.967 26.3607 142.086 26.3929 143.635 26.3929C144.517 26.3929 144.818 26.0596 144.85 25.4788C144.947 24.3603 145.28 22.4138 145.28 22.0266C145.28 21.8223 145.194 21.5426 144.925 21.5426Z" fill="black"/>
  <path d="M105.028 14.6807C102.554 13.659 100.758 12.8847 100.758 10.6908C100.758 9.48628 101.726 7.73329 104.124 7.76555C106.695 7.78706 107.243 9.49703 107.62 10.6908C107.932 11.6479 108.05 11.8308 108.362 11.8308C108.792 11.8308 108.792 11.5834 108.792 10.9059C108.792 8.18498 108.792 7.90536 108.416 7.69027C107.985 7.47518 106.157 6.98047 104.372 6.98047C100.446 6.98047 98.2846 9.45402 98.2846 12.2932C98.2846 15.5734 100.726 16.7779 103.232 17.8856C105.458 18.9073 107.555 20.0795 107.555 22.4885C107.555 24.9943 105.114 25.844 103.823 25.844C101.629 25.844 99.5107 23.9942 98.9191 21.2948C98.8546 21.0152 98.8224 20.7033 98.5427 20.7033C98.1663 20.7033 98.1556 21.1335 98.1556 21.2625C98.134 22.381 98.2739 23.7038 98.3169 24.1017C98.4029 24.8653 98.5212 25.4891 98.8654 25.7472C99.4246 26.1451 100.952 26.7366 103.361 26.7366C107.469 26.7366 110.007 23.8651 110.007 20.4344C110.007 16.9392 106.759 15.4228 105.028 14.6807Z" fill="black"/>
  <path d="M32.2027 6.99121C26.266 6.99121 21.792 11.25 21.792 16.8209C21.792 22.7251 26.7607 26.7366 32.1166 26.7366C37.322 26.7366 42.409 22.5315 42.409 16.5413C42.3983 11.2285 37.935 6.99121 32.2027 6.99121ZM32.3533 25.887C28.2772 25.887 25.3626 21.155 25.3626 16.1756C25.3626 11.8093 28.0943 7.84082 31.837 7.84082C36.6444 7.84082 38.8062 13.003 38.8062 16.6596C38.8062 21.1227 36.5907 25.887 32.3533 25.887Z" fill="black"/>
  <path d="M19.8587 0C19.8157 0 19.7727 0.0430181 18.5896 0.0860363C17.4496 0.129054 15.1589 0.172073 10.6096 0.172073H9.65237C5.31817 0.172073 3.73721 0.129054 2.5972 0.0860363C1.5002 0.0430181 1.45718 0 1.37114 0C1.07001 0 0.5 -3.2051e-07 0.5 0.613009C0.5 1.22602 1.15605 1.26904 2.07021 1.35507C4.2642 1.48413 4.26419 2.66713 4.26419 4.46314V16.2716V22.5953C4.26419 24.0472 4.2642 25.0581 2.39285 25.1656C1.60775 25.2409 1.09152 25.2732 1.09152 25.8002C1.09152 26.3594 1.57549 26.3594 1.87662 26.3594C2.58644 26.3594 5.67308 26.2088 6.30762 26.2088C7.54442 26.2088 9.54482 26.3594 10.7709 26.3594C11.072 26.3594 11.556 26.3594 11.556 25.8002C11.556 25.2409 11.0397 25.1979 10.2546 25.1656C8.39405 25.0581 8.39405 24.0472 8.39405 22.52V16.2716V15.7984C8.39405 14.5617 8.39405 14.0669 9.10387 13.8734C9.56633 13.7443 11.5882 13.7443 12.8788 13.7443C13.9758 13.7443 16.7721 13.7443 17.3851 16.1103C17.4711 16.3254 17.7615 17.4654 17.8691 17.7773C17.9444 17.9924 18.1164 18.4978 18.5681 18.4763C19.0951 18.4548 19.0951 17.9493 19.0951 17.6482L18.923 15.5941C18.837 14.5832 18.837 13.8411 18.837 13.4539C18.837 12.7979 18.9661 9.8189 18.9661 9.20589C18.9661 8.76496 18.837 8.48534 18.4391 8.46383C18.0519 8.44232 17.8261 8.81873 17.74 9.16287C17.1808 11.4321 16.557 12.4 13.0079 12.4C12.3518 12.4 9.74917 12.4 9.09312 12.314C8.52311 12.2279 8.39405 12.1849 8.39405 9.8189V3.69956C8.39405 1.64545 9.13614 1.55941 10.6311 1.55941C17.4389 1.55941 18.0089 2.49506 19.321 5.40954C19.4823 5.77519 19.6544 6.28065 20.1383 6.28065C20.6223 6.28065 20.6223 5.58161 20.6223 5.45255V0.817346C20.6008 0.215091 20.5578 0 19.8587 0Z" fill="black"/>
  <path d="M60.0893 25.4436C59.2397 25.3146 58.8202 24.5618 58.2179 23.5078L55.2819 18.3026C54.5828 17.0336 54.2171 16.8507 53.83 16.6034C54.8624 16.3883 57.9813 15.6677 57.9813 12.1187C57.9813 11.054 57.5296 7.36523 52.163 7.36523C51.2488 7.36523 47.2265 7.48354 46.4091 7.48354C46.0435 7.48354 44.5593 7.36523 44.2582 7.36523C43.258 7.36523 43.1396 7.36523 43.1396 7.79542C43.1396 8.21484 43.5698 8.24711 44.2259 8.27937C45.7101 8.36541 45.7101 9.19351 45.7101 10.4303V23.2712C45.7101 24.5402 45.7101 25.3361 44.2259 25.4544C43.5914 25.4866 43.1396 25.5189 43.1396 25.9383C43.1396 26.39 43.5376 26.3578 43.7742 26.3578C44.3227 26.3578 46.7748 26.2395 47.291 26.2395C47.4093 26.2395 50.3561 26.3578 50.9262 26.3578C51.1628 26.3578 51.5607 26.39 51.5607 25.9598C51.5607 25.5082 51.1305 25.4759 50.4745 25.4436C48.958 25.3576 48.958 24.5295 48.958 23.2605V17.8079C48.958 17.2917 49.0225 17.1089 49.5388 17.1089C50.9046 17.1089 51.0552 17.2272 51.722 18.5285L55.3894 25.4329C55.7228 26.0674 55.8411 26.347 56.3896 26.347C56.6585 26.347 59.9925 26.347 60.3797 26.347C60.5948 26.347 60.8959 26.2932 60.8959 25.9814C60.8636 25.6587 60.7238 25.5404 60.0893 25.4436ZM50.4529 16.3345C48.9365 16.3345 48.9365 16.27 48.9365 15.2161V10.1292C48.9365 8.94615 48.9688 8.2256 50.3561 8.2256C54.1096 8.2256 54.5398 11.4627 54.5398 12.5597C54.5398 16.3345 51.5499 16.3345 50.4529 16.3345Z" fill="black"/>
  <path d="M79.0961 25.4436C78.2465 25.3146 77.8271 24.5618 77.2248 23.5078L74.2887 18.3026C73.5896 17.0336 73.224 16.8507 72.8368 16.6034C73.8693 16.3883 76.9882 15.6677 76.9882 12.1187C76.9882 11.054 76.5365 7.36523 71.1698 7.36523C70.2556 7.36523 66.2333 7.48354 65.416 7.48354C65.0503 7.48354 63.5661 7.36523 63.265 7.36523C62.2648 7.36523 62.1465 7.36523 62.1465 7.79542C62.1465 8.21484 62.5767 8.24711 63.2327 8.27937C64.7169 8.36541 64.7169 9.19351 64.7169 10.4303V23.2712C64.7169 24.5402 64.7169 25.3361 63.2327 25.4544C62.5982 25.4866 62.1465 25.5189 62.1465 25.9383C62.1465 26.39 62.5444 26.3578 62.781 26.3578C63.3295 26.3578 65.7816 26.2395 66.2979 26.2395C66.4162 26.2395 69.363 26.3578 69.933 26.3578C70.1696 26.3578 70.5675 26.39 70.5675 25.9598C70.5675 25.5082 70.1373 25.4759 69.4813 25.4436C67.9649 25.3576 67.9649 24.5295 67.9649 23.2605V17.8079C67.9649 17.2917 68.0294 17.1089 68.5456 17.1089C69.9115 17.1089 70.0621 17.2272 70.7289 18.5285L74.3963 25.4329C74.7297 26.0674 74.848 26.347 75.3965 26.347C75.6653 26.347 78.9993 26.347 79.3865 26.347C79.6016 26.347 79.9027 26.2932 79.9027 25.9814C79.8705 25.6587 79.7307 25.5404 79.0961 25.4436ZM69.4598 16.3345C67.9434 16.3345 67.9433 16.27 67.9433 15.2161V10.1292C67.9433 8.94615 67.9756 8.2256 69.363 8.2256C73.1164 8.2256 73.5466 11.4627 73.5466 12.5597C73.5466 16.3345 70.5568 16.3345 69.4598 16.3345Z" fill="black"/>
  <path d="M163.954 25.4436C163.104 25.3146 162.684 24.5618 162.082 23.5078L159.146 18.3026C158.447 17.0336 158.081 16.8507 157.694 16.6034C158.727 16.3883 161.846 15.6677 161.846 12.1187C161.846 11.054 161.394 7.36523 156.027 7.36523C155.113 7.36523 151.091 7.48354 150.273 7.48354C149.908 7.48354 148.424 7.36523 148.122 7.36523C147.122 7.36523 147.004 7.36523 147.004 7.79542C147.004 8.21484 147.434 8.24711 148.09 8.27937C149.574 8.36541 149.574 9.19351 149.574 10.4303V23.2712C149.574 24.5402 149.574 25.3361 148.09 25.4544C147.456 25.4866 147.004 25.5189 147.004 25.9383C147.004 26.39 147.402 26.3578 147.638 26.3578C148.187 26.3578 150.639 26.2395 151.155 26.2395C151.274 26.2395 154.22 26.3578 154.79 26.3578C155.027 26.3578 155.425 26.39 155.425 25.9598C155.425 25.5082 154.995 25.4759 154.339 25.4436C152.822 25.3576 152.822 24.5295 152.822 23.2605V17.8079C152.822 17.2917 152.887 17.1089 153.403 17.1089C154.769 17.1089 154.919 17.2272 155.586 18.5285L159.254 25.4329C159.587 26.0674 159.705 26.347 160.254 26.347C160.523 26.347 163.857 26.347 164.244 26.347C164.459 26.347 164.76 26.2932 164.76 25.9814C164.739 25.6587 164.588 25.5404 163.954 25.4436ZM154.328 16.3345C152.812 16.3345 152.812 16.27 152.812 15.2161V10.1292C152.812 8.94615 152.844 8.2256 154.231 8.2256C157.985 8.2256 158.415 11.4627 158.415 12.5597C158.415 16.3345 155.414 16.3345 154.328 16.3345Z" fill="black"/>
</svg>