<svg xmlns="http://www.w3.org/2000/svg" width="20" height="20" viewBox="0 0 20 20" fill="none">
  <rect width="20" height="20" rx="10" fill="#06C755"/>
  <path d="M15.4073 8.79381L15.4075 8.79378L15.4041 8.76593C15.4041 8.76545 15.404 8.76509 15.4039 8.76461C15.4039 8.76421 15.4039 8.76384 15.4038 8.76344L15.3912 8.65871C15.3887 8.63768 15.3858 8.61372 15.3825 8.58638L15.3798 8.56462L15.3744 8.56528C15.2419 7.81152 14.8778 7.09621 14.314 6.48543C13.7527 5.87758 13.0236 5.39765 12.2053 5.09752C11.5043 4.84037 10.7604 4.70996 9.99447 4.70996C8.96045 4.70996 7.95621 4.95315 7.09037 5.41322C5.42073 6.30035 4.43602 7.93098 4.58156 9.56746C4.65689 10.4143 4.98865 11.2204 5.54098 11.8986C6.06085 12.537 6.76411 13.0522 7.5747 13.3885C8.0731 13.5952 8.56589 13.6926 9.08767 13.7958L9.14875 13.8079C9.29242 13.8363 9.33104 13.8754 9.34101 13.8908C9.35944 13.9196 9.3498 13.9762 9.3424 14.0074C9.33558 14.0361 9.32855 14.0648 9.32151 14.0935C9.26549 14.322 9.20756 14.5583 9.25307 14.8188C9.30539 15.1182 9.49237 15.2899 9.76609 15.29C9.76612 15.29 9.76612 15.29 9.76616 15.29C10.0606 15.29 10.3957 15.0925 10.6174 14.9618L10.647 14.9444C11.1759 14.6337 11.6743 14.2833 12.0493 14.0128C12.87 13.4207 13.8001 12.7496 14.4975 11.8813C15.1997 11.0069 15.5305 9.8832 15.4073 8.79381ZM7.95097 10.4505H7.01361C6.87195 10.4505 6.75712 10.3357 6.75712 10.194V8.22653C6.75712 8.08487 6.87195 7.97004 7.01361 7.97004C7.15526 7.97004 7.2701 8.08487 7.2701 8.22653V9.93754H7.95094C8.09259 9.93754 8.20743 10.0524 8.20743 10.194C8.20746 10.3357 8.09263 10.4505 7.95097 10.4505ZM8.92883 10.1871C8.92883 10.3287 8.81399 10.4436 8.67233 10.4436C8.53068 10.4436 8.41584 10.3287 8.41584 10.1871V8.21957C8.41584 8.07791 8.53068 7.96307 8.67233 7.96307C8.81399 7.96307 8.92883 8.07791 8.92883 8.21957V10.1871ZM11.2473 10.1871C11.2473 10.2982 11.1757 10.3967 11.07 10.431C11.0439 10.4395 11.0172 10.4436 10.9908 10.4436C10.9103 10.4436 10.8324 10.4055 10.7832 10.3378L9.8596 9.06569V10.1871C9.8596 10.3288 9.74476 10.4436 9.6031 10.4436C9.46145 10.4436 9.34661 10.3288 9.34661 10.1871V8.27588C9.34661 8.16475 9.41817 8.06626 9.52389 8.03192C9.62963 7.99763 9.74538 8.03522 9.81068 8.12518L10.7343 9.39726V8.21957C10.7343 8.07791 10.8491 7.96307 10.9908 7.96307C11.1325 7.96307 11.2473 8.07791 11.2473 8.21957V10.1871ZM13.1163 10.4032H11.8468C11.7052 10.4032 11.5903 10.2883 11.5903 10.1467V9.16298V8.17919C11.5903 8.03753 11.7052 7.92269 11.8468 7.92269H13.0769C13.2185 7.92269 13.3334 8.03753 13.3334 8.17919C13.3334 8.32084 13.2185 8.43568 13.0769 8.43568H12.1033V8.90648H12.8934C13.035 8.90648 13.1499 9.02132 13.1499 9.16298C13.1499 9.30463 13.035 9.41947 12.8934 9.41947H12.1033V9.8902H13.1163C13.2579 9.8902 13.3728 10.005 13.3728 10.1467C13.3728 10.2883 13.2579 10.4032 13.1163 10.4032Z" fill="white"/>
</svg>