<svg xmlns="http://www.w3.org/2000/svg" width="20" height="20" viewBox="0 0 20 20" fill="none">
  <rect width="20" height="20" rx="10" fill="#00B2FF"/>
  <path d="M13.7073 8.84237V7.92023C13.7073 7.41211 13.2933 6.99809 12.7851 6.99809H11.3925C11.3925 6.2265 10.7715 5.60547 9.9999 5.60547C9.22832 5.60547 8.60728 6.2265 8.60728 6.99809H7.21466C6.70654 6.99809 6.29252 7.41211 6.29252 7.92023V8.84237C5.52094 8.84237 4.8999 9.46341 4.8999 10.235C4.8999 11.0066 5.52094 11.6088 6.29252 11.6088V13.4719C6.29252 13.98 6.70654 14.394 7.21466 14.394H12.7851C13.2933 14.394 13.7073 13.98 13.7073 13.4719V11.6088C14.4789 11.6088 15.0999 10.9878 15.0999 10.2162C15.0999 9.44459 14.4789 8.84237 13.7073 8.84237ZM7.91097 9.99034C7.91097 9.61396 8.2309 9.29403 8.60728 9.29403C8.98367 9.29403 9.30359 9.61396 9.30359 9.99034C9.30359 10.3667 8.98367 10.6867 8.60728 10.6867C8.2309 10.6867 7.91097 10.3855 7.91097 9.99034ZM11.863 12.5498H8.15562V11.6088H11.863V12.5498ZM11.3925 10.6867C11.0161 10.6867 10.6962 10.3667 10.6962 9.99034C10.6962 9.61396 11.0161 9.29403 11.3925 9.29403C11.7689 9.29403 12.0888 9.61396 12.0888 9.99034C12.0888 10.3667 11.7877 10.6867 11.3925 10.6867Z" fill="white"/>
</svg>