<svg xmlns="http://www.w3.org/2000/svg" width="75" height="72" viewBox="0 0 75 72" fill="none">
<path fill-rule="evenodd" clip-rule="evenodd" d="M74.7468 39.9397C74.7873 39.6882 74.8364 39.7425 74.9347 39.5796H74.9924C74.8971 39.3424 75.082 39.148 74.9578 38.9165L74.8393 38.8679C74.8393 38.8279 74.8393 38.7879 74.8393 38.7479H74.7815L74.7988 38.2678H74.7382C74.7208 38.1163 74.8942 37.8362 74.822 37.6047H74.7613C74.7468 37.5247 74.7295 37.4447 74.7122 37.3647L74.4232 37.1246C74.4088 37.0046 74.3914 36.8845 74.377 36.7616H74.3192C74.3019 36.6816 74.2845 36.6016 74.2701 36.5216H74.2094C74.0823 36.1129 74.4752 35.95 74.4174 35.6213H74.3596L74.377 35.1383H74.3163C74.3163 35.0983 74.3163 35.0583 74.3163 35.0183H74.2585C74.1936 34.7815 74.1434 34.541 74.1083 34.2981H74.1661C74.1661 34.2581 74.1661 34.2152 74.1661 34.1752H74.2238C74.3105 33.9809 74.2585 33.8894 74.4145 33.7551C74.4145 33.5007 74.4145 33.4064 74.3134 33.275L74.1978 33.2149L74.1632 32.5519H74.1054C74.1054 32.5119 74.1054 32.4719 74.1054 32.4319L73.9898 32.3719C73.9898 32.3318 73.9898 32.2918 73.9898 32.2518L73.8742 32.1918C73.8742 31.9317 73.854 31.6717 73.8453 31.4087H73.9031C73.9031 31.2687 73.9031 31.1229 73.9176 30.9886L73.8049 30.9286C73.8049 30.8686 73.8049 30.8086 73.8049 30.7485L73.6893 30.6885C73.6893 30.4285 73.6691 30.1655 73.6575 29.9055H73.5997C73.5824 29.8254 73.5679 29.7454 73.5506 29.6654H73.4899C73.4755 29.5654 73.461 29.4653 73.4437 29.3653H73.3859L73.4032 28.8823L73.2876 28.8223L72.9987 28.4022C72.9033 28.1335 73.1229 27.9306 73.0276 27.6191H72.9669C72.9669 27.5791 72.9669 27.5391 72.9669 27.4991H72.9091C72.9091 27.4591 72.9091 27.4191 72.9091 27.379H72.8513L72.7993 27.139H72.8167V26.8989H72.7589C72.7589 26.8389 72.7589 26.7789 72.7589 26.7189H72.7011C72.7011 26.6788 72.7011 26.636 72.7011 26.5988H72.6433L72.6606 26.1158H72.6028C72.6028 26.0558 72.6028 25.9958 72.6028 25.9358H72.545C72.545 25.8358 72.545 25.7357 72.545 25.65L72.4295 25.59L72.3774 25.4099L72.2388 25.2642L72.1347 24.8412L71.9065 24.6611C71.8573 24.4811 71.8024 24.301 71.7504 24.121L71.6377 24.061C71.6377 24.021 71.6377 23.981 71.6377 23.9381L71.5222 23.8781C71.5077 23.798 71.4904 23.718 71.473 23.638L71.3603 23.578C71.3401 23.518 71.3257 23.4579 71.3054 23.3979H71.2477L71.0829 22.8635H71.0252C71.0078 22.7835 70.9905 22.7006 70.976 22.6206H70.9182C70.9182 22.5606 70.9182 22.5005 70.9182 22.4405H70.8576C70.8576 22.4005 70.8576 22.3605 70.8576 22.3205L70.6871 22.2005C70.6871 22.1604 70.6871 22.1204 70.6871 22.0804L70.5166 21.9604C70.4993 21.8804 70.4819 21.8003 70.4675 21.7203L70.3519 21.6603C70.3519 21.6203 70.3519 21.5803 70.3519 21.5403L70.1814 21.4803L69.8434 21.0573L69.6122 20.9973C69.6122 20.9773 69.6122 20.9573 69.6122 20.9372L69.3839 20.7572C69.3839 20.7172 69.3839 20.6772 69.3839 20.6372C69.2134 20.4771 69.043 20.3171 68.8754 20.1542C68.8754 20.117 68.8754 20.0742 68.8754 20.0341C68.8176 19.997 68.7598 19.9541 68.7049 19.9141C68.7049 19.8741 68.7049 19.8341 68.7049 19.7941L68.4766 19.614L68.4246 19.494H68.3061L68.2541 19.374H68.1934C68.1934 19.3339 68.1934 19.2939 68.1934 19.2539L68.0779 19.1939C68.0779 19.1539 68.0779 19.1139 68.0779 19.0739L67.9045 18.9538L67.6155 18.5251C67.552 18.4594 67.3064 18.3308 67.2746 18.2851C67.2428 18.2394 67.2746 18.2051 67.2746 18.165L67.1619 18.105L67.1099 17.865L66.8209 17.6249L66.766 17.5049H66.6504L66.5955 17.382H66.48V17.322L66.1332 17.2619L65.5929 16.4217H65.1826C65.1826 16.4017 65.1826 16.3817 65.1826 16.3617H65.1248C65.0959 16.2817 65.1074 16.2188 65.0728 16.1188H65.015C65.015 15.9987 65.015 15.8787 65.0294 15.7587L64.8561 15.6386C64.8575 15.6187 64.8575 15.5986 64.8561 15.5786H64.9139C64.9139 15.4586 64.9139 15.3385 64.9283 15.2185C64.9427 15.0985 64.9745 15.2414 64.989 15.1585L64.8156 15.0985C64.8156 15.0585 64.8156 15.0185 64.8156 14.9784H64.7578C64.7578 14.9184 64.7578 14.8556 64.7578 14.7955H64.7C64.7 14.7355 64.7 14.6755 64.7 14.6155H64.6422C64.6422 14.5755 64.6422 14.5355 64.6422 14.4955C64.6422 14.4554 64.5642 14.4497 64.5296 14.3754H64.2984C64.297 14.3954 64.297 14.4155 64.2984 14.4354L64.1192 14.4955C64.1207 14.4755 64.1207 14.4554 64.1192 14.4354L63.8881 14.3754C63.8736 14.2554 63.8563 14.1354 63.8418 14.0153L63.9603 13.9553C63.9603 13.8153 63.9603 13.6695 63.9603 13.5323C63.8274 13.4152 63.8332 13.2894 63.6222 13.2322C63.6425 12.8693 63.5616 12.695 63.2928 12.6321C63.235 12.3749 63.0472 12.3063 62.8392 12.2091C62.7352 12.1634 62.6687 12.2291 62.608 12.1491C62.608 12.1091 62.608 12.0691 62.608 12.0291L62.4953 11.969C62.4953 11.929 62.4953 11.889 62.4953 11.849H62.4375V11.6089L62.322 11.5489C62.322 11.5089 62.322 11.4689 62.322 11.4289L61.9174 11.3089V11.2488L61.8047 11.1888C61.8047 11.1488 61.8047 11.1088 61.8047 11.0688C61.8047 11.0288 61.7296 11.0259 61.6892 11.0088L61.5245 10.7658C61.3835 10.6844 61.2225 10.6429 61.0593 10.6458C61.0414 10.6744 61.0141 10.696 60.9819 10.7069C60.9498 10.7178 60.9149 10.7175 60.883 10.7058C60.8508 10.6612 60.8129 10.6208 60.7703 10.5858C60.7866 10.4578 60.831 10.3349 60.9003 10.2257C60.8339 10.1685 60.7876 10.0256 60.7327 9.98563C60.6778 9.94562 60.5998 9.98563 60.5045 9.8656C60.4187 9.86133 60.3334 9.88173 60.2591 9.92433C60.1847 9.96693 60.1244 10.0299 60.0855 10.1057C59.9953 10.1039 59.9067 10.0813 59.827 10.0396C59.7472 9.9979 59.6784 9.93831 59.6261 9.8656L59.5712 9.74271H59.3978V9.68555C59.1291 9.57981 59.1897 9.73985 58.9961 9.50264H58.9384C58.9384 9.46263 58.9384 9.42262 58.9384 9.38261L58.8257 9.32259V9.08252L58.7101 9.02251C58.6436 8.90819 58.7101 8.88818 58.6003 8.78244C58.7014 8.66812 58.7563 8.72528 58.8401 8.66241L58.9644 8.42234C58.7953 8.2824 58.5984 8.17919 58.3865 8.1194V8.05938C58.2824 8.01366 58.1206 8.18513 58.0975 8.23943C57.9155 8.21371 57.953 8.23943 57.8692 8.1194H57.8086C57.8086 8.05938 57.8086 7.99937 57.8086 7.93935L57.5196 7.69928C57.5196 7.67928 57.5196 7.65927 57.5196 7.63927H57.404V7.57925L56.9359 7.63927C56.9345 7.61929 56.9345 7.59923 56.9359 7.57925L56.7019 7.51923C56.7033 7.49925 56.7033 7.4792 56.7019 7.45922L56.4736 7.27917C56.4771 7.11722 56.4636 6.95534 56.4332 6.79617C56.2742 6.75616 56.3031 6.71615 56.1442 6.67614C56.2136 6.39035 56.2829 6.10455 56.3494 5.83305H56.2916C56.2742 5.77589 56.2569 5.71587 56.2396 5.653H56.124C56.0142 5.58441 55.8957 5.47581 55.7801 5.41293C55.7801 5.37292 55.7801 5.33291 55.7801 5.2929C55.5752 5.2823 55.3763 5.22034 55.2022 5.11285C55.182 5.07284 55.1647 5.03283 55.1473 4.99282H55.0289C55.0303 4.97284 55.0303 4.95278 55.0289 4.9328H54.9133C54.893 4.89279 54.8757 4.85278 54.8584 4.81277H54.9017L54.737 4.50982H54.503C54.4827 4.46981 54.4654 4.4298 54.4481 4.38979H54.3903C54.2169 4.18116 54.4192 4.01254 54.0551 3.90966C53.9857 3.85536 53.7921 3.90966 53.7026 4.02969C53.601 4.01517 53.5052 3.97416 53.4249 3.91087C53.3447 3.84758 53.2829 3.7643 53.246 3.66959L53.0698 3.72961C53.0235 3.86965 52.9802 4.0154 52.9368 4.14972H52.7028C52.6541 3.96918 52.5596 3.80391 52.4283 3.66959L52.1971 3.60957C52.1957 3.58959 52.1957 3.56954 52.1971 3.54956H52.0122C51.8591 3.47525 51.8359 3.35236 51.6106 3.30949C51.6106 3.28663 51.6106 3.26948 51.6106 3.24947C51.5424 3.27547 51.4811 3.31652 51.4314 3.36951C51.2147 3.33807 51.2494 3.31235 51.1425 3.1866H51.0847L51.0327 3.00655C50.8651 2.89223 50.7437 3.098 50.6195 3.06657L50.5675 2.94653H50.449C50.449 2.88652 50.449 2.8265 50.449 2.76648C50.371 2.73505 50.319 2.74362 50.2178 2.70647V2.64645C50.0531 2.58929 49.8826 2.67503 49.7526 2.58643L49.585 2.34637H49.5272V2.1063C49.4835 2.07239 49.4455 2.03188 49.4145 1.98627C49.0909 2.02342 49.0794 2.19204 48.932 2.40638L48.8135 2.4664C48.7904 2.54642 48.7673 2.62644 48.7471 2.70647H48.6864L48.565 2.88652H48.1547C48.1547 2.86651 48.1547 2.84651 48.1547 2.8265C47.8224 2.73505 47.8658 2.44639 47.6462 2.28635C47.6462 2.24634 47.6462 2.20633 47.6462 2.16632H47.5277L47.4757 2.04628C47.3514 1.99198 46.8978 2.14345 46.8284 2.16632C46.628 2.18761 46.4252 2.16717 46.2332 2.1063C46.1985 1.95483 46.2014 2.00913 46.1234 1.92625L46.0685 1.80336H45.6553L45.6033 1.68332L45.4299 1.56329C45.4299 1.52328 45.4299 1.48327 45.4299 1.44326H45.3663C45.349 1.32322 45.3346 1.20319 45.3201 1.08316C45.3057 0.963125 45.1063 1.01457 45.0312 0.963125L44.9214 0.783075C44.7971 0.685905 44.8607 0.843091 44.7509 0.663041C44.5656 0.712813 44.3849 0.77782 44.2105 0.857381C44.1872 0.863112 44.1625 0.860167 44.1412 0.849105C44.1199 0.838043 44.1035 0.819632 44.095 0.797364L43.7511 0.857381C43.7497 0.837401 43.7497 0.817345 43.7511 0.797364H43.5171V0.723058L42.9392 0.843091V0.783075H42.8236C42.8221 0.763094 42.8221 0.743038 42.8236 0.723058L42.4162 0.663041C42.4162 0.680189 42.4162 0.703053 42.4162 0.723058H42.3584V0.663041H42.2428C42.2428 0.643036 42.2428 0.620172 42.2428 0.600167H42.1243L42.0145 0.420117H41.7805C41.7805 0.400111 41.7805 0.380106 41.7805 0.3601H41.7227C41.6032 0.503189 41.4606 0.625818 41.3008 0.723058V0.783075H41.1823C41.1838 0.763094 41.1838 0.743038 41.1823 0.723058H41.0668C41.0494 0.680189 41.0292 0.643036 41.0119 0.600167H40.9541C40.9541 0.480133 40.9223 0.3601 40.9078 0.240067H40.85C40.85 0.200056 40.85 0.160044 40.85 0.120033C40.85 0.0800222 40.7749 0.0714484 40.7431 0H40.4542C40.434 0.0400111 40.4137 0.0800222 40.3906 0.120033L40.2144 0.18005C40.2144 0.220061 40.2144 0.260072 40.2144 0.300083C40.1652 0.357242 40.093 0.34581 40.0323 0.420117C39.6885 0.420117 39.5642 0.397253 39.4544 0.18005C39.362 0.183004 39.2714 0.206044 39.189 0.247534C39.1066 0.289023 39.0344 0.347945 38.9776 0.420117L38.917 0.54015H38.7407C38.7421 0.56013 38.7421 0.580186 38.7407 0.600167H38.5067V0.663041C38.4179 0.710627 38.337 0.771344 38.2668 0.843091C37.8218 0.823086 37.3711 0.745922 37.1688 0.480133C36.6603 0.517287 36.7816 0.917398 36.3309 1.02314C36.3309 1.04315 36.3309 1.06315 36.3309 1.08316H36.2731C36.1893 0.945977 35.7212 1.02314 35.6345 0.963125C35.6331 0.943144 35.6331 0.923089 35.6345 0.903108C35.4929 0.768785 35.6085 0.763069 35.3455 0.723058L35.2791 0.903108C34.889 0.874529 34.9901 0.685905 34.7012 0.600167C34.5827 0.491565 34.3689 0.600167 34.1753 0.54015C34.1767 0.52017 34.1767 0.500114 34.1753 0.480133C33.9528 0.425833 33.4731 0.785933 33.2275 0.843091L33.164 1.02314C33.0645 1.02303 32.9661 1.00259 32.875 0.963125C32.875 0.923114 32.875 0.883103 32.875 0.843091C32.7594 0.805938 32.823 0.843091 32.7594 0.783075C32.4098 0.828802 32.4994 0.945977 32.3376 1.14317L31.8608 1.42897C31.8594 1.44895 31.8594 1.469 31.8608 1.48899H31.6845V1.549L30.6299 1.32322V1.38324H30.5114L30.39 1.56329H30.3409L30.2773 1.74334C30.1502 1.81193 30.0462 1.67761 29.9884 1.68332V1.74334H29.763L29.4452 2.1063L29.1562 2.04628C29.1548 2.0263 29.1548 2.00625 29.1562 1.98627H29.0377C29.0377 1.9634 29.0377 1.94626 29.0377 1.92625H28.5754C28.5754 1.90339 28.5754 1.88338 28.5754 1.86338C28.4825 1.84785 28.3873 1.85205 28.2961 1.8757C28.2049 1.89935 28.1199 1.94191 28.0466 2.00056L27.9282 2.06057V2.30064H27.986C27.9571 2.72647 27.9282 2.4664 27.697 2.60072C27.6956 2.6207 27.6956 2.64076 27.697 2.66074C27.6424 2.71122 27.5765 2.74836 27.5048 2.7692C27.4331 2.79004 27.3574 2.794 27.2838 2.78077C27.2838 2.47497 27.2636 2.56643 27.122 2.42067C27.1018 2.38066 27.0844 2.34065 27.0671 2.30064H26.8735C26.8735 2.28063 26.8735 2.26063 26.8735 2.24062C26.5846 2.24062 26.5181 2.24062 26.3996 2.42067H26.3418C26.2927 2.52356 26.3736 2.51213 26.3938 2.54071L26.3303 2.72076C26.128 2.72076 25.9518 2.58358 25.868 2.60072C25.8665 2.6207 25.8665 2.64076 25.868 2.66074H25.7495V2.72076C25.623 2.76322 25.4879 2.77448 25.3559 2.75356C25.224 2.73265 25.0992 2.68018 24.9924 2.60072C24.7671 2.65788 24.8075 2.73505 24.7035 2.88652C24.6717 2.92939 24.6226 2.92653 24.5821 3.00655C24.1343 3.02656 23.854 3.12373 23.5939 2.8265H23.3599L22.6866 3.66959H22.571C22.571 3.54956 22.5392 3.42952 22.5248 3.30949H22.3485V3.36951C22.0162 3.46096 21.9036 3.24376 21.5886 3.36951H21.3834C21.3834 3.38951 21.3834 3.40952 21.3834 3.42952C21.1754 3.57528 21.3112 3.66959 21.1927 3.84964L21.0136 3.96967C21.0136 4.00969 21.0136 4.0497 21.0136 4.08971H20.9558C20.9558 4.12972 20.9558 4.16973 20.9558 4.20974C20.8373 4.35835 20.5224 4.3012 20.3779 4.38979C20.3548 4.4298 20.3346 4.46981 20.3143 4.50982C20.167 4.64701 20.0658 4.68988 20.008 4.9328L19.8289 4.99282V5.05283H19.6497C19.6497 5.07284 19.6497 5.09284 19.6497 5.11285H18.8205L18.6355 5.35292L18.5171 5.41293L18.4477 5.77589H18.387C18.2714 5.91307 18.1385 5.89021 18.0287 6.01596H17.8525C17.8539 5.99598 17.8539 5.97592 17.8525 5.95594L17.3988 5.53297C17.2063 5.53584 17.0199 5.59998 16.8671 5.71587L16.7458 5.89592H16.2806C16.2401 6.01596 16.2806 5.94737 16.217 6.01596C16.2212 6.12437 16.2585 6.22898 16.3239 6.31604L16.9018 6.25602C16.9481 6.32461 16.9018 6.25602 16.9567 6.31604C16.964 6.49959 16.9406 6.68306 16.8874 6.85905H16.4222C16.3904 6.73902 16.4222 6.80761 16.3673 6.73902C16.243 6.61041 16.0783 6.69329 15.9049 6.61898V6.55897L15.7316 6.49895C15.7077 6.55255 15.6644 6.59538 15.6102 6.61898L15.9454 7.09912H15.8934C15.8934 7.14199 15.8934 7.182 15.8934 7.22201C15.8356 7.30489 15.7489 7.22201 15.6593 7.28202L15.4744 7.52209H15.4166C15.4166 7.62212 15.4166 7.72215 15.4166 7.82217H15.3588V7.94221H15.301C15.301 8.00222 15.301 8.06224 15.301 8.12226L15.1826 8.18227C15.1826 8.22229 15.1826 8.2623 15.1826 8.30231H15.1248L15.0612 8.48522L14.7723 8.54523C14.7708 8.56521 14.7708 8.58527 14.7723 8.60525H14.4833L14.3591 8.7853L13.8274 8.96535V9.20542L13.943 9.26543C13.9574 9.36546 13.9748 9.46549 13.9892 9.56552H14.0499V9.62553C13.9689 9.63812 13.8894 9.6592 13.8129 9.68841V9.62553L13.4084 9.5055C13.36 9.55994 13.2983 9.60126 13.2293 9.62553C13.2293 9.66554 13.2293 9.70841 13.2293 9.74557C13.3186 9.83471 13.3937 9.93688 13.4518 10.0485H13.5124C13.5124 9.98849 13.5124 9.92847 13.5124 9.86846H13.7465C13.7783 9.98849 13.7465 9.9199 13.8014 9.98849V10.0485H13.9776C14.021 9.777 14.0846 9.87417 14.1106 9.56552H14.1597C14.1597 9.60553 14.1597 9.64554 14.1597 9.68841C14.2923 9.7253 14.4293 9.74452 14.5671 9.74557C14.5671 9.70841 14.5671 9.66554 14.5671 9.62553H14.3908V9.56552H14.3331C14.3331 9.5055 14.3331 9.44548 14.3331 9.38547H14.2175C14.255 9.00536 14.3128 9.13397 14.5787 9.02537H14.7549L14.8185 8.90533H14.9341C14.9572 8.86532 14.9774 8.82531 14.9976 8.7853H15.1132C15.1363 8.74529 15.1566 8.70528 15.1768 8.66527H15.3155L15.3791 8.48522C15.46 8.37661 15.59 8.32803 15.6825 8.18227H15.7402C15.7402 8.16227 15.7402 8.14226 15.7402 8.12226H15.6825C15.67 8.01415 15.6812 7.90466 15.7151 7.80115C15.7489 7.69764 15.8048 7.60249 15.8789 7.52209H16.0523C16.095 7.37661 16.1781 7.2459 16.2921 7.14484C16.2937 7.12487 16.2937 7.1048 16.2921 7.08483L16.5233 7.14484C16.5233 7.22772 16.5233 7.30775 16.5233 7.38777H16.4713V7.44778H16.295V7.68785C16.2054 7.74214 16.108 7.78262 16.0061 7.80788L15.9367 8.10797H15.8211C15.8211 8.14798 15.8211 8.18799 15.8211 8.228H15.8934V8.47093L16.4251 8.34803V8.53094C16.3571 8.58327 16.2959 8.64375 16.243 8.71099H15.8934L15.5206 9.20256L15.2837 9.26257C15.2851 9.28255 15.2851 9.30261 15.2837 9.32259L15.1652 9.38261C15.1652 9.42262 15.1652 9.46263 15.1652 9.50264H15.1074C15.1074 9.54265 15.1074 9.58266 15.1074 9.62267L14.6278 9.98563C14.6278 10.0456 14.6278 10.1057 14.6278 10.1657L14.5093 10.2257C14.5093 10.2657 14.5093 10.3057 14.5093 10.3457L14.3908 10.4057C14.3677 10.4658 14.3475 10.5258 14.3273 10.5858L13.7494 10.5258C13.7002 10.6522 13.6373 10.773 13.5616 10.8859H13.4431C13.4431 10.9259 13.4431 10.9688 13.4431 11.0088C13.3552 11.0286 13.2738 11.0699 13.2061 11.1288C13.2047 11.1488 13.2047 11.1688 13.2061 11.1888L12.7149 11.2488C12.7149 11.3089 12.7149 11.3689 12.7149 11.4289C12.6485 11.4803 12.7149 11.4289 12.6542 11.4889C12.4847 11.4832 12.3223 11.4196 12.1948 11.3089C12.1948 11.2488 12.1948 11.1888 12.1948 11.1288H12.2526L12.5416 10.7658C12.543 10.7459 12.543 10.7258 12.5416 10.7058H12.7756C12.7756 10.6858 12.7756 10.6658 12.7756 10.6458H12.8334C12.8348 10.6658 12.8348 10.6859 12.8334 10.7058H13.0674C13.0689 10.6859 13.0689 10.6658 13.0674 10.6458H13.1252C13.1252 10.5458 13.0935 10.4458 13.079 10.36H13.1368C13.1599 10.28 13.1801 10.2 13.2033 10.12C13.1397 10.0685 13.2033 10.12 13.1484 10.0599C12.1861 10.0799 12.4491 10.8887 11.5967 10.9002C11.5765 10.963 11.5533 11.0231 11.5331 11.0831H11.4753C11.4753 11.1831 11.4753 11.2831 11.4753 11.3832C11.4089 11.5375 11.2875 11.5261 11.2297 11.7433C11.1196 11.7782 11.0202 11.8401 10.9408 11.9233V11.9833H10.8223L10.7616 12.1034L10.5825 12.1634C10.5825 12.2234 10.5825 12.2863 10.5825 12.3463H10.5247C10.5247 12.3863 10.5247 12.4263 10.5247 12.4663H10.4669C10.4669 12.5063 10.4669 12.5463 10.4669 12.5864H10.3744C10.3744 12.6264 10.3744 12.6664 10.3744 12.7064H10.3166L10.2473 12.9465H10.1895L10.0681 13.1265C9.99012 13.1808 9.8312 13.1694 9.77919 13.2465C9.72718 13.3237 9.73585 13.4066 9.71273 13.4866L9.22441 13.7181L9.10016 13.8981H9.04237C9.04237 13.9382 9.04237 13.9782 9.04237 14.0182L8.9239 14.0782C8.9239 14.1182 8.9239 14.1582 8.9239 14.1982L8.50203 14.5583H8.32577C8.18418 14.7813 8.03682 15.0013 7.89523 15.2214H7.77676C7.77676 15.2614 7.77676 15.3014 7.77676 15.3414H7.65829C7.63807 15.4214 7.61495 15.5015 7.59183 15.5815C7.64317 15.6314 7.68094 15.6933 7.70164 15.7615H7.99059V15.7015C8.1524 15.6558 8.1235 15.7015 8.17263 15.5215C8.44713 15.4643 8.50203 15.3414 8.59738 15.1013H8.71296C8.71296 15.0613 8.71296 15.0213 8.71296 14.9813H9.12038C9.12038 15.0213 9.12038 15.0613 9.12038 15.1013H9.29664L9.33999 15.4614C9.24047 15.4617 9.14202 15.4413 9.05103 15.4014C9.02548 15.4539 8.9827 15.4962 8.92968 15.5215V15.7615H8.69563V15.8215C8.18129 15.9644 8.55404 16.3188 8.37778 16.5446C8.37634 16.5646 8.37634 16.5846 8.37778 16.6046L8.20441 16.5446V16.6046L7.96458 16.7847C7.9988 16.9314 8.05325 17.0727 8.12639 17.2048H8.18418C8.15818 17.4048 8.12928 17.6078 8.10328 17.8078H8.16396L8.2073 18.1679H8.14951L8.08594 18.348L7.96458 18.408V18.648H7.9039C7.9039 18.6881 7.9039 18.7309 7.9039 18.7681H7.84611C7.76809 18.9567 7.84611 19.1167 7.7103 19.2511C7.67532 19.3173 7.62427 19.3739 7.56174 19.4158C7.49921 19.4577 7.42715 19.4836 7.35201 19.4911C7.24798 19.5712 6.97926 19.4368 6.88968 19.3111H6.83189L6.89835 19.131H6.83767C6.83767 19.091 6.83767 19.051 6.83767 19.011H6.77988C6.76159 18.8463 6.7875 18.6797 6.85501 18.528H6.9128C6.9128 18.388 6.9128 18.2422 6.9128 18.1079H6.97059V17.9278H7.02838V17.642C7.09195 17.4534 7.14107 17.3563 6.98504 17.2191C6.93881 17.1533 6.98504 17.2191 6.93014 17.1591C6.72209 17.5163 6.28867 18.0965 5.84079 18.1822C5.83057 18.2832 5.8449 18.3852 5.88259 18.4797C5.92029 18.5741 5.98026 18.6583 6.05751 18.7252C6.05195 18.8507 6.02095 18.9738 5.96635 19.0872C5.91175 19.2006 5.83466 19.302 5.73966 19.3854V19.434L5.56051 19.494C5.4247 19.7112 5.64431 19.9084 5.48249 20.097C5.48249 20.137 5.48249 20.177 5.48249 20.217L4.82947 20.5028C4.80346 20.6257 4.70811 20.7486 4.75723 20.923H4.81502C4.82947 21.023 4.8468 21.123 4.86125 21.223H4.80346C4.80346 21.2631 4.80346 21.3059 4.80346 21.3459L4.68499 21.406C4.68499 21.446 4.68499 21.486 4.68499 21.526H4.62431C4.59831 21.686 4.5723 21.8461 4.54918 22.0061L4.37004 22.1261C4.34403 22.2462 4.32091 22.3662 4.2978 22.4863L3.9395 22.7292C3.9395 22.8692 3.9395 23.015 3.92505 23.1493L3.6361 23.3894C3.66789 23.7666 3.68233 23.518 3.92505 23.6294C3.92361 23.6494 3.92361 23.6695 3.92505 23.6894H4.04063C4.07242 23.7094 4.08108 23.7752 4.15332 23.8095C4.10998 23.9924 4.06375 24.1724 4.01752 24.3525H3.95973C3.95973 24.3925 3.95973 24.4325 3.95973 24.4725H3.89905C3.89905 24.6126 3.89905 24.7583 3.8846 24.8926H3.82681C3.82824 24.9126 3.82824 24.9327 3.82681 24.9526L3.24891 25.0127C3.21134 25.1327 3.24891 25.067 3.18823 25.1327V25.3156H3.24891C3.28647 25.4785 3.24891 25.4499 3.4165 25.4957C3.44828 25.6157 3.4165 25.5471 3.4714 25.6157C3.46724 25.731 3.43034 25.8428 3.36493 25.9383C3.29952 26.0338 3.20824 26.1092 3.10154 26.1558L3.08421 26.6388C3.11599 26.716 3.37316 26.816 3.30381 27.0589H3.24602L3.17667 27.299H3.11888C3.11888 27.419 3.11888 27.5391 3.11888 27.6591H3.06109C3.06109 27.6991 3.06109 27.7391 3.06109 27.782H3.0033C3.0033 27.9621 3.0033 28.1421 2.98307 28.3222H2.92528C2.92528 28.3622 2.92528 28.4022 2.92528 28.4422H2.80103C2.77792 28.5822 2.75191 28.728 2.7288 28.8623H2.67101C2.67101 28.9223 2.67101 28.9823 2.67101 29.0452H2.60166L2.46296 29.6454L2.28381 29.7654V29.8254L2.10466 29.8854C1.97752 30.0626 2.13645 30.3856 2.02087 30.6085C1.89093 30.7355 1.72433 30.8193 1.5441 30.8486C1.49787 31.0886 1.45163 31.3287 1.40251 31.5688H1.4603L1.51231 31.7517L1.39384 31.8117C1.37362 31.8917 1.3505 31.9717 1.32739 32.0518H1.27249C1.27249 32.3376 1.28982 32.6234 1.30138 32.8949H1.2407V33.0149L1.00087 33.1949C0.977755 33.275 0.957529 33.355 0.934413 33.435H0.867954C0.867954 33.6151 0.89396 33.7951 0.905518 33.9752L0.616567 34.2152L0.579004 34.9469H0.521213L0.509655 35.4384H0.451865C0.344954 35.6671 0.350733 35.7242 0.145578 35.8614C0.181091 36.0073 0.234459 36.1484 0.3045 36.2815H0.362291C0.342064 36.3815 0.316059 36.4816 0.295832 36.5673H0.353622L0.336285 37.0503C0.307201 37.0693 0.285225 37.0972 0.273739 37.1297C0.262253 37.1622 0.261894 37.1976 0.272716 37.2303H0.330506C0.380515 37.4487 0.372552 37.6761 0.30739 37.8905H0.24671C0.24671 37.9305 0.24671 37.9706 0.24671 38.0106H0.186031C0.186031 38.0506 0.186031 38.0906 0.186031 38.1335H0.122462L0.217815 38.7336H0.160025C0.136909 38.8136 0.113793 38.8937 0.0935666 38.9737H0.0328869C-0.0769143 39.2595 0.119572 39.9854 0.165804 40.1769C0.264047 40.5827 -0.0653563 40.8171 0.0155499 41.1543H0.07334C0.07334 41.2143 0.07334 41.2743 0.07334 41.3343H0.128241C0.128241 41.4944 0.128241 41.6544 0.110904 41.8145L0.223594 41.8774C0.223594 41.9374 0.223594 41.9974 0.223594 42.0574H0.290053L0.13402 43.2006H0.19181C0.19181 43.2606 0.19181 43.3206 0.19181 43.3806H0.2496C0.2496 43.4206 0.2496 43.4607 0.2496 43.5007H0.290053C0.290053 43.5607 0.290053 43.6207 0.290053 43.6807H0.347843C0.347843 43.7207 0.347843 43.7607 0.347843 43.8007H0.408523C0.408523 43.9008 0.408523 44.0008 0.408523 44.1008H0.466313C0.48365 44.2209 0.498097 44.3409 0.512545 44.4609H0.570335C0.575826 44.4848 0.572779 44.5098 0.561714 44.5317C0.550649 44.5536 0.53225 44.571 0.509655 44.581C0.501046 44.7739 0.555784 44.9644 0.665689 45.124C0.729258 45.2411 0.740816 45.2669 0.89107 45.304L0.957529 45.124H1.24648C1.21758 45.344 1.19158 45.3812 1.00087 45.4241V45.4841C0.925744 45.4355 0.937302 45.4326 0.888181 45.364H0.801496C0.801496 45.4241 0.801496 45.4841 0.801496 45.5441C0.801496 45.6041 0.7177 45.5955 0.680136 45.6641C0.830686 45.7867 0.932951 45.9576 0.969087 46.1471H1.20025L1.22625 45.4841H1.34183L1.4054 45.304C1.49787 45.1897 1.63078 45.144 1.69435 45.0182H1.81282C1.83305 44.9382 1.85617 44.8582 1.87928 44.7782C2.03607 44.7817 2.19203 44.8018 2.34449 44.8382C2.35894 44.9582 2.37339 45.0782 2.39072 45.1983H2.33293V45.4383H2.39072C2.39072 45.6384 2.41384 45.8385 2.42829 46.0414H2.31271C2.28959 46.2414 2.25492 46.3757 2.122 46.4615V46.5215H2.29537V46.5815C2.35652 46.6447 2.43653 46.6867 2.52364 46.7016C2.54098 46.7816 2.55831 46.8616 2.57276 46.9416H2.45718C2.45718 46.9816 2.45718 47.0216 2.45718 47.0617L2.02376 47.156C1.97569 47.0893 1.91939 47.0288 1.85617 46.9759C1.82149 46.893 1.85617 46.4843 1.8186 46.3729C1.70302 46.3357 1.76659 46.3729 1.70302 46.3129H1.46897V46.3729H1.40829C1.40829 46.4329 1.40829 46.4929 1.40829 46.5529L1.23203 46.613C1.23203 46.8445 1.21181 46.8645 1.39673 46.8988C1.41407 46.9788 1.42852 47.0617 1.44586 47.1417C1.48342 47.1617 1.52387 47.1788 1.56144 47.2017V47.4418L1.67702 47.5018C1.6539 47.5418 1.63367 47.5818 1.61345 47.6218H1.67124C1.68857 47.7018 1.70591 47.7819 1.72036 47.8619L1.60189 47.9219L1.51809 48.2991L1.86483 48.3592V48.4192L2.20291 48.7221C2.20291 48.7621 2.20291 48.8021 2.20291 48.8421L2.3156 48.9022C2.3156 48.9422 2.3156 48.9822 2.3156 49.0222L2.54387 49.2022C2.54243 49.2222 2.54243 49.2423 2.54387 49.2623H2.65945L3.0582 49.5481L3.04086 50.0911L3.43672 50.4512C3.36738 50.5198 3.43672 50.4769 3.31825 50.5112C3.31682 50.5312 3.31682 50.5512 3.31825 50.5712C3.42228 50.6484 3.56675 50.5712 3.66789 50.5712C3.66789 50.5312 3.66789 50.4912 3.66789 50.4512L3.84126 50.5112V50.4512L3.96261 50.3912C4.02041 50.4712 4.06375 50.454 4.1331 50.5112C4.13166 50.5312 4.13166 50.5512 4.1331 50.5712H4.25157C4.25013 50.5912 4.25013 50.6112 4.25157 50.6312H4.30936C4.41916 50.7713 4.24001 50.7455 4.47695 50.8113C4.54341 50.8799 4.47695 50.837 4.59253 50.8713C4.69432 50.7065 4.76026 50.5225 4.78612 50.3311H5.02017C5.02017 50.7998 5.1791 50.8656 5.16176 51.3543L4.87281 51.4143V51.1742H4.69655C4.74856 51.46 4.80057 51.4057 4.737 51.7144L4.38159 51.7744V51.8344C4.26127 51.8317 4.14157 51.8521 4.02907 51.8944L3.89905 52.2545C3.99315 52.3619 4.06747 52.4847 4.11865 52.6175C4.11865 52.6575 4.11865 52.6975 4.11865 52.7375H4.17644L4.34403 52.9776H4.45961L4.6272 53.2177L4.80057 53.2777C4.80057 53.3177 4.80057 53.3577 4.80057 53.3977L4.91615 53.4577C4.91615 53.6006 4.91615 53.7435 4.9017 53.8807H4.95949C4.95949 53.9407 4.95949 54.0007 4.95949 54.0607H5.01728C5.01728 54.1008 5.01728 54.1408 5.01728 54.1808L5.18777 54.3008C5.18777 54.3408 5.18777 54.3808 5.18777 54.4208L5.36114 54.5409V54.7209L5.47672 54.7809C5.47672 54.841 5.47672 54.9038 5.47672 54.9639H5.49116C5.49116 55.0039 5.49116 55.0439 5.49116 55.0839H5.54895L5.60096 55.2639C5.88805 55.3543 6.13105 55.5467 6.28289 55.8041C6.35802 55.987 6.23666 56.2013 6.32334 56.3471L6.66141 56.6329L6.83478 56.6929L6.88679 56.873L7.22487 57.2016C7.22487 57.2416 7.22487 57.2816 7.22487 57.3216L7.39535 57.4445C7.4098 57.5417 7.42713 57.6446 7.44158 57.7446H7.50226C7.50226 57.7846 7.50226 57.8246 7.50226 57.8647H7.56005C7.56005 57.9847 7.56005 58.1047 7.56005 58.2248H7.50226C7.51671 58.3048 7.53404 58.3848 7.55138 58.4648L7.90101 58.5248C7.89957 58.5448 7.89957 58.5649 7.90101 58.5849L8.24197 58.8878C8.24197 58.9278 8.24197 58.9678 8.24197 59.0078L8.47024 59.1879C8.48469 59.3079 8.49914 59.4279 8.51648 59.548H8.57427C8.60894 59.608 8.6465 59.668 8.68407 59.728L8.85744 59.788C8.87477 59.8681 8.88922 59.9481 8.90656 60.031H8.96435C9.20129 60.2682 9.15217 59.991 9.43245 60.091C9.43086 60.111 9.43086 60.131 9.43245 60.151H9.54803V60.211H9.66361V60.271H9.78208L9.83409 60.3911H9.95256C9.95256 60.4111 9.95256 60.4311 9.95256 60.4511L10.1808 60.6311C10.2762 60.7769 10.2588 60.8941 10.4004 60.9912C10.3744 61.2113 10.3484 61.4342 10.3195 61.6543C10.4351 61.6886 10.3715 61.6543 10.4351 61.7143C10.7241 61.6743 10.672 61.6057 10.7963 61.4114H10.8541L10.9177 61.2313H11.0361C11.1113 61.1942 11.0159 61.1599 11.0968 61.1713C11.0968 61.1913 11.0968 61.2113 11.0968 61.2313H11.2731L11.4956 61.5342H11.5533C11.5851 61.6114 11.5245 61.5628 11.4927 61.5943C11.4868 61.6717 11.4982 61.7496 11.5262 61.8222C11.5541 61.8948 11.598 61.9604 11.6545 62.0144C11.877 62.2573 12.3509 62.0144 12.4809 61.7743C12.9143 61.84 12.6398 61.8915 12.7698 62.1344H12.8276C12.8742 62.2167 12.9399 62.2868 13.0193 62.3389C13.0987 62.3911 13.1895 62.4239 13.2842 62.4345C13.3049 62.5216 13.3422 62.604 13.394 62.6774C13.4807 62.688 13.5686 62.67 13.6438 62.626C13.7191 62.5821 13.7775 62.5147 13.8101 62.4345C14.177 62.4345 14.3128 62.586 14.622 62.6145C14.6938 62.8464 14.8276 63.0547 15.0092 63.2176V63.2776C15.1161 63.3205 15.2577 63.1261 15.4195 63.2176C15.4195 63.2376 15.4195 63.2576 15.4195 63.2776H15.4773C15.4946 63.3976 15.5091 63.5177 15.5235 63.6377C15.511 63.6409 15.4994 63.6467 15.4893 63.6546C15.4792 63.6625 15.4708 63.6725 15.4649 63.6838C15.4589 63.6951 15.4553 63.7075 15.4545 63.7202C15.4537 63.733 15.4555 63.7457 15.46 63.7577H15.5206C15.5206 64.1836 15.7085 64.1664 15.8472 64.4208L16.3759 64.3607V64.4208H16.5522C16.5508 64.4407 16.5508 64.4608 16.5522 64.4808H16.9018C16.9033 64.5008 16.9033 64.5208 16.9018 64.5408C17.133 64.6122 16.977 64.5579 17.0723 64.7208H17.1301C17.1301 64.7609 17.1301 64.8009 17.1301 64.8409L17.8062 65.5039V65.744H17.8669C17.9016 65.804 17.9392 65.864 17.9767 65.924H18.0923V65.9841H18.205C18.2223 65.9841 18.4073 66.3099 18.4275 66.3442C18.4477 66.3784 18.4275 66.4242 18.4275 66.467H18.4882L18.6529 66.7071H18.8291V66.7671C19.1845 66.7671 19.2625 66.5356 19.3174 66.2241H19.433L19.4966 66.1041L19.8433 66.1641C19.8636 66.2041 19.8809 66.2441 19.8982 66.2841H20.0167L20.0687 66.407H20.2276C20.245 66.447 20.2652 66.4842 20.2825 66.5242L20.5715 66.7671C20.5715 66.8071 20.5715 66.8471 20.5715 66.8872H20.6293C20.7073 66.9758 20.6553 66.9643 20.7998 67.0072C20.7998 67.0472 20.7998 67.0872 20.7998 67.1272C20.7998 67.1672 20.9067 67.1444 20.9125 67.2473H20.8547V67.3073H20.6206C20.5831 67.1387 20.5224 67.1358 20.4559 67.0215L19.9242 67.1415C19.8867 66.9729 19.826 66.97 19.7595 66.8557C19.6391 66.8513 19.519 66.8717 19.407 66.9157C19.3927 66.9889 19.3943 67.0642 19.4117 67.1366C19.4291 67.2091 19.462 67.277 19.5082 67.3359L19.7971 67.3959V67.3359C20.1092 67.3702 20.2103 67.7017 20.2421 67.9989H20.3606C20.4068 68.2047 20.479 68.1532 20.5224 68.359C20.638 68.3962 20.5715 68.359 20.638 68.419C20.9038 68.4047 20.8893 68.3333 21.0512 68.239V68.0589H20.9905C20.9111 67.9551 20.874 67.8256 20.8865 67.696H21.1205C21.2823 67.7617 21.4875 68.0732 21.6984 67.756C21.8255 67.756 21.9325 67.756 21.9874 67.816C21.9874 67.856 21.9874 67.8989 21.9874 67.936H22.0451C22.0451 67.9989 22.0451 68.0589 22.0451 68.1189L22.2705 68.299V68.359C22.2691 68.379 22.2691 68.399 22.2705 68.419H22.3283C22.3298 68.439 22.3298 68.4591 22.3283 68.479C22.4872 68.3962 22.5306 68.5219 22.6751 68.5991L22.6057 68.8849C22.8715 68.8849 22.8947 68.8306 22.9669 68.6448C23.3483 68.6448 23.5043 68.7534 23.8337 68.7648L23.8858 68.9449H23.8251C23.8049 69.0249 23.7817 69.1078 23.7586 69.1849H23.8164C23.8164 69.2278 23.8164 69.2678 23.8164 69.3078L24.0447 69.4879V69.6679H24.1054C24.1054 69.7079 24.1054 69.748 24.1054 69.788H24.166L24.1487 70.2681C24.2125 70.3215 24.2689 70.383 24.3163 70.451H24.8422C24.8595 70.491 24.8769 70.531 24.8971 70.571L25.186 70.6311C25.186 70.571 25.186 70.511 25.186 70.451H25.2467V70.391H25.0733L25.0213 70.2081L24.9 70.2681C24.9014 70.2481 24.9014 70.2281 24.9 70.2081H24.7266C24.6948 70.0623 24.6688 70.0766 24.6168 69.968H24.6746C24.676 69.948 24.676 69.928 24.6746 69.908C24.8133 69.8566 25.0184 70.1938 25.371 70.0881V70.0195L25.8362 70.0795C25.8376 70.0595 25.8376 70.0394 25.8362 70.0195L26.0095 70.0795C26.0285 70.052 26.0559 70.0314 26.0876 70.0206C26.1194 70.0098 26.1538 70.0094 26.1858 70.0195V70.0795L26.417 70.1395C26.417 70.1595 26.417 70.1795 26.417 70.1995H26.5846C26.6767 70.2384 26.7594 70.2962 26.8271 70.3691C26.8949 70.442 26.9462 70.5284 26.9775 70.6225C27.1798 70.6225 27.1885 70.6968 27.3878 70.6225V70.5625H27.5641C27.6797 70.5082 27.8328 70.2767 28.0958 70.3824C28.116 70.4196 28.1333 70.4624 28.1507 70.5025H28.3183C28.3183 70.5225 28.3183 70.5425 28.3183 70.5625H28.4338V70.6225H29.1331V70.6825H29.2487C29.2862 70.7425 29.3238 70.8025 29.3585 70.8626H29.5347C29.5362 70.8825 29.5362 70.9026 29.5347 70.9226C29.6648 70.954 29.8613 70.7997 30.0635 70.8626C30.065 70.8825 30.065 70.9026 30.0635 70.9226H30.7657C30.7671 70.9426 30.7671 70.9626 30.7657 70.9826H30.9188C30.9203 71.0026 30.9203 71.0226 30.9188 71.0426L31.2713 70.9826V71.0426H31.3869L31.4418 71.1626H31.5574C31.5776 71.2026 31.595 71.2427 31.6123 71.2827L32.0775 71.3427C32.0775 71.3227 32.0775 71.3027 32.0775 71.2827H32.1353C32.1367 71.3026 32.1367 71.3227 32.1353 71.3427H32.4242V71.2827L32.5398 71.3427C32.5489 71.3202 32.5659 71.3017 32.5877 71.2907C32.6095 71.2796 32.6346 71.2768 32.6583 71.2827C32.6597 71.3026 32.6597 71.3227 32.6583 71.3427H32.8346C32.836 71.3627 32.836 71.3827 32.8346 71.4027L33.5396 71.3427C33.5396 71.3627 33.5396 71.3827 33.5396 71.4027H33.8892V71.4484H34.0048C34.0221 71.4913 34.0424 71.5285 34.0597 71.5713H34.236C34.2346 71.5903 34.2346 71.6095 34.236 71.6285C34.4304 71.6567 34.6289 71.637 34.8139 71.5713L35.9697 71.6285L36.6083 71.6914V71.7514H36.7238L36.7787 71.8714L37.4173 71.9914C37.4375 71.9514 37.4578 71.9114 37.4809 71.8714L37.7149 71.8114L37.7785 71.6914C37.9952 71.5828 38.2177 71.7314 38.3564 71.6914C38.3564 71.6714 38.3564 71.6513 38.3564 71.6285H38.5327V71.5713H38.7667C38.7681 71.5504 38.7681 71.5294 38.7667 71.5084H39.0008C38.9994 71.4885 38.9994 71.4684 39.0008 71.4484H39.3504C39.349 71.4285 39.349 71.4084 39.3504 71.3884L39.9283 71.4484C39.9283 71.4284 39.9283 71.4084 39.9283 71.3884H40.2779C40.2779 71.3684 40.2779 71.3484 40.2779 71.3284H40.5669C40.5669 71.3084 40.5669 71.2884 40.5669 71.2684H41.1448C41.1448 71.2484 41.1448 71.2284 41.1448 71.2084C41.4337 71.1455 41.4742 71.4942 41.7805 71.3884C41.7805 71.3684 41.7805 71.3484 41.7805 71.3284L42.1359 71.2084V71.1626H42.2543C42.2529 71.1427 42.2529 71.1226 42.2543 71.1026L42.8322 71.1626C42.8322 71.1426 42.8322 71.1226 42.8322 71.1026L43.1848 71.0426C43.1833 71.0226 43.1833 71.0026 43.1848 70.9826H43.3581L43.4217 70.8626H43.6326V70.8025L44.4995 70.9226C44.4995 70.9026 44.4995 70.8826 44.4995 70.8626H44.6758V70.8025H44.7884C44.787 70.7826 44.787 70.7625 44.7884 70.7425H45.0196C45.021 70.7225 45.021 70.7025 45.0196 70.6825H45.1381V70.6225H45.2565L45.3779 70.4424L46.0194 70.5025L46.0829 70.3824H46.1985L46.2621 70.2595L46.9671 70.1395C46.9671 70.1195 46.9671 70.0995 46.9671 70.0795L47.2561 70.0195L47.3168 69.8994C47.7329 69.6965 48.3541 70.0023 48.6719 69.6594H49.4319V69.5993C49.559 69.5079 49.6081 69.385 49.7208 69.3136C49.8335 69.2421 50.212 69.4164 50.4808 69.3136C50.4793 69.2936 50.4793 69.2735 50.4808 69.2535H50.5964L50.6599 69.1335H50.7755C50.7769 69.1126 50.7769 69.0916 50.7755 69.0706H51.3534C51.3548 69.0506 51.3548 69.0306 51.3534 69.0106L51.5903 68.9506V68.8763H51.8793C51.8807 68.8563 51.8807 68.8362 51.8793 68.8163L52.1162 68.7563C52.1148 68.7363 52.1148 68.7162 52.1162 68.6962L53.2316 68.5162L53.2952 68.3962L53.5841 68.3361L53.7055 68.1561L53.9424 68.0961C53.941 68.0761 53.941 68.056 53.9424 68.0361H54.5839L54.7081 67.8531H54.8237C54.8439 67.816 54.867 67.776 54.8873 67.7331H55.0635V67.6731C55.1444 67.6559 55.2225 67.6331 55.3005 67.6131L55.4247 67.433H55.5403C55.5403 67.413 55.5403 67.393 55.5403 67.373H55.6559C55.6573 67.353 55.6573 67.333 55.6559 67.313H55.7715C55.7729 67.293 55.7729 67.273 55.7715 67.253H55.8899L55.9535 67.0729C56.042 67.0548 56.1239 67.0134 56.1904 66.9529V66.8757L56.4794 66.8157L56.543 66.6957H56.6585C56.699 66.6357 56.7423 66.5756 56.7828 66.5128L57.0168 66.4556C57.0182 66.4356 57.0182 66.4156 57.0168 66.3956H57.2509C57.2509 66.3727 57.2509 66.3527 57.2509 66.3327H57.3665C57.3896 66.2927 57.4098 66.2527 57.43 66.2127H57.5485L57.6092 66.0927L57.9646 65.9726C57.9848 65.9326 58.005 65.8926 58.0282 65.8526L58.3171 65.7926L58.3778 65.6725H58.4963L58.9817 65.1295H59.392V65.0724L59.6289 65.0095L59.9352 64.6494L60.3918 64.5894C60.55 64.4853 60.6761 64.3399 60.7559 64.1693H61.224C61.224 64.1693 61.2991 63.632 61.302 63.6263H61.3598L61.484 63.4462H61.5996L61.6632 63.3262H61.7787C61.8019 63.2862 61.8221 63.2462 61.8423 63.2061H61.9579C61.9593 63.1862 61.9593 63.1661 61.9579 63.1461L62.137 63.0861V63.0261L62.2584 62.9661C62.2584 62.9061 62.2584 62.846 62.2584 62.786C62.3364 62.7231 62.4173 62.666 62.4982 62.6031C62.4969 62.5831 62.4969 62.5631 62.4982 62.5431H62.6138L62.9201 62.123H63.0386L63.2813 61.8372L64.1741 61.4142C64.1973 61.2742 64.2233 61.1284 64.2464 60.9941C64.3648 60.9598 64.2955 60.9941 64.3648 60.9341C64.8647 60.9026 64.5989 60.7397 64.7925 60.4539L64.911 60.3939L65.1566 60.0938C65.3155 59.951 65.4773 59.8081 65.6391 59.6709L65.6998 59.5508H65.8818C65.8804 59.5309 65.8804 59.5108 65.8818 59.4908H66.0552L66.3008 59.1907H66.3586C66.3586 59.1507 66.3586 59.1107 66.3586 59.0707L66.4771 59.0107C66.4771 58.9707 66.4771 58.9307 66.4771 58.8907H66.5349C66.5955 58.7592 66.5349 58.6792 66.6042 58.5877L66.8932 58.3476C66.9163 58.3076 66.9365 58.2676 66.9567 58.2276H67.0752L67.1359 58.1076H67.2544L67.315 57.9875H67.3757C67.3757 57.8675 67.3757 57.7475 67.3757 57.6274C67.3757 57.6274 67.4133 57.6274 67.4393 57.5074C67.5952 57.4827 67.7425 57.4202 67.8681 57.3254C67.9936 57.2307 68.0935 57.1066 68.1588 56.9644C68.1819 56.8844 68.205 56.8044 68.2252 56.7243L68.4044 56.6043C68.6301 56.3975 68.817 56.1527 68.9563 55.8812C68.9823 55.7412 69.0054 55.5955 69.0314 55.4611L69.5139 55.041V54.921H69.5717L69.5891 54.438H69.6469C69.6469 54.398 69.6469 54.358 69.6469 54.318L69.7653 54.2579C69.7653 54.2179 69.7653 54.1779 69.7653 54.1379L70.3692 53.5978C70.3692 53.5549 70.3692 53.5149 70.3692 53.4749L70.4877 53.4148C70.4877 53.3748 70.4877 53.3348 70.4877 53.2948L70.6062 53.2348C70.6062 53.1148 70.6062 52.9947 70.6062 52.8747H70.664C70.664 52.8147 70.664 52.7547 70.664 52.6946L70.846 52.5746C70.8662 52.4946 70.8894 52.4117 70.9125 52.3317H70.9703L70.9876 51.8516H71.0454C71.0454 51.7915 71.0454 51.7315 71.0454 51.6715H71.1061C71.1061 51.6115 71.1061 51.5515 71.1061 51.4915H71.1639C71.1639 51.4514 71.1639 51.4114 71.1639 51.3714H71.2245C71.2245 51.3114 71.2245 51.2514 71.2245 51.1914L71.4037 51.0713C71.4268 50.9913 71.447 50.9113 71.4701 50.8284H71.5279C71.6002 50.6455 71.4586 50.4454 71.4875 50.3483H71.5453C71.5684 50.2683 71.5915 50.1882 71.6117 50.1082L71.7938 49.9882C71.7938 49.9482 71.7938 49.9082 71.7938 49.8681L71.9122 49.8081C71.9122 49.7681 71.9122 49.7281 71.9122 49.6881H71.97C71.9931 49.6052 72.0134 49.5252 72.0365 49.4452H72.0943L72.1723 48.905L72.2908 48.845C72.2908 48.805 72.2908 48.765 72.2908 48.725L72.5306 48.5449C72.5306 48.4449 72.5306 48.342 72.5306 48.242H72.5884V48.1219H72.6491C72.6491 48.0819 72.6491 48.0419 72.6491 48.0019L72.8889 47.8219C72.8889 47.7819 72.8889 47.7418 72.8889 47.7018H72.9467C72.9785 47.5961 72.834 47.4618 72.9033 47.2817H72.9611C72.9611 47.2417 72.9611 47.1988 72.9611 47.1617H73.0218C73.0449 46.9988 73.0709 46.8387 73.0969 46.6787H73.1547C73.1778 46.5987 73.1981 46.5186 73.2212 46.4386H73.279C73.279 46.3986 73.279 46.3586 73.279 46.3186H73.3368C73.383 46.1385 73.4263 45.9585 73.4726 45.7756L73.591 45.7156L73.6604 45.4755H73.7182L73.6228 44.8753H73.6806L73.75 44.5724H73.8077C73.8077 44.4524 73.8077 44.3323 73.8077 44.2123L74.0967 44.0322C74.0967 43.9922 74.0967 43.9522 74.0967 43.9122H74.1545L74.2614 43.7264H74.2036C74.1256 43.4006 74.3394 43.3292 74.3972 43.1863L74.4145 42.7033H74.4723L74.5417 42.4632H74.5995L74.5561 42.0431H74.4983C74.4839 41.9374 74.5532 41.9402 74.559 41.9231C74.559 41.8202 74.559 41.7202 74.559 41.6201H74.6168C74.6168 41.3601 74.637 41.1 74.6457 40.8399C74.7555 40.5827 75.1283 40.1997 74.7468 39.9397ZM5.06352 52.0888C4.96238 52.1402 4.91904 52.0545 4.89304 52.0287H5.06641C5.06688 52.0488 5.06592 52.0688 5.06352 52.0888V52.0888ZM6.00261 20.5771H6.17887C6.17887 20.6172 6.17887 20.6572 6.17887 20.6972H6.00261C5.99972 20.6515 5.99972 20.6114 6.00261 20.5771ZM3.94528 29.1795C3.92216 29.2396 3.90194 29.2996 3.88171 29.3596L3.59276 29.4196V29.3596C3.52919 29.3081 3.59276 29.3596 3.53786 29.2996C3.63488 29.2659 3.71877 29.2029 3.77769 29.1195H3.89616C3.89472 29.1395 3.89472 29.1596 3.89616 29.1795H3.94528ZM3.6101 30.3827C3.5523 30.4885 3.52341 30.4742 3.48585 30.6228H3.2518C3.27202 30.1941 3.39338 30.2541 3.6101 30.377V30.3827ZM3.16222 31.5259C3.16222 31.7917 3.18245 31.8917 2.97151 31.9489C2.97151 31.6745 2.9484 31.5745 3.16222 31.5173V31.5259ZM2.9484 32.6091C2.9484 32.5691 2.9484 32.529 2.9484 32.489H3.17956C3.181 32.509 3.181 32.5291 3.17956 32.549H3.24024C3.19433 32.6208 3.17026 32.7042 3.17089 32.7891L2.99463 32.8491C2.95707 32.7691 2.92239 32.6891 2.88772 32.6091H2.9484ZM2.90795 45.3012V45.3612H2.73169L2.67967 45.1811C2.81837 45.2097 2.80681 45.2354 2.90795 45.2926V45.3012ZM1.9024 34.0437C1.93418 34.1638 1.9024 34.098 1.9573 34.1638C1.95881 34.1838 1.95881 34.2038 1.9573 34.2238L2.13645 34.1638L2.2058 33.8037C2.27517 33.8013 2.34318 33.7839 2.40506 33.7528C2.46695 33.7217 2.52122 33.6776 2.56409 33.6236C2.75191 33.6465 2.73169 33.6779 2.85304 33.7437C2.74902 33.8637 2.64789 33.9837 2.54676 34.1066C2.54676 34.3924 2.60744 34.4753 2.83571 34.5267C2.85304 34.6068 2.86749 34.6868 2.88483 34.7668L2.76636 34.8268C2.76636 34.8868 2.76636 34.9469 2.76636 35.0069H2.94262C2.97572 35.0843 3.03496 35.1479 3.11021 35.1869C3.10461 35.2706 3.082 35.3522 3.04375 35.427C2.71435 35.3898 2.78948 35.2612 2.64789 35.0669L2.47452 35.0069L2.29248 34.581L1.82438 34.6411C1.78971 34.4639 1.72903 34.4982 1.71169 34.461C1.625 34.2381 1.82438 34.2552 1.60767 34.1009C1.60904 34.08 1.60904 34.059 1.60767 34.038L1.78682 33.978C1.78538 33.998 1.78538 34.0181 1.78682 34.038L1.9024 34.0437ZM1.51231 33.5036H1.68857C1.68857 33.5436 1.68857 33.5836 1.68857 33.6236C1.5701 33.6608 1.63656 33.6236 1.56721 33.6836H1.50942C1.50942 33.6236 1.51231 33.5636 1.51231 33.5036ZM1.11934 44.6295C1.00376 44.6667 1.07022 44.6295 1.00087 44.6924C0.920091 44.6885 0.841176 44.667 0.769711 44.6295C0.784452 44.5245 0.828474 44.4255 0.896849 44.3438C0.977289 44.3476 1.05603 44.3681 1.12801 44.4038L1.11934 44.6295ZM1.61923 38.7965C1.54988 38.8651 1.61923 38.8222 1.50076 38.8565C1.41118 38.5707 1.599 38.4764 1.52387 38.1963H1.46319V38.0134H1.41118C1.41118 37.9134 1.41118 37.8134 1.41118 37.7276L1.2956 37.6676C1.2956 37.6276 1.2956 37.5876 1.2956 37.5476L1.1569 37.4133C1.1569 37.2732 1.1569 37.1275 1.1569 36.9931H0.922855C0.841949 36.976 0.94886 36.9217 0.865065 36.9331V36.9931H0.746595C0.746595 36.7902 0.746595 36.5902 0.766821 36.3901H0.709031C0.709031 36.3501 0.709031 36.3101 0.709031 36.2701H0.651241C0.631471 36.1063 0.657454 35.9402 0.726368 35.7899L1.01532 35.7299C1.01388 35.7499 1.01388 35.77 1.01532 35.7899C1.42274 35.7671 1.21181 35.7099 1.37651 35.487L1.50365 35.4384C1.50221 35.4184 1.50221 35.3984 1.50365 35.3784C1.65101 35.287 1.61634 35.447 1.74058 35.2584H1.91684C1.78971 35.3155 1.95152 35.6928 2.01509 35.7414C2.16275 35.7991 2.3226 35.8198 2.4803 35.8014C2.50341 35.7614 2.52364 35.7214 2.54387 35.6785H2.89061V35.8614L3.06398 35.9214C3.09576 36.0414 3.06398 35.9729 3.11888 36.0414C3.11065 36.1525 3.06601 36.2579 2.99174 36.3415H2.93395L2.91661 36.8245H2.85882V37.0046L2.74035 37.0646C2.74035 37.1046 2.74035 37.1446 2.74035 37.1846H2.66812C2.45718 37.559 2.56698 37.7934 2.17112 38.0249C2.17112 38.3307 2.25203 38.3449 2.46007 38.4478L2.3965 38.6279H2.15089C2.15089 38.5679 2.15089 38.5078 2.15089 38.4478H1.86194L1.73481 38.7965H1.61923ZM2.02376 42.106C2.02376 41.7745 2.07577 41.6744 2.27803 41.563C2.2766 41.543 2.2766 41.5229 2.27803 41.503L2.4514 41.563L2.50341 41.743H2.5612C2.5612 41.803 2.5612 41.8659 2.5612 41.9259H2.61899V42.166H2.67678C2.74613 42.4204 2.62766 42.5232 2.71724 42.6461C2.71432 42.7494 2.69178 42.8512 2.65078 42.9462L2.30115 42.8862C2.26648 42.7147 2.20291 42.7376 2.19135 42.7062V42.4661C2.1807 42.3301 2.12126 42.2024 2.02376 42.106V42.106ZM2.06421 44.2694H2.02376C2.02376 44.2294 2.02376 44.1894 2.02376 44.1494H2.08155C2.06999 44.1894 2.06999 44.2294 2.0671 44.2694H2.06421ZM2.41962 44.1494C2.23469 44.1008 2.22313 44.0322 1.9573 44.0294V44.2694C1.78971 44.2266 1.76659 44.2066 1.73192 44.0294H1.67413C1.62789 43.8865 1.7637 43.9036 1.79549 43.8493C1.82727 43.795 1.79549 43.7693 1.79549 43.7293H1.85328C2.14223 43.4435 2.01798 43.7865 2.26359 43.6693V43.6093C2.38206 43.5721 2.31271 43.6093 2.38206 43.5492H2.26648C2.27133 43.4965 2.29093 43.4461 2.32308 43.4037C2.35522 43.3613 2.39865 43.3286 2.44851 43.3092C2.51786 43.2406 2.44851 43.2835 2.56987 43.2492C2.59677 43.2844 2.63114 43.3134 2.67058 43.3342C2.71001 43.3549 2.75355 43.3669 2.79814 43.3692C2.81548 43.4692 2.82993 43.5693 2.84727 43.6693C2.645 43.7264 2.69123 43.7979 2.48897 43.8493L2.41962 44.1494ZM2.5612 45.1125H2.50341V44.8725H2.45718V44.8125H2.51786V44.7524L2.63344 44.8125L2.5612 45.1125ZM3.08709 48.4192C3.03508 48.4878 3.08709 48.4192 3.02642 48.4792C2.88986 48.2376 2.72072 48.0155 2.52364 47.819C2.52364 47.1017 2.56987 47.1502 3.08132 46.9788C3.06398 46.8102 3.08132 46.7959 2.97151 46.7358H2.85593L2.74324 46.5558H2.68834C2.79525 46.3443 2.66234 46.1042 2.65656 45.8356C2.77503 45.7984 2.70568 45.8356 2.77503 45.7727C3.03219 45.7727 3.32114 45.7384 3.29225 46.0156H3.23446C3.23446 46.1157 3.23446 46.2157 3.23446 46.3157H3.29225C3.40624 46.6035 3.60066 46.8533 3.85281 47.0359C3.80947 47.3217 3.68522 47.4646 3.65055 47.759C3.50299 47.7966 3.3625 47.8574 3.23446 47.939H3.17956C3.01775 48.1963 3.32114 48.1963 3.08998 48.4192H3.08709ZM4.43649 49.9253L4.20244 49.9853C4.20244 49.9053 4.20244 49.8253 4.20244 49.7424H4.14465C4.14609 49.7234 4.14609 49.7043 4.14465 49.6852H4.20244C4.22556 49.6224 4.24579 49.5623 4.2689 49.5023C4.16752 49.4755 4.07031 49.4351 3.97995 49.3823C3.94005 49.4445 3.88765 49.4978 3.82602 49.5391C3.76438 49.5804 3.69482 49.6088 3.62165 49.6224C3.5523 49.691 3.62165 49.6509 3.50318 49.6852C3.45117 49.5766 3.42228 49.5909 3.39338 49.4423H3.33559L3.40494 49.0822H3.5812C3.665 48.905 3.75746 48.6592 3.83548 48.4792C4.19089 48.5221 4.03774 48.6249 4.17355 48.8421L4.40182 49.0222C4.50006 49.2137 4.36137 49.368 4.38448 49.5023H4.44227C4.45094 49.6424 4.44516 49.7853 4.43938 49.9253H4.43649ZM4.56074 29.834V29.654H4.62431C4.62431 29.714 4.62431 29.774 4.62431 29.834H4.56074ZM4.79479 29.834C4.79479 29.774 4.79479 29.714 4.79479 29.654H4.85547C4.85547 29.714 4.85547 29.774 4.85547 29.834H4.79479ZM6.49382 23.1493L6.43314 23.2693H6.06906C6.10294 23.3449 6.12065 23.4267 6.12108 23.5094H5.94482C5.94482 23.5694 5.94482 23.6294 5.94482 23.6894C6.10149 23.6944 6.25731 23.7145 6.41003 23.7495C6.38402 23.8924 6.3609 24.0353 6.33779 24.1724H6.21932V24.4125H6.27711C6.19042 24.724 6.19042 24.5497 5.98816 24.6526V24.7126L5.80901 24.7726C5.76567 24.9326 5.71943 25.0927 5.67609 25.2556H5.6183C5.6183 25.2956 5.6183 25.3356 5.6183 25.3756H5.56051C5.56051 25.8958 5.56051 26.4159 5.56051 26.9389H5.49116C5.49116 26.9989 5.49116 27.0589 5.49116 27.119H5.43048C5.43048 27.179 5.43048 27.239 5.43048 27.299L5.31201 27.359C5.31345 27.379 5.31345 27.3991 5.31201 27.4191H5.37269C5.34669 27.5591 5.32357 27.7048 5.29757 27.842L5.1791 27.902C5.1125 28.074 5.08583 28.2586 5.10108 28.4422C5.03462 28.4936 5.10108 28.4422 5.0404 28.5022H4.75145C4.75145 28.6222 4.75145 28.7423 4.75145 28.8623H4.24868C4.24868 28.9023 4.24868 28.9423 4.24868 28.9823C4.13021 29.0195 4.19955 28.9823 4.13021 29.0452H3.95395C3.95532 29.0243 3.95532 29.0033 3.95395 28.9823H3.89616C3.91638 28.9423 3.93661 28.9023 3.95973 28.8623L3.84415 28.8023C3.82681 28.7023 3.81236 28.6022 3.79502 28.5165H3.73723C3.8297 28.1364 3.91927 27.7534 4.01174 27.3733L4.18511 27.4333C4.18511 27.5534 4.214 27.6734 4.23134 27.7963C4.20339 27.8164 4.18214 27.8442 4.1703 27.8763C4.15846 27.9084 4.15657 27.9432 4.16488 27.9763H4.22556V28.2164C4.36327 28.2463 4.49851 28.2864 4.63009 28.3364C4.62082 28.2549 4.6034 28.1745 4.57808 28.0964H4.62431C4.62431 27.9763 4.62431 27.8563 4.62431 27.7363C4.51451 27.6305 4.57808 27.5905 4.5174 27.4934H4.45672L4.40471 27.3733H4.28624L4.11865 27.1333H4.00307L3.94817 27.0132C3.89327 26.9904 3.83548 27.1304 3.71412 27.0732C3.68291 27.0278 3.64491 26.9874 3.60143 26.9532L3.68522 26.5788C3.89905 26.6017 4.00596 26.6703 4.15621 26.5188H4.214C4.19151 26.4506 4.15401 26.3881 4.1042 26.3359C4.09637 26.166 4.14288 25.998 4.23712 25.8558H4.35559L4.41916 25.6757H4.47695C4.47695 25.6157 4.47695 25.5557 4.47695 25.4957H4.53763C4.62142 25.267 4.49428 25.2299 4.66765 25.0727C4.66765 25.0527 4.66765 25.0327 4.66765 25.0127C4.77746 24.9755 4.74856 25.0498 4.78323 25.0727C5.03462 25.0727 4.98261 25.0355 5.13575 24.9526C5.13899 24.8553 5.12329 24.7583 5.08952 24.6669C4.96043 24.6641 4.83451 24.7066 4.73411 24.7869L4.67054 24.9669H4.62431V24.9069C4.50574 24.9114 4.38755 24.891 4.27757 24.8469L4.22556 24.6669C4.3325 24.5422 4.4166 24.4 4.47406 24.2467H4.53185C4.53185 24.1867 4.53185 24.1267 4.53185 24.0667L4.65321 24.0067C4.65321 23.9667 4.65321 23.9238 4.65321 23.8838H4.711L4.83525 23.7037C4.92482 23.6466 5.01151 23.7295 5.0693 23.6437C5.17621 23.4865 5.03751 23.2922 5.2051 23.1036C5.2889 22.9835 5.30335 22.9892 5.49405 22.9835C5.49262 22.9636 5.49262 22.9435 5.49405 22.9235L5.32068 22.8635C5.32068 22.8235 5.32068 22.7835 5.32068 22.7435H5.26289L5.34091 22.2005L5.22533 22.1404C5.22533 22.1004 5.22533 22.0604 5.22533 22.0204H5.20221C5.20221 21.9804 5.20221 21.9404 5.20221 21.9004H5.14153C5.13221 21.8678 5.13301 21.8332 5.14383 21.8011C5.15465 21.769 5.175 21.7408 5.20221 21.7203C5.21871 21.6223 5.20141 21.5216 5.15309 21.4345H5.20221V21.3745H5.61252C5.61108 21.3536 5.61108 21.3326 5.61252 21.3116L5.90147 21.2516L5.99683 21.8546L6.1702 21.9147C6.1702 21.9547 6.1702 21.9947 6.1702 22.0347L6.28578 22.0947C6.28434 22.1147 6.28434 22.1347 6.28578 22.1547H6.46204C6.47937 22.1947 6.49671 22.2348 6.51694 22.2748C6.65274 22.4091 6.75388 22.4548 6.79144 22.6977C6.85501 22.7635 6.81745 22.6977 6.84634 22.8178C6.77121 22.8806 6.78277 22.9235 6.72498 22.9978H6.67586V23.1179L6.49382 23.1493ZM7.2711 21.043H7.09484V21.103H6.91858C6.91714 21.083 6.91714 21.063 6.91858 21.043H6.8579C6.81167 20.8887 6.9677 20.9001 6.98215 20.8629C6.9966 20.8258 6.98215 20.7429 6.98215 20.6829C7.10062 20.6457 7.03127 20.6829 7.10062 20.6229H7.1613C7.1613 20.5629 7.1613 20.5028 7.1613 20.4428H7.33467C7.38379 20.5114 7.33467 20.4428 7.39246 20.5028C7.36067 20.6915 7.31733 20.8629 7.2711 21.0516V21.043ZM7.8779 20.3828C7.87933 20.4028 7.87933 20.4228 7.8779 20.4428C7.77194 20.3818 7.65528 20.341 7.53404 20.3228C7.51671 20.2228 7.50226 20.1227 7.48492 20.0199L7.19597 19.9627V19.7198C7.40691 19.7426 7.44158 19.7684 7.48492 19.9627L7.95013 20.0199C7.99637 20.0884 7.95013 20.0198 8.00503 20.0827C7.99059 20.2914 7.99925 20.3114 7.8779 20.3914V20.3828ZM9.29953 14.9184C9.26775 14.7755 9.29953 14.8041 9.18973 14.7355C9.18973 14.6955 9.18973 14.6555 9.18973 14.6155C9.26328 14.5785 9.34419 14.558 9.42667 14.5555C9.40066 14.6755 9.37755 14.7955 9.35443 14.9184H9.29953ZM8.97591 33.9837H8.91812C8.85455 34.1924 9.05681 34.2695 9.01925 34.4667C8.89809 34.7659 8.70814 35.033 8.46447 35.2469C8.38934 35.2841 8.48469 35.3212 8.40379 35.307C8.40379 35.287 8.40379 35.2669 8.40379 35.2469C8.16974 35.1783 8.2622 35.0812 8.11483 34.9611C8.10703 34.7055 8.17754 34.4534 8.3171 34.2381L8.49625 34.1209C8.51937 33.998 8.54248 33.878 8.56849 33.758C8.59449 33.6379 8.78231 33.5636 8.85744 33.4722H9.0337C9.08282 33.5408 9.0337 33.4722 9.09149 33.5322C9.08235 33.6886 9.04312 33.8419 8.97591 33.9837ZM10.36 29.5939H10.2993C10.23 29.7797 10.3686 29.9712 10.3426 30.0741H10.2849V30.2541H10.2271L10.1606 30.497H10.1028C10.1028 30.5371 10.1028 30.5771 10.1028 30.6171H10.045C10.045 30.6771 10.045 30.7371 10.045 30.7971H9.98724C9.98724 30.8972 9.98724 30.9972 9.98724 31.0829H9.92944C9.90395 31.1208 9.88626 31.1633 9.87739 31.208C9.86853 31.2526 9.86866 31.2986 9.87779 31.3432C9.88692 31.3878 9.90486 31.4302 9.93058 31.4679C9.9563 31.5056 9.9893 31.538 10.0277 31.5631C10.0277 31.6259 10.0277 31.6831 10.0277 31.746L9.43245 32.046C9.35154 31.9089 9.25619 31.9432 9.20418 31.866C9.20418 31.826 9.20418 31.786 9.20418 31.746C9.15134 31.6134 9.07611 31.4907 8.98169 31.383C9.01058 31.183 9.03659 30.9829 9.06259 30.7828L9.18106 30.7228C9.18106 30.6628 9.18106 30.6028 9.18106 30.5428H9.24174C9.24174 30.5028 9.24174 30.4628 9.24174 30.4227H9.29953V30.1798H9.35732C9.35732 30.1398 9.35732 30.0998 9.35732 30.0598H9.41511C9.53069 29.7511 9.29375 29.4596 9.44401 29.2796C9.49313 29.1138 9.46135 29.1424 9.62605 29.0995C9.62605 29.0566 9.62605 29.0166 9.62605 28.9766H9.74452V28.9166C9.79075 28.8909 9.93522 28.7994 10.0335 28.8566V28.9166C10.3224 28.9166 10.3224 28.9966 10.4958 29.0995C10.4861 29.2719 10.4398 29.4404 10.36 29.5939V29.5939ZM11.4349 12.332C11.5544 12.3279 11.6734 12.3484 11.7845 12.392V12.6321H11.6689C11.6675 12.6521 11.6675 12.6721 11.6689 12.6921C11.5945 12.6633 11.5169 12.6431 11.4378 12.6321C11.3886 12.5635 11.4378 12.6321 11.38 12.5721C11.3847 12.4896 11.4033 12.4085 11.4349 12.332V12.332ZM10.7732 26.1644C10.7717 26.1844 10.7717 26.2045 10.7732 26.2244H10.7154C10.7154 26.1644 10.7154 26.1044 10.7154 26.0444L10.8339 25.9844C10.8339 25.8643 10.805 25.7443 10.7876 25.6243C10.8714 25.4842 10.9552 25.3385 11.0361 25.2013H11.2702C11.2913 25.2545 11.3314 25.2982 11.3829 25.3242C11.3459 25.4985 11.2726 25.6632 11.1676 25.8079C11.0626 25.9526 10.9283 26.074 10.7732 26.1644V26.1644ZM65.7865 25.5642C65.7865 25.6243 65.7865 25.6843 65.7865 25.7443H65.7287L65.6622 25.9243C65.3733 25.9243 65.2404 25.9243 65.1421 25.7443H65.0843C65.1555 25.6077 65.2191 25.4675 65.275 25.3242H65.3906C65.3906 25.2842 65.3906 25.2442 65.3906 25.2013H65.5669C65.5654 25.2222 65.5654 25.2432 65.5669 25.2642C65.694 25.3528 65.6796 25.4642 65.7865 25.5642ZM64.726 18.9481C64.8648 18.9338 65.0049 18.9544 65.1335 19.0081C65.1335 19.0281 65.1335 19.0482 65.1335 19.0682C65.1973 19.1292 65.2776 19.1708 65.3646 19.1882C65.3646 19.2282 65.3646 19.2682 65.3646 19.3082H65.4802C65.4802 19.3482 65.4802 19.3882 65.4802 19.4283L65.5958 19.4883L65.5178 20.0284H65.5756C65.5756 20.0684 65.5756 20.1113 65.5756 20.1485L65.6882 20.2113C65.8222 20.4265 65.8754 20.6815 65.8385 20.9315H65.5929C65.5943 20.9116 65.5943 20.8915 65.5929 20.8715C65.3372 20.5924 65.2032 20.2247 65.2201 19.8484C65.0612 19.8026 65.0872 19.8484 65.0497 19.6683C64.8156 19.5969 64.8329 19.3825 64.6567 19.2482C64.6585 19.1445 64.6822 19.0423 64.726 18.9481ZM64.4111 22.9178L64.5238 22.9778C64.5238 23.0378 64.5238 23.0978 64.5238 23.1579L64.3533 23.0378C64.3764 22.9978 64.3966 22.9578 64.4197 22.9178H64.4111ZM64.44 23.758C64.4544 23.8781 64.4689 24.001 64.4862 24.121L64.2493 24.181C64.1568 24.001 64.0672 23.818 63.9748 23.638C64.2493 23.6466 64.2608 23.7209 64.4371 23.758H64.44ZM62.9114 37.2332C62.9345 37.1732 62.9548 37.1132 62.975 37.0532C63.0563 37.0574 63.1359 37.0778 63.209 37.1132C63.209 37.2989 63.209 37.559 63.131 37.6533C63.131 37.6933 63.131 37.7333 63.131 37.7734L62.9577 37.7133C62.9288 37.539 62.8074 37.3618 62.9201 37.2332H62.9114ZM62.0446 32.1204C62.0399 31.8965 62.0682 31.6732 62.1284 31.4573H62.3017V31.5173C62.4838 31.6717 62.3306 31.5945 62.4058 31.8203C62.5453 32.1211 62.5749 32.4605 62.4896 32.7805L62.2006 32.8406L62.1486 32.6605H62.2093C62.2424 32.565 62.2446 32.4617 62.2156 32.3649C62.1866 32.2681 62.1278 32.1826 62.0475 32.1204H62.0446ZM62.3509 15.2185C62.3494 15.1985 62.3494 15.1785 62.3509 15.1585L62.582 15.2185C62.6369 15.4614 62.7178 15.35 62.7409 15.6386C62.5271 15.6386 62.4289 15.6386 62.3364 15.5186L62.163 15.4586C62.1977 15.2557 62.1775 15.2642 62.3537 15.2185H62.3509ZM61.6227 29.2224H61.6805C61.6791 29.2024 61.6791 29.1824 61.6805 29.1624V29.1024H61.7412V29.0424C61.8119 29.0838 61.893 29.1046 61.9752 29.1024C62.0614 29.309 62.1938 29.4937 62.3624 29.6425L62.478 29.7025C62.4953 29.8026 62.5098 29.9026 62.5271 29.9883H62.5849C62.5923 30.064 62.5844 30.1404 62.5616 30.2131C62.5387 30.2857 62.5015 30.3531 62.452 30.4113H62.2786C62.2613 30.3113 62.2468 30.2084 62.2295 30.1084H62.1717C62.0933 30.0284 62.0366 29.9301 62.007 29.8226H61.8914C61.8914 29.7826 61.8914 29.7426 61.8914 29.7025C61.7903 29.6751 61.6931 29.6348 61.6025 29.5825C61.5736 29.4625 61.6025 29.5311 61.5476 29.4625C61.5765 29.3396 61.5678 29.311 61.6256 29.2338L61.6227 29.2224ZM60.8946 26.636H61.1286C61.1286 26.776 61.1286 26.9218 61.1142 27.0561H60.9379C60.9172 26.9879 60.8794 26.926 60.8281 26.876C60.8373 26.7964 60.8608 26.719 60.8974 26.6474L60.8946 26.636ZM53.0582 51.7287H53.1738C53.1752 51.7087 53.1752 51.6886 53.1738 51.6686H53.3501L53.4743 51.4886H53.5321C53.5321 51.3486 53.5321 51.2028 53.5321 51.0685H53.5899C53.5899 51.0285 53.5899 50.9885 53.5899 50.9484C53.5899 50.9084 53.6708 50.897 53.7083 50.8256C53.9742 50.8256 53.9973 50.8999 54.1736 50.9484C54.2313 50.877 54.3209 50.8684 54.3527 50.8256C54.3845 50.7827 54.3527 50.7455 54.3527 50.7055H54.4134C54.4567 50.5855 54.5001 50.4655 54.5405 50.3454H54.6012C54.6012 50.2054 54.6012 50.0596 54.6012 49.9253H54.659C54.659 49.8853 54.659 49.8424 54.659 49.8053L54.7775 49.7424C54.7775 49.7024 54.7775 49.6652 54.7775 49.6224L55.1993 49.2623H55.4796L55.9708 48.6021H56.2049C56.2309 48.7478 56.3118 48.9536 56.1875 49.0822C56.1355 49.2451 56.1702 49.2194 56.0055 49.2623C55.9795 49.3823 55.9419 49.3823 55.9419 49.3823C55.9419 49.5023 55.9419 49.6224 55.9419 49.7424H55.8841C55.8639 49.7853 55.8408 49.8253 55.8206 49.8653H55.705C55.6819 49.9053 55.6617 49.9453 55.6414 49.9853H55.523L55.2802 50.2711H55.2225V50.4512L54.9826 50.6312L54.9219 50.7512C54.8497 50.8113 54.7746 50.7512 54.685 50.8113C54.6648 50.8513 54.6445 50.8941 54.6214 50.9342H54.5636V51.1742L54.1447 51.46C54.1447 51.5 54.1447 51.54 54.1447 51.58H54.084C53.98 51.7801 54.162 51.6429 53.9597 51.8201C53.9597 51.8401 53.9597 51.8601 53.9597 51.8801C53.7141 52.0516 53.5697 51.8573 53.3645 52.1802C53.1449 52.1402 53.012 52.1031 52.9657 51.8801C53.0062 51.8544 53.0178 51.7572 53.0582 51.7287ZM50.4577 54.2551L50.579 54.1951V53.955H50.6368C50.6368 53.915 50.6368 53.875 50.6368 53.835C50.6368 53.795 50.7206 53.7835 50.7582 53.7149C50.9401 53.6992 51.119 53.6588 51.2898 53.5949C51.4446 53.4996 51.5547 53.3475 51.5961 53.1719C51.5961 53.0719 51.5961 52.9719 51.5961 52.8718L51.7146 52.8118C51.7146 52.7718 51.7146 52.7318 51.7146 52.6918L51.8937 52.5718C51.8952 52.5518 51.8952 52.5317 51.8937 52.5117H52.0122L52.1942 52.2688C52.3069 52.1859 52.278 52.2974 52.3734 52.1488H52.7259L52.7779 52.3288C52.7779 52.366 52.6739 52.3288 52.7172 52.3917H52.775C52.7548 52.8433 52.775 52.8375 52.463 52.9919C52.4615 53.0119 52.4615 53.0319 52.463 53.0519H52.174V53.1119L51.9949 53.2319C51.9949 53.2719 51.9949 53.312 51.9949 53.352C51.9949 53.392 51.9169 53.3948 51.8764 53.412C51.8359 53.4291 51.8764 53.492 51.8764 53.532L51.6337 53.7149C51.6337 53.7549 51.6337 53.795 51.6337 53.835C51.5643 53.9493 51.4545 54.075 51.3881 54.1951L50.6224 54.3151V54.3751H50.5675V54.6152L50.449 54.6752C50.3276 54.8238 50.3681 54.9181 50.1456 54.9781C50.0791 55.0439 50.1456 55.0039 50.0271 55.0382C50.0286 55.0182 50.0286 54.9981 50.0271 54.9781H49.9693C50.0213 54.5866 50.2438 54.4809 50.4548 54.2551H50.4577ZM43.6558 64.9009C43.6289 64.9881 43.5858 65.0695 43.5286 65.141C43.4485 65.1375 43.3698 65.1181 43.2975 65.0838C43.309 64.9727 43.3532 64.8674 43.4246 64.7809C43.5633 64.818 43.5488 64.8437 43.6529 64.9009H43.6558ZM32.979 1.32322C32.9805 1.30324 32.9805 1.28319 32.979 1.26321L33.7361 1.32322C33.7361 1.30322 33.7361 1.28321 33.7361 1.26321H34.025C34.1088 1.26321 34.0048 1.20891 34.0857 1.20319C34.0872 1.22317 34.0872 1.24323 34.0857 1.26321L34.2591 1.32322C34.2591 1.38324 34.2591 1.44326 34.2591 1.50328C34.1117 1.59759 34.1666 1.66904 34.077 1.74334C33.9875 1.81765 33.9904 1.71762 33.895 1.86338H33.6061C33.5887 1.82336 33.5714 1.78335 33.5512 1.74334H33.4934V1.80336L32.9704 1.68332C32.9704 1.56329 32.9386 1.44326 32.9241 1.32322H32.979ZM32.6092 1.86338H32.7854C32.7854 1.90339 32.7854 1.94626 32.7854 1.98627H32.6092C32.6063 1.94626 32.6092 1.90339 32.6092 1.86338ZM26.7868 2.94653H26.8446V2.88652H27.018C27.018 2.94653 27.018 3.00655 27.018 3.06657H26.9602C26.9616 3.08655 26.9616 3.1066 26.9602 3.12658H26.7868C26.781 3.06657 26.7839 3.00655 26.7868 2.94653ZM22.5392 4.14972H22.597V4.08971C22.7272 4.13747 22.8659 4.15791 23.0045 4.14972C23.0045 4.02969 23.0045 3.90966 23.0045 3.78962H23.0622C23.1403 3.51812 23.617 3.29806 23.9002 3.24947C23.9002 3.22661 23.9002 3.20946 23.9002 3.1866L24.2498 3.24947L24.3018 3.36951C24.4232 3.41238 24.4723 3.3295 24.5388 3.30949C24.585 3.37522 24.5388 3.30949 24.5937 3.36951C24.5475 3.62958 24.4983 3.88965 24.4492 4.14972C23.854 4.14972 24.2325 4.3212 24.0245 4.63272H23.984L23.8598 4.81277C23.7557 4.89565 23.8251 4.76418 23.7413 4.87278C23.5369 4.85915 23.3388 4.79742 23.1634 4.69273L23.1171 4.5727H22.6375C22.6065 4.52624 22.5685 4.48479 22.5248 4.44981C22.5392 4.34978 22.5392 4.24975 22.5392 4.14972ZM21.0945 5.35292H21.1523C21.1349 5.31291 21.1176 5.27289 21.0974 5.23288H21.1581C21.2245 5.16429 21.1581 5.20716 21.2765 5.17287C21.3228 5.24146 21.2765 5.17287 21.3314 5.23288L21.2621 5.59298H21.028V5.53297C20.9414 5.4558 21.0251 5.47009 21.0945 5.35292ZM17.7022 6.97622C17.8611 7.02481 17.8351 6.99051 17.8727 7.15628C17.7542 7.19343 17.8207 7.15627 17.7513 7.21915H17.6935L17.7022 6.97622ZM16.5869 7.14484H16.6447C16.6447 7.20772 16.6447 7.26773 16.6447 7.32775H16.584L16.5869 7.14484ZM16.4886 8.228L16.5522 8.10797H16.7285C16.7285 8.14798 16.7285 8.18799 16.7285 8.228C16.61 8.26515 16.6793 8.228 16.61 8.28802H16.4337C16.4713 8.23372 16.4222 8.28802 16.4886 8.23943V8.228ZM15.8529 9.67412C16.1939 9.51121 16.0841 9.38832 16.2835 9.13111C16.3239 9.07681 16.4048 9.08252 16.4626 9.01108H16.7516C16.7516 9.03108 16.7516 9.05109 16.7516 9.07109H16.8094V9.1454H16.7602C16.6729 9.39753 16.5252 9.62501 16.3297 9.80844C16.3283 9.82842 16.3283 9.84848 16.3297 9.86846L15.9772 9.92847C15.9772 9.94848 15.9772 9.96849 15.9772 9.98849H15.8616C15.9078 9.79415 15.8934 9.89418 15.8529 9.68555V9.67412ZM15.7258 9.95991H15.7836C15.8298 10.0657 15.746 10.1114 15.72 10.14C15.6796 10.26 15.72 10.1914 15.6564 10.26C15.6102 10.1914 15.6564 10.26 15.6015 10.2C15.642 10.0799 15.668 10.0942 15.7258 9.98563V9.95991ZM16.8816 49.7167C16.7256 49.671 16.7516 49.7024 16.714 49.5366H16.5955C16.5955 49.4566 16.5955 49.3766 16.5955 49.2966C16.714 49.3623 16.6967 49.3966 16.8845 49.4166C16.9018 49.5423 16.8989 49.6424 16.8932 49.7424L16.8816 49.7167ZM17.3613 51.1028V51.0428L17.1879 50.9799L17.2052 50.5598L17.3815 50.4997C17.4913 50.6998 17.6386 50.7312 17.6531 51.0428L17.3613 51.1028ZM17.9392 51.3428H17.8814C17.8409 51.4629 17.8814 51.3943 17.8178 51.4629C17.7478 51.3506 17.6933 51.2295 17.656 51.1028H17.89C17.9363 51.1685 17.89 51.1028 17.9449 51.1628C17.9507 51.2485 17.9507 51.3085 17.9478 51.3686L17.9392 51.3428ZM18.1501 51.943H18.0345C18.0345 51.903 18.0345 51.863 18.0345 51.823H18.153C18.1616 51.8887 18.1616 51.9287 18.1588 51.9687L18.1501 51.943ZM19.6757 53.7292H19.618V53.7892L19.4446 53.7292V53.6692H19.2105L18.9216 53.2462C18.9216 53.2062 18.9216 53.1662 18.9216 53.1262L18.7482 53.0062C18.7497 52.9862 18.7497 52.9661 18.7482 52.9461H18.6326C18.6124 52.9061 18.5951 52.8661 18.5777 52.8261H18.4939L18.4419 52.7061H18.3841C18.3841 52.6661 18.3841 52.6261 18.3841 52.586H18.3263L18.3957 52.2831C18.5715 52.3124 18.7329 52.3977 18.8551 52.526L18.9071 52.6461C19.0594 52.6962 19.2148 52.7363 19.3724 52.7661C19.3866 53.0375 19.5019 53.294 19.696 53.4863L19.6757 53.7292ZM19.8231 54.5094C19.8231 54.4094 19.8231 54.3094 19.8231 54.2094L20.1699 54.3294C20.1699 54.4494 20.1987 54.5695 20.2161 54.6895C19.9618 54.6609 19.9791 54.5866 19.8231 54.4951V54.5094ZM40.197 66.7214H39.9659V66.6614H39.9081C39.9572 66.4899 40.0179 66.4871 40.093 66.3584L40.3819 66.4213C40.3357 66.5899 40.275 66.5899 40.197 66.7071V66.7214ZM41.3153 66.5385C41.0639 66.5385 41.1188 66.5042 40.9685 66.4213V66.1784C41.0147 66.0984 41.4568 65.9869 41.5638 65.8926C41.7747 65.9412 41.8151 66.0441 41.9625 66.1327C41.8094 66.3699 41.506 66.3184 41.321 66.5242L41.3153 66.5385ZM43.7078 66.6614H43.6471V66.7214H43.3581C43.3581 66.6614 43.3581 66.6014 43.3581 66.5385H43.4159C43.4145 66.5195 43.4145 66.5004 43.4159 66.4813H43.7049C43.7107 66.5242 43.7107 66.5899 43.7078 66.6471V66.6614ZM46.1205 66.1784C45.8326 66.2132 45.5415 66.2132 45.2537 66.1784C45.2537 66.2384 45.2537 66.2984 45.2537 66.3584C45.129 66.4057 45.0099 66.4661 44.8982 66.5385C44.8058 66.427 44.6469 66.4127 44.5544 66.2984C44.4908 66.2327 44.5313 66.2984 44.4995 66.1784C44.575 66.1233 44.6612 66.0842 44.7527 66.0635C44.8442 66.0429 44.939 66.0411 45.0312 66.0584C45.0326 66.0783 45.0326 66.0984 45.0312 66.1184L45.2623 66.1784C45.2623 66.1384 45.2623 66.0984 45.2623 66.0584L45.4386 65.9983L45.5628 65.8183H45.6784C45.6798 65.7983 45.6798 65.7783 45.6784 65.7583C45.7535 65.7011 45.794 65.7125 45.8576 65.6382C46.161 65.6382 46.1089 65.7411 46.2592 65.8783C46.2332 66.0584 46.187 66.0412 46.1205 66.1641V66.1784ZM47.6519 65.8183C47.4752 65.8691 47.2892 65.8792 47.1079 65.848C46.9266 65.8168 46.7549 65.7451 46.6059 65.6382C46.6106 65.5349 46.6341 65.4332 46.6753 65.3382C46.8082 65.3982 47.1 65.5496 47.2532 65.3982C47.5421 65.3839 47.7155 65.3239 47.7704 65.5782H47.8311L47.6519 65.8183ZM54.0984 65.3382H53.8644C53.863 65.3172 53.863 65.2962 53.8644 65.2753H53.8037C53.7546 65.0752 53.9193 65.1495 53.9857 65.0981C54.0522 65.0467 54.11 64.9352 54.1707 64.8552H54.2285C54.2285 64.8152 54.2285 64.7751 54.2285 64.7351C54.5174 64.6694 54.4972 64.6122 54.8064 64.6751C54.7168 65.0124 54.2863 65.0266 54.0984 65.3239V65.3382ZM57.2769 63.0518H57.1584C57.1599 63.0718 57.1599 63.0918 57.1584 63.1118C57.0724 63.1634 56.992 63.2238 56.9186 63.2919H56.8608C56.8608 63.3319 56.8608 63.3719 56.8608 63.4119L56.5718 63.4719C56.6528 63.1861 57.0313 63.0289 57.2913 62.9318C57.2769 62.9575 57.2769 62.9975 57.2769 63.0375V63.0518ZM58.7737 61.9687C58.4067 62.0715 58.5078 62.3573 58.2882 62.5088H58.1726C58.1712 62.5288 58.1712 62.5488 58.1726 62.5688C58.0744 62.5917 57.9781 62.6117 57.8837 62.6288C57.8852 62.6498 57.8852 62.6708 57.8837 62.6917C57.7965 62.7417 57.716 62.8022 57.6439 62.8718H57.4676C57.469 62.8518 57.469 62.8317 57.4676 62.8117C57.3982 62.7374 57.4214 62.8117 57.4676 62.6917H57.5254C57.5485 62.5688 57.5716 62.4488 57.5976 62.3288L57.7161 62.2687C57.7161 62.2287 57.7161 62.1887 57.7161 62.1487H57.7739L58.0195 61.8629L58.5425 61.9829L58.6639 61.8029H58.7823L58.7737 61.9687ZM61.4464 60.7655C61.2182 60.8312 61.2586 60.9455 61.0304 61.0055C61.0304 61.0455 61.0304 61.0856 61.0304 61.1256L60.9119 61.1856C60.7524 61.3154 60.6266 61.481 60.5449 61.6686C60.3831 61.7086 60.4091 61.7486 60.256 61.7886C60.256 61.7486 60.256 61.7086 60.256 61.6686C60.256 61.6286 60.5651 61.4971 60.6143 61.4256C60.6143 61.3885 60.6143 61.3456 60.6143 61.3056L60.7327 61.2456C60.7327 61.1856 60.7327 61.1256 60.7327 61.0684L60.8512 61.0055C60.8512 60.9655 60.8512 60.9255 60.8512 60.8855H60.909C60.9717 60.8181 61.0147 60.7351 61.0332 60.6454C61.2471 60.5883 61.1633 60.5368 61.4464 60.5254V60.7655ZM65.4484 56.6758H65.3906C65.3906 56.7358 65.3906 56.7958 65.3906 56.8558H65.3299C65.3299 56.8958 65.3299 56.9358 65.3299 56.9758L65.2115 57.0359C65.0757 57.2445 65.1941 57.3216 64.9052 57.396V57.4445L64.6162 57.2616C64.56 57.3506 64.5162 57.4468 64.4862 57.5474C64.0672 57.6617 64.3071 57.8332 64.1741 58.1504H64.1163C64.1163 58.1905 64.1163 58.2305 64.1163 58.2705C64.1163 58.3105 64.0354 58.3191 63.995 58.3905C63.8424 58.4311 63.6849 58.4513 63.5269 58.4505C63.5471 58.1876 63.5413 58.179 63.6569 58.0304H63.7176C63.7378 57.9504 63.7609 57.8704 63.7841 57.7904L63.9632 57.6703C63.9632 57.6303 63.9632 57.5903 63.9632 57.5474H64.0239C64.1093 57.4695 64.173 57.371 64.2088 57.2616C64.4429 57.193 64.2839 57.2445 64.3909 57.0816H64.4486C64.4486 57.0416 64.4486 57.0016 64.4486 56.9615L64.6278 56.8415V56.7815H64.7463L65.1797 56.1213H65.2953C65.2953 56.0784 65.2953 56.0384 65.2953 55.9984C65.4108 55.9641 65.3444 55.9984 65.4137 55.9384C65.4941 55.943 65.5727 55.9634 65.6449 55.9984C65.5454 56.1291 65.4619 56.2711 65.3964 56.4214C65.3935 56.5014 65.4946 56.5186 65.4484 56.6615V56.6758ZM66.6042 48.9765L66.5262 49.4566L66.4077 49.5166C66.4077 49.5566 66.4077 49.5966 66.4077 49.6367H66.3499C66.3499 49.6795 66.3499 49.7167 66.3499 49.7567H66.2921C66.2921 49.7996 66.2921 49.8396 66.2921 49.8796H66.2344C66.2344 49.9196 66.2344 49.9596 66.2344 49.9996H66.1766C66.1766 50.0396 66.1766 50.0796 66.1766 50.1196L65.9974 50.2397C65.9974 50.3597 65.9974 50.4797 65.9974 50.5998H65.9367C65.9367 50.6398 65.9367 50.6798 65.9367 50.7198L65.7576 50.8398C65.7576 50.8799 65.7576 50.9227 65.7576 50.9627L65.6391 51.0199C65.6406 51.0408 65.6406 51.0618 65.6391 51.0828L65.4629 51.1428C65.4629 51.1828 65.4629 51.2228 65.4629 51.2628L65.3444 51.3228C65.3444 51.4229 65.3444 51.5229 65.3444 51.6229H65.2866C65.2866 51.6629 65.2866 51.7029 65.2866 51.743L65.1681 51.803L65.0988 52.043H65.041C65.0208 52.1231 64.9976 52.2031 64.9745 52.2831H64.9167C64.9167 52.3431 64.9167 52.406 64.9167 52.466H64.8561C64.8561 52.506 64.8561 52.546 64.8561 52.586H64.726C64.726 52.6461 64.726 52.7061 64.726 52.7661L64.6047 52.8261V52.8718L64.4833 52.9319C64.4833 52.9719 64.4833 53.0119 64.4833 53.0519H64.4255C64.3367 53.1333 64.2718 53.237 64.2377 53.352C64.0268 53.412 63.9863 53.5549 63.8187 53.6549C63.7754 53.8264 63.6685 53.9664 63.7465 54.075C63.7465 54.1751 63.7465 54.2751 63.7465 54.3608L63.2697 54.6609L63.2033 54.841H63.1455C63.1455 54.8838 63.1455 54.9238 63.1455 54.9639L62.7843 55.2496H62.6687C62.6701 55.2696 62.6701 55.2897 62.6687 55.3097H62.5531L62.4896 55.4297H62.374C62.3509 55.4697 62.3306 55.5097 62.3104 55.5497H62.1919V55.6097L61.9521 55.7898C61.9521 55.9698 61.9781 56.1528 61.9897 56.3328L61.7498 56.5129C61.7498 56.5529 61.7498 56.5929 61.7498 56.6329H61.6892C61.6892 56.6729 61.6892 56.7129 61.6892 56.7529H61.6314V56.993H61.5736V57.173H61.5158L61.3944 57.3531L60.9783 57.476C60.9783 57.5131 60.9783 57.556 60.9783 57.596H60.8599C60.8396 57.656 60.8194 57.716 60.7963 57.7761L60.6172 57.8961C60.6172 57.9361 60.6172 57.9761 60.6172 58.0161L60.3282 58.2562L60.2675 58.3762L59.915 58.4362C59.8919 58.4763 59.8717 58.5163 59.8514 58.5563H59.7359C59.6925 58.6163 59.6521 58.6763 59.6116 58.7392H59.4931L59.4325 58.8592L59.1926 59.0393C59.1695 59.1193 59.1464 59.1993 59.1262 59.2793L58.8835 59.4594L58.8228 59.5794H58.7043C58.6841 59.6194 58.6639 59.6594 58.6407 59.6995H58.5252C58.5266 59.7194 58.5266 59.7395 58.5252 59.7595C58.4876 59.7795 58.4471 59.8023 58.4067 59.8195C58.3662 59.8366 58.4067 59.8995 58.4067 59.9424C58.3056 60.0195 58.2044 60.0996 58.1177 60.1824C58.0946 60.2225 58.0744 60.2625 58.0542 60.3025H57.9357L57.7537 60.5425H57.6352L57.3318 60.9026H57.2133L57.1526 61.0255H56.9764C56.7077 61.1341 56.4678 61.197 56.3754 61.5057C56.1882 61.5852 56.0235 61.7088 55.8957 61.8658C55.8726 61.9058 55.8524 61.9458 55.8321 61.9858L55.3005 62.1659C55.1589 62.3259 55.0115 62.4859 54.8728 62.6488H54.7572L54.633 62.8289L54.3989 62.8889L54.214 63.129H54.0984C54.0753 63.169 54.0551 63.209 54.0349 63.249L53.7979 63.309C53.7777 63.349 53.7575 63.389 53.7344 63.4291L53.3818 63.4891V63.5491L53.1449 63.6091C53.1463 63.6291 53.1463 63.6491 53.1449 63.6691H53.0293L52.9657 63.7892L52.6768 63.8492L52.2058 64.3036L51.7348 64.3636V64.4236H51.6163C51.5961 64.4636 51.5759 64.5036 51.5528 64.5437L51.3187 64.6037C51.3173 64.6237 51.3173 64.6437 51.3187 64.6637H50.7928L50.6686 64.8437H50.553L50.4894 64.9638C50.3172 65.0099 50.1357 65.0099 49.9636 64.9638C49.965 64.9838 49.965 65.0038 49.9636 65.0238L49.6746 65.0867C49.6313 65.1438 49.5908 65.2067 49.5503 65.2639H49.4117L49.351 65.3867L48.7037 65.4468L48.1721 65.6268C48.1143 65.5468 48.0565 65.5382 48.0045 65.4468H47.9669V65.3867C48.045 65.3468 48.1086 65.2839 48.1489 65.2067H48.383C48.3844 65.2257 48.3844 65.2448 48.383 65.2639C48.6286 65.2324 48.6719 65.121 48.8598 65.0238V64.7837H48.802C48.8005 64.7637 48.8005 64.7437 48.802 64.7237H48.6257C48.6243 64.7037 48.6243 64.6837 48.6257 64.6637C48.5172 64.6646 48.4134 64.7077 48.3368 64.7837C48.3382 64.8037 48.3382 64.8238 48.3368 64.8437C48.2212 64.9266 48.253 64.8152 48.1576 64.9638L47.8109 64.9038V64.8437C47.779 64.8321 47.744 64.8317 47.7119 64.8427C47.6798 64.8536 47.6525 64.8752 47.6346 64.9038C47.5686 64.936 47.4942 64.9475 47.4214 64.9368C47.3486 64.9261 47.2808 64.8936 47.2272 64.8437C46.8487 64.8437 46.9614 64.8666 46.8111 65.0867H46.7504L46.6869 65.2639C46.5543 65.2479 46.4322 65.1849 46.343 65.0867L45.9905 65.1438C45.989 65.1648 45.989 65.1858 45.9905 65.2067C45.8027 65.2696 45.7015 65.1181 45.5831 65.1438V65.2067H45.4097C45.4082 65.2257 45.4082 65.2448 45.4097 65.2639H45.2912V65.3267H45.115C45.1164 65.3467 45.1164 65.3668 45.115 65.3867H44.9416C44.9402 65.4067 44.9402 65.4268 44.9416 65.4468H44.7884V65.5068L44.2568 65.6268L44.1354 65.8069L43.78 65.8669V65.9269C43.6025 65.9386 43.4243 65.9182 43.2541 65.8669V65.6268C43.4708 65.5668 43.5431 65.4325 43.7887 65.3867C43.7926 65.171 43.861 64.9612 43.9852 64.7837L44.0516 64.6037H44.5775C44.5775 64.6237 44.5775 64.6437 44.5775 64.6637H44.6931L44.8058 64.8437L45.4415 65.0238C45.4415 64.9838 45.4415 64.9438 45.4415 64.9038L45.7304 64.8437C45.7319 64.8238 45.7319 64.8037 45.7304 64.7837L46.0194 64.8437L46.0801 64.7237H46.2563C46.2549 64.7037 46.2549 64.6837 46.2563 64.6637H46.4297C46.4311 64.6437 46.4311 64.6237 46.4297 64.6037H46.8111V64.5437H46.9874C46.9859 64.5237 46.9859 64.5036 46.9874 64.4836H47.1029C47.1015 64.4637 47.1015 64.4436 47.1029 64.4236H47.6288C47.6274 64.4036 47.6274 64.3836 47.6288 64.3636H47.7444C47.7646 64.3236 47.7849 64.2836 47.808 64.2436H47.9236C47.9236 64.2236 47.9236 64.2036 47.9236 64.1836H48.0391C48.0623 64.1435 48.0825 64.1035 48.1027 64.0635H48.2183C48.2197 64.0435 48.2197 64.0235 48.2183 64.0035L48.7962 63.9435C48.8366 63.8806 48.8771 63.8206 48.9204 63.7606H49.036L49.1025 63.5805C49.2592 63.4603 49.4423 63.378 49.637 63.3405C49.632 63.2322 49.5948 63.1278 49.5301 63.0404C49.4517 63.0383 49.3737 63.0534 49.3018 63.0845C49.2299 63.1156 49.1658 63.162 49.114 63.2204C49.1155 63.2404 49.1155 63.2605 49.114 63.2804H48.9407C48.9407 63.3005 48.9407 63.3205 48.9407 63.3405C48.6373 63.3405 48.7124 63.3176 48.5361 63.2204C48.5498 63.115 48.5939 63.0158 48.6633 62.9346L49.3625 62.9947C49.3625 62.9546 49.3625 62.9146 49.3625 62.8746C49.4781 62.8518 49.4839 62.8146 49.4839 62.8146H49.8335C49.8653 62.8146 49.8335 62.7346 50.0127 62.6946C50.0127 62.6546 50.0127 62.6145 50.0127 62.5717C50.1266 62.5374 50.2483 62.5374 50.3623 62.5717C50.3113 62.7105 50.227 62.835 50.1167 62.9346H50.056C50.0329 63.0347 50.0098 63.1347 49.9896 63.2204H49.9289C49.9748 63.2738 50.0334 63.315 50.0994 63.3405V63.4005L50.8102 63.1004C50.8087 63.0804 50.8087 63.0604 50.8102 63.0404H50.9835C50.985 63.0204 50.985 63.0003 50.9835 62.9804L51.2725 62.9203L51.5788 62.5574H51.6944C51.6944 62.5374 51.6944 62.5174 51.6944 62.4974H51.8706L51.992 62.3173H52.0498C52.0498 62.2773 52.0498 62.2373 52.0498 62.1973L52.2289 62.0773C52.2275 62.0573 52.2275 62.0372 52.2289 62.0172C52.4456 61.9086 52.7519 62.0715 52.9311 61.9572L53.2374 61.5971L53.5263 61.5371L53.769 61.2342H54.058C54.058 61.2142 54.058 61.1942 54.058 61.1741L54.2949 61.1141C54.4047 60.6711 54.8179 60.6083 55.026 60.2739L55.5547 60.1539C55.5707 60.0569 55.6063 59.9641 55.6595 59.8811C55.7126 59.7981 55.7821 59.7266 55.8639 59.6709C55.8639 59.6509 55.8639 59.6309 55.8639 59.6109H55.9795L56.0431 59.4908H56.1009C56.1009 59.4508 56.1009 59.4108 56.1009 59.3708L56.2193 59.3108C56.2179 59.2908 56.2179 59.2707 56.2193 59.2508H56.3349C56.3349 59.2308 56.3349 59.2107 56.3349 59.1907L56.5141 59.0707C56.5141 59.0307 56.5141 58.9907 56.5141 58.9507H56.5747C56.5747 58.9107 56.5747 58.8706 56.5747 58.8278C56.6354 58.7878 56.6961 58.7506 56.7539 58.7077C56.7539 58.6877 56.7539 58.6706 56.7539 58.6477L57.2133 58.5877C57.2133 58.5677 57.2133 58.5477 57.2133 58.5277H57.2711C57.2711 58.5077 57.2711 58.4877 57.2711 58.4677H57.3289C57.3289 58.4277 57.3289 58.3877 57.3289 58.3476H57.3896C57.3896 58.2876 57.3896 58.2276 57.3896 58.1676H57.4474C57.4474 58.1276 57.4474 58.0876 57.4474 58.0476L58.0426 57.8075C58.0743 57.5972 58.1407 57.3935 58.2391 57.2045C58.4009 56.9758 58.6003 57.113 58.7737 56.9644L58.9499 56.9044C59.0366 56.7986 59.0193 56.5614 59.0828 56.4243C59.1464 56.2871 59.2678 56.1813 59.3313 56.0613H59.3891C59.3891 56.0413 59.3891 56.0213 59.3891 56.0013H59.6232L59.6838 55.8812H59.8601C59.8601 55.8612 59.8601 55.8412 59.8601 55.8212L60.0942 55.7612C60.2213 55.2611 60.5825 55.041 60.779 54.618L61.1315 54.558C61.1546 54.438 61.1777 54.318 61.2037 54.1979H61.143C61.1445 54.1779 61.1445 54.1579 61.143 54.1379H61.2008C61.2602 54.0679 61.3036 53.986 61.328 53.8978C61.4711 53.8594 61.6042 53.791 61.7184 53.6973C61.8325 53.6037 61.925 53.4869 61.9897 53.3548L62.059 52.9947C62.1399 52.8947 62.3971 52.9547 62.4751 52.8147C62.4751 52.6946 62.4751 52.5746 62.4896 52.4546C62.5414 52.3175 62.622 52.1929 62.7261 52.089C62.8302 51.985 62.9554 51.9041 63.0935 51.8516V51.7915H63.2813C63.3246 52.1088 63.2813 52.3403 63.3102 52.6346H63.5991L63.6598 52.5146H63.7783C63.7985 52.4546 63.8216 52.3946 63.8418 52.3317L64.0817 52.1516C64.0817 52.1116 64.0817 52.0716 64.0817 52.0316L64.2608 51.9116C64.2608 51.8716 64.2608 51.8315 64.2608 51.7915L64.3822 51.7315C64.4024 51.6515 64.4255 51.5715 64.4486 51.4915H64.5064C64.5064 51.2514 64.4833 51.0085 64.4746 50.7684H64.5324C64.5556 50.6884 64.5758 50.6084 64.5989 50.5283L64.778 50.4083C64.778 50.3683 64.778 50.3283 64.778 50.2883C64.9832 49.9425 65.067 49.9453 64.9832 49.4452C64.8647 49.4823 64.9312 49.4452 64.8618 49.5052H64.7463C64.6446 49.6776 64.5604 49.8594 64.4949 50.0482H64.4342C64.4342 50.1082 64.4342 50.1682 64.4342 50.2282L64.073 50.514C64.0499 50.6541 64.0239 50.7998 64.0008 50.937H63.9401L63.8101 51.2971H63.7523L63.5702 51.5372C63.2524 51.52 63.3824 51.4943 63.2264 51.3571C63.2639 50.9542 63.3651 51.037 63.5356 50.8141H63.5962C63.5962 50.7341 63.5962 50.6541 63.5962 50.5741H63.6569V50.514H63.5991C63.5991 50.494 63.5991 50.474 63.5991 50.454H63.6569L63.7869 50.0939H63.8447C63.8447 50.0539 63.8447 50.0139 63.8447 49.9739H63.9025L63.9199 49.4909H63.9777C63.9777 49.4509 63.9777 49.4109 63.9777 49.3709H64.0383L64.1019 49.1908H64.2204C64.2585 49.0825 64.3219 48.9846 64.4053 48.905H64.4631C64.4631 48.865 64.4631 48.825 64.4631 48.785H64.5209C64.5209 48.725 64.5209 48.665 64.5209 48.6049L64.6393 48.5449C64.6393 48.5049 64.6393 48.462 64.6393 48.422H64.6971C64.6971 48.362 64.6971 48.302 64.6971 48.242L64.8763 48.1219C64.8994 48.0419 64.9225 47.9619 64.9427 47.8819H65.0034C65.0034 47.7418 65.0034 47.5961 65.0034 47.4618L65.2433 47.2817L65.4426 46.6187L65.6767 46.5587V46.6187H65.7345C65.6825 46.9588 65.6333 47.3017 65.5813 47.6418H65.5929L65.5235 47.9419H65.4657C65.4657 47.9819 65.4657 48.0219 65.4657 48.0619H65.408C65.382 48.222 65.3559 48.382 65.3328 48.5449L65.2144 48.6049C65.2144 48.645 65.2144 48.685 65.2144 48.725L65.0959 48.785C65.0959 48.825 65.0959 48.865 65.0959 48.905H65.015C65.015 49.0451 65.015 49.1908 65.0005 49.3251H65.0583V49.3852H65.1161C65.1147 49.3652 65.1147 49.3451 65.1161 49.3251C65.434 49.2423 65.538 48.965 65.6651 48.665H65.7229C65.7229 48.5449 65.7229 48.422 65.7229 48.302L65.8414 48.242C65.8414 48.202 65.8414 48.162 65.8414 48.1219H65.8992L65.9165 47.6418H65.9743C65.9743 47.5818 65.9743 47.5218 65.9743 47.4618H66.035C66.035 47.4017 66.035 47.3417 66.035 47.2817H66.0928C66.0928 47.2417 66.0928 47.1988 66.0928 47.1617L66.2112 47.0988L66.4106 46.4386H66.4684C66.4684 46.3986 66.4684 46.3586 66.4684 46.3186H66.5262C66.5927 46.1385 66.6562 45.9585 66.7227 45.7756H66.7805C66.7805 45.7356 66.7805 45.6956 66.7805 45.6555H66.8412L66.7891 45.4155L66.6158 45.3555C66.5825 45.401 66.5425 45.4415 66.4973 45.4755C66.4973 45.5755 66.4973 45.6756 66.4973 45.7613C66.451 45.7951 66.4101 45.8356 66.3759 45.8813L66.087 46.0042C66.0668 45.9504 66.0265 45.9064 65.9743 45.8813C66.0003 45.7213 66.0263 45.5612 66.0494 45.4012H65.9916C65.9916 45.2812 65.9627 45.1611 65.9454 45.0411H66.0061C66.0668 44.8439 66.0408 44.7067 66.139 44.5581C66.1997 44.5209 66.2575 44.4781 66.3182 44.4381C66.3788 44.3981 66.3615 44.278 66.3846 44.198H66.4424C66.4424 44.118 66.4424 44.038 66.4424 43.9579C66.4895 43.9251 66.5305 43.8845 66.5638 43.8379H66.74C66.7747 43.9779 66.8094 44.1237 66.8412 44.258H66.9596C66.9596 44.278 66.9596 44.298 66.9596 44.318L67.2486 44.258C67.2471 44.238 67.2471 44.218 67.2486 44.198C67.5115 43.9951 67.1243 43.9122 67.2717 43.5378H67.3295C67.3295 43.4978 67.3295 43.4578 67.3295 43.4178L67.4508 43.3578C67.4508 43.3149 67.4508 43.2777 67.4508 43.2377H67.5086C67.5086 43.1949 67.5086 43.1549 67.5086 43.1148H67.5664V42.8748H67.6242C67.6242 42.8148 67.6242 42.7547 67.6242 42.6947H67.6849C67.6849 42.6547 67.6849 42.6147 67.6849 42.5747H67.7427V42.3946H67.8005C67.8236 42.2346 67.8496 42.0746 67.8756 41.9145C67.9016 41.7545 68.1645 41.6001 68.0721 41.3115H68.0143C68.0143 41.2715 68.0143 41.2315 68.0143 41.1915L67.8987 41.1314C67.8987 41.0914 67.8987 41.0514 67.8987 41.0114H67.8409C67.6964 40.5541 68.1963 39.8682 67.9478 39.5824V39.3424L68.3697 39.0394C68.3928 38.6222 68.2455 38.4393 67.9247 38.3792C67.9247 38.2392 67.9247 38.0934 67.9392 37.9563L68.0576 37.8962C68.0894 37.7962 68.0056 37.7876 68.0056 37.7762C68.0056 37.5762 68.0201 37.3761 68.0259 37.176H67.9681V36.8903H67.9103C67.9363 36.6873 67.9623 36.4873 67.9912 36.2872H67.9305C67.8872 36.0729 68.0287 35.8843 68.0085 35.7471H67.9507V35.5042H67.8929C67.8929 35.3841 67.8929 35.2641 67.8929 35.1441L67.7774 35.084C67.7774 35.044 67.7774 35.004 67.7774 34.964H67.7196C67.6993 34.8268 67.8496 34.7411 67.9045 34.6782H67.9623C67.9883 34.4782 68.0172 34.2781 68.0432 34.0752H68.101C68.101 33.9552 68.0692 33.8351 68.0547 33.7151H67.997C68.0259 33.4293 68.0547 33.1435 68.0865 32.8577H68.0259C68.0259 32.7977 68.0259 32.7377 68.0259 32.6777H67.9681V32.4976H67.9074C67.9058 32.2948 67.9331 32.0928 67.9883 31.8974H67.9305C67.9305 31.8146 68.023 31.7488 67.9998 31.5945C67.9854 31.5116 67.9276 31.6202 67.9421 31.5345C67.9698 31.5143 67.9907 31.4863 68.002 31.4542C68.0134 31.4221 68.0146 31.3873 68.0056 31.3544H67.9478C67.9478 31.2944 67.9478 31.2344 67.9478 31.1744H67.89V30.9343H67.8323V30.6942H67.7745C67.7976 30.4913 67.8294 30.4085 67.9623 30.3313V30.2713C68.0808 30.2198 68.153 30.5571 68.1848 30.6342H68.2426C68.2426 30.6742 68.2426 30.7143 68.2426 30.7543H68.3004C68.3004 31.0143 68.3206 31.2744 68.3321 31.5345C68.3321 31.5545 68.2541 31.5516 68.2686 31.6574H68.3264C68.387 31.966 68.205 32.1032 68.3032 32.3176H68.361C68.361 32.3576 68.361 32.3976 68.361 32.4376L68.5893 32.6176C68.5893 32.7777 68.6153 32.9377 68.6298 33.1006H68.6875C68.6875 33.1406 68.6875 33.1807 68.6875 33.2207L68.8002 33.2807C68.8002 33.3207 68.8002 33.3607 68.8002 33.4007L68.9158 33.4607C68.9158 33.5007 68.9158 33.5408 68.9158 33.5808L69.0314 33.6408C69.0314 33.7008 69.0314 33.7608 69.0314 33.8208H69.0892C69.0892 33.8608 69.0892 33.9009 69.0892 33.9409H69.1499V34.1809H69.2077C69.2077 34.3238 69.2077 34.4667 69.1932 34.6039H69.251C69.251 34.7239 69.2828 34.844 69.2972 34.964H69.355C69.3565 34.984 69.3565 35.004 69.355 35.024H69.2972C69.2972 35.124 69.2972 35.2241 69.2972 35.3241H69.3492C69.3492 35.4241 69.3492 35.527 69.3492 35.627H69.2915V35.9271H69.2308C69.2308 36.1672 69.2134 36.4073 69.2077 36.6473H69.147V36.9503C69.1845 36.9674 69.2221 36.9903 69.2597 37.0103C69.2337 37.1903 69.2105 37.3704 69.1845 37.5504H69.2423C69.3616 37.7937 69.3932 38.07 69.3319 38.3335H69.2712C69.2712 38.3735 69.2712 38.4135 69.2712 38.4535L69.1528 38.5136C69.1528 38.5536 69.1528 38.5936 69.1528 38.6336H69.0603C69.0314 38.8737 69.0054 39.1137 68.9765 39.3567H69.0343C69.0343 39.3938 69.0343 39.4367 69.0343 39.4767H69.0921C69.104 39.5574 69.0924 39.6398 69.0586 39.7142C69.0248 39.7886 68.9703 39.852 68.9014 39.8968C68.9245 40.134 68.9678 40.1083 69.0632 40.2569H69.1239V40.497H69.1817L69.1643 40.98L69.0458 41.04C69.0458 41.16 69.0458 41.28 69.0314 41.4001H68.9736L68.9043 41.7602H68.8436C68.8436 41.8002 68.8436 41.8402 68.8436 41.8831H68.7713C68.7713 41.9602 68.7713 42.0431 68.7713 42.1231H68.7107C68.7107 42.1631 68.7107 42.2032 68.7107 42.2432H68.6529L68.4795 43.8065H68.4217V43.9265H68.361C68.361 44.0065 68.361 44.0865 68.361 44.1666H68.3004V44.4066H68.2426C68.2194 44.4867 68.1992 44.5667 68.1761 44.6467H68.1183C68.1183 44.6896 68.1183 44.7296 68.1183 44.7696L67.9998 44.8296C67.9767 44.9496 67.9536 45.0697 67.9276 45.1897H67.8698C67.8698 45.2297 67.8698 45.2697 67.8698 45.3097H67.8091C67.8091 45.3497 67.8091 45.3898 67.8091 45.4298L67.6907 45.4898C67.63 45.647 67.8351 45.8728 67.8496 45.9728L67.6531 46.5129C67.6531 46.593 67.7542 46.6158 67.7051 46.753H67.6155C67.6155 46.793 67.6155 46.833 67.6155 46.873H67.5578C67.5578 46.913 67.5578 46.9531 67.5578 46.9959H67.5C67.4768 47.1131 67.4537 47.236 67.4277 47.356H67.3699C67.3699 47.396 67.3699 47.436 67.3699 47.4761H67.3093C67.3093 47.5361 67.3093 47.5961 67.3093 47.6561H67.2515C67.2226 47.8962 67.1966 48.1362 67.1677 48.3763L67.0492 48.4363C67.0492 48.4763 67.0492 48.5192 67.0492 48.5592L66.8094 48.7393C66.8094 48.7793 66.8094 48.8193 66.8094 48.8593L66.6042 48.9765ZM72.5277 39.8797H72.4699C72.5017 40.0397 72.5364 40.1997 72.571 40.3598H72.5104C72.5104 40.4198 72.5104 40.4798 72.5104 40.5398H72.4526V40.7828H72.5104L72.4844 41.563C72.5075 41.7345 72.6866 41.9145 72.5219 42.106L72.5046 42.6461H72.4439L72.3832 42.7662L72.2041 42.8262C72.2041 42.8662 72.2041 42.9062 72.2041 42.9462C72.048 43.1491 72.4266 43.5178 72.5884 43.6093C72.5133 44.0265 72.2503 43.8951 72.0452 44.1494H71.9845V44.4495H71.9238C71.9238 44.4895 71.9238 44.5324 71.9238 44.5695H71.866C71.866 44.6124 71.866 44.6524 71.866 44.6924L71.6262 44.8725C71.6262 44.9125 71.6262 44.9525 71.6262 44.9925L71.5077 45.0525L71.4904 45.4726H71.551L71.4124 46.0757H71.3546V46.3157L71.2332 46.3757C71.2332 46.4158 71.2332 46.4558 71.2332 46.4958H71.1754C71.1754 46.5358 71.1754 46.5758 71.1754 46.6158L70.9963 46.7358V46.9788H70.9385L70.9731 47.639H70.9154C70.9154 47.679 70.9154 47.719 70.9154 47.759L70.4964 48.0448C70.4964 48.0848 70.4964 48.1248 70.4964 48.1648L70.3779 48.2248V48.4049H70.3201C70.3201 48.4449 70.3201 48.4878 70.3201 48.5278H70.2623C70.2363 48.6478 70.2132 48.7678 70.1901 48.8879H70.1323C70.1063 49.0079 70.0832 49.1279 70.0601 49.248L69.9416 49.308L69.8722 49.5938H69.8145C69.8145 49.6367 69.8145 49.6738 69.8145 49.7138H69.7567C69.7567 49.7767 69.7567 49.8367 69.7567 49.8967H69.6989C69.5891 50.1997 69.7191 50.4369 69.5544 50.6769L68.9505 51.1599C68.8089 51.38 68.9881 51.4457 68.9505 51.6401H68.7713C68.7713 51.7001 68.7713 51.7601 68.7713 51.8201H68.7136C68.7136 51.8601 68.7136 51.9001 68.7136 51.9402H68.6558L68.5922 52.1202L68.4737 52.1802C68.4737 52.2231 68.4737 52.2602 68.4737 52.3003C68.3993 52.426 68.3173 52.5472 68.2281 52.6632H68.1096V52.7232H67.9912L67.8669 52.9033H67.8091C67.7253 53.0633 67.8091 53.2548 67.734 53.3834L67.3642 53.7292L67.2948 54.0893L66.9885 54.4494C66.8349 54.49 66.6765 54.5102 66.5175 54.5094C66.6254 54.2212 66.7528 53.9405 66.8989 53.6692H67.0174L67.2601 53.3663H67.3179V53.1862H67.3757C67.3757 53.1462 67.3757 53.1062 67.3757 53.0662H67.4335L67.5029 52.7804H67.5635L67.5809 52.2374H67.6387L67.708 51.9973L67.8265 51.9373C67.8265 51.8973 67.8265 51.8573 67.8265 51.8173H67.8843C67.8843 51.7772 67.8843 51.7372 67.8843 51.6972H67.9421C67.9652 51.5772 67.9912 51.4572 68.0143 51.3371L68.1934 51.2171C68.192 51.1971 68.192 51.1771 68.1934 51.1571L68.3697 51.0971C68.4795 50.7741 68.5864 50.454 68.6962 50.1339V49.8939L68.8147 49.8338C68.8378 49.771 68.858 49.7138 68.8783 49.6509H68.9389C68.9592 49.5709 68.9823 49.4909 69.0054 49.4109L69.1239 49.3509C69.1239 49.3108 69.1239 49.2708 69.1239 49.2308L69.303 49.1108C69.303 49.0508 69.303 48.9908 69.303 48.9307H69.3608C69.3608 48.9107 69.3608 48.8907 69.3608 48.8707C69.3608 48.8507 69.2712 48.8707 69.3059 48.7507H69.3637V48.5078H69.4244C69.4244 48.2677 69.4388 48.0276 69.4475 47.7876H69.5082C69.5602 47.6304 69.5082 47.5018 69.5804 47.3675L69.7596 47.2474C69.7596 47.2074 69.7596 47.1674 69.7596 47.1245H69.8202C69.8202 46.9845 69.8202 46.8387 69.8202 46.7044H69.878L70.0081 46.3443H70.0658C70.0918 46.1843 70.1179 46.0242 70.141 45.8642H70.2016C70.2016 45.8242 70.2016 45.7813 70.2016 45.7413L70.3201 45.6813C70.3432 45.6012 70.3663 45.5212 70.3866 45.4412L70.5079 45.3812C70.5079 45.3412 70.5079 45.3012 70.5079 45.2612H70.5657C70.5657 45.2211 70.5657 45.1811 70.5657 45.1411H70.6235C70.6726 44.821 70.7246 44.4981 70.7738 44.178L71.1928 43.8922C71.1928 43.6693 71.0049 43.3806 71.1032 43.1091H71.1639C71.1639 43.0691 71.1639 43.0291 71.1639 42.9891H71.2216C71.2476 42.8691 71.2708 42.749 71.2939 42.629L71.4124 42.569C71.4355 42.489 71.4586 42.4089 71.4788 42.3289H71.5395C71.5222 42.2089 71.5077 42.0888 71.4933 41.9688H71.4355L71.5135 41.3658C71.5395 40.9199 71.4152 40.6342 71.6117 40.2826L71.7302 40.2226C71.7302 40.1826 71.7302 40.1426 71.7302 40.1026L71.97 39.9225C71.97 39.5424 71.8516 39.6539 71.6955 39.4424H71.6377L71.5944 39.0194H71.5366C71.4788 38.8479 71.5048 38.6936 71.4355 38.5393H71.3777C71.3777 38.4993 71.3777 38.4593 71.3777 38.4192H71.3199L71.4326 36.916H71.3719L71.2679 36.553H71.2101C71.2361 36.333 71.265 36.1129 71.291 35.8928L71.1783 35.8328C71.1783 35.7928 71.1783 35.7528 71.1783 35.7099H71.1205C71.1205 35.6728 71.1205 35.6328 71.1205 35.5899H71.0627C71.0367 35.4156 71.1552 35.4699 71.187 35.4098C71.2188 35.3498 71.187 35.3298 71.187 35.2898H71.2477L71.1956 35.0497C71.0801 35.0126 71.1465 35.0497 71.0829 34.9897C70.9471 34.8154 71.161 34.7411 71.0974 34.5096H71.0396C71.0396 34.4696 71.0396 34.4296 71.0396 34.3896H71.0829C71.0775 34.365 71.0809 34.3393 71.0925 34.3168C71.104 34.2944 71.1232 34.2767 71.1465 34.2667C71.1147 34.0466 71.0858 33.8265 71.0541 33.6065H70.9963C70.9789 33.5065 70.9645 33.4064 70.9471 33.3207H70.8894C70.8894 33.2807 70.8894 33.2407 70.8894 33.2007H70.8316C70.8316 33.1406 70.8316 33.0806 70.8316 33.0177H70.794C70.794 32.9777 70.794 32.9406 70.794 32.8977H70.7362C70.7218 32.7377 70.7102 32.5776 70.6958 32.4176H70.638C70.638 32.3776 70.638 32.3376 70.638 32.2975H70.5802C70.5802 32.1175 70.5802 31.9374 70.6004 31.7545H70.5397V31.5745H70.479C70.479 31.4745 70.479 31.3744 70.479 31.2887H70.4213C70.4213 31.2487 70.4213 31.2087 70.4213 31.1687L70.193 30.9886C70.193 30.9486 70.193 30.9086 70.193 30.8686H70.1352C70.1352 30.7285 70.1352 30.5828 70.1496 30.4485H70.0918C70.0918 30.3856 70.0918 30.3256 70.0918 30.2656H70.0341C70.0341 30.1255 70.0341 29.9798 70.0485 29.8454H69.9907C69.9907 29.7854 69.9907 29.7254 69.9907 29.6654H69.9329L69.8809 29.4253H69.8231C69.8231 29.3653 69.8231 29.3053 69.8231 29.2453L69.7104 29.1853L69.7278 28.6422H69.67C69.6526 28.5622 69.6353 28.4822 69.6209 28.4022L69.5053 28.3422C69.5053 28.3022 69.5053 28.2621 69.5053 28.2221H69.4475C69.4619 28.1392 69.5862 27.902 69.5226 27.7391L69.4099 27.6791C69.3926 27.5791 69.3752 27.4791 69.3608 27.3933H69.3492C69.3348 27.2133 69.3232 27.0332 69.3088 26.8532L69.1932 26.7932C69.1932 26.5931 69.1932 26.3902 69.2163 26.1901L68.9274 25.9501C68.9274 25.9101 68.9274 25.87 68.9274 25.83L68.8118 25.77C68.8378 25.61 68.8638 25.4499 68.8869 25.287H68.8291C68.7374 25.0657 68.6062 24.8624 68.4419 24.6869L68.2715 24.5668C68.2715 24.5268 68.2715 24.4868 68.2715 24.4468C68.1877 24.3182 67.864 24.2353 67.9392 23.9638H67.997C67.9955 23.9438 67.9955 23.9238 67.997 23.9038H67.9363V23.7237H67.9045L67.8525 23.6037H67.6762C67.6589 23.5637 67.6415 23.5237 67.6213 23.4837H67.5635C67.5635 23.4437 67.5635 23.4036 67.5635 23.3636L67.3381 23.1836C67.3237 23.0636 67.3064 22.9435 67.2919 22.8235H67.2341C67.2168 22.7806 67.1966 22.7435 67.1792 22.7006H66.9452C66.9452 22.6806 66.9452 22.6634 66.9452 22.6406C66.6909 22.4377 66.844 22.4491 66.7285 22.1604H66.6707C66.6707 22.1204 66.6707 22.0804 66.6707 22.0404H66.6129C66.5955 21.9404 66.5811 21.8404 66.5638 21.7546L66.4511 21.6946L66.347 21.3316H66.4048C66.4048 21.0458 66.3817 20.7801 66.5435 20.6715C66.545 20.6515 66.545 20.6314 66.5435 20.6114H66.6013C66.792 20.9601 67.4017 21.2088 67.682 21.5146L67.9565 21.9347C67.9565 21.9747 67.9565 22.0147 67.9565 22.0547L68.3524 22.4148C68.3697 22.5148 68.3841 22.6149 68.4015 22.7006L68.5142 22.7635L68.8031 23.1236L68.9765 23.1836C68.9765 23.2236 68.9765 23.2636 68.9765 23.3036L69.147 23.4237C69.147 23.4637 69.147 23.5037 69.147 23.5437L69.2626 23.6037L69.3666 23.9638L69.5371 24.0867C69.5371 24.1267 69.5371 24.1667 69.5371 24.2067L69.7653 24.3868C69.7653 24.4268 69.7653 24.4668 69.7653 24.5068L69.9358 24.6268C70.0976 24.9126 69.8 25.1984 69.9069 25.4699L70.0225 25.53C70.0225 25.57 70.0225 25.61 70.0225 25.65L70.193 25.77C70.2074 25.9701 70.219 26.1701 70.2305 26.3702C70.297 26.4216 70.2305 26.3702 70.2883 26.4302H70.5773C70.5758 26.4102 70.5758 26.3902 70.5773 26.3702C70.8865 26.3873 70.8662 26.4588 70.976 26.6731H71.0338V26.9132H71.0916C71.0669 26.9662 71.0238 27.0087 70.9703 27.0332V27.0932L70.7362 27.0332V27.0932H70.6755C70.69 27.2276 70.6755 27.2504 70.7275 27.3333H70.7853C70.7853 27.3733 70.7853 27.4133 70.7853 27.4533L70.9009 27.5134C70.9009 27.5734 70.9009 27.6334 70.9009 27.6934H70.9587C70.9587 27.7334 70.9587 27.7734 70.9587 27.8163H71.0165C71.0165 27.8763 71.0165 27.9363 71.0165 27.9964L71.2419 28.1764C71.2419 28.2364 71.2419 28.2964 71.2419 28.3565H71.2997C71.3009 28.4741 71.2731 28.5902 71.2188 28.6948C71.1644 28.7993 71.085 28.8892 70.9876 28.9566C71.1032 29.4282 71.3892 29.1195 71.6146 29.3796C71.736 29.5139 71.6493 29.6197 71.7186 29.7997H71.7764C71.7764 29.8397 71.7764 29.8797 71.7764 29.9197L71.892 29.9798C71.892 30.0198 71.892 30.0598 71.892 30.0998H71.9498L71.9325 30.5828H71.9903V30.8229H72.0509C72.0495 30.8428 72.0495 30.8629 72.0509 30.8829H71.9903C71.918 31.323 72.0423 31.5259 71.7273 31.726C71.7273 32.1775 71.9527 32.0118 72.1174 32.2661H72.1752C72.1001 32.389 72.2388 32.5519 72.1578 32.8063H72.1001L72.0307 33.1092H72.0885C72.0885 33.1492 72.0885 33.1892 72.0885 33.2292L72.259 33.3493C72.259 33.3893 72.259 33.4293 72.259 33.4693H72.3168C72.3312 33.6494 72.3457 33.8294 72.3572 34.0095H72.415C72.415 34.0695 72.415 34.1295 72.415 34.1924H72.4728C72.4728 34.2495 72.4728 34.3095 72.4728 34.3724H72.5306L72.337 34.9126H72.2792C72.3312 35.0726 72.3832 35.2326 72.4381 35.3927H72.3774C72.3081 35.7156 72.4555 36.2844 72.3428 36.4158C72.3428 36.5159 72.3428 36.6159 72.3428 36.7016L72.5161 36.7616C72.6548 36.876 72.597 36.956 72.86 37.0046C72.86 37.0446 72.86 37.0846 72.86 37.1246H72.9178L72.8484 37.4847H72.9062C72.9062 37.7962 72.8513 37.862 72.5999 37.9048C72.5999 38.1392 72.5999 38.2049 72.7011 38.3278L72.8167 38.3878V38.6279C72.8167 38.9623 72.8311 39.1537 73.0276 39.2881C72.8542 39.6682 72.6317 39.5338 72.5277 39.8797Z" fill="#FFBE00"/>
</svg>