<svg xmlns="http://www.w3.org/2000/svg" width="20" height="20" viewBox="0 0 20 20" fill="none">
  <path d="M0.500764 9.91394C0.500764 4.61756 4.64722 0.700195 10.0001 0.700195C15.353 0.700195 19.4994 4.61756 19.4994 9.91394C19.4994 15.2073 15.353 19.1277 10.0001 19.1277C9.04125 19.1277 8.11684 19.0006 7.25419 18.7626C7.08562 18.7167 6.90634 18.731 6.74716 18.803L4.85442 19.6346C4.74022 19.6854 4.61528 19.7072 4.49064 19.6982C4.36599 19.6892 4.24548 19.6497 4.13974 19.5831C4.034 19.5165 3.94628 19.4249 3.88434 19.3164C3.82239 19.2079 3.78813 19.0858 3.78456 18.9609L3.72875 17.2666C3.72517 17.1648 3.70114 17.0647 3.6581 16.9723C3.61506 16.8799 3.55389 16.7971 3.47821 16.7288C2.52582 15.87 1.76757 14.8179 1.25403 13.6429C0.7405 12.4678 0.48409 11.1962 0.500764 9.91394ZM7.08736 8.17935L4.30109 12.6132C4.02264 13.0305 4.5546 13.5161 4.9506 13.2068L7.95001 10.9344C8.04849 10.8576 8.16978 10.8159 8.29466 10.8159C8.41953 10.8159 8.54083 10.8576 8.63931 10.9344L10.8532 12.5977C11.011 12.7148 11.1913 12.7981 11.3827 12.8425C11.5741 12.8869 11.7726 12.8914 11.9659 12.8557C12.1591 12.82 12.3429 12.7449 12.5058 12.635C12.6687 12.5252 12.8073 12.383 12.9128 12.2172L15.6991 7.7834C15.9775 7.36607 15.4456 6.88998 15.0496 7.18977L12.0502 9.46218C11.9533 9.53884 11.8335 9.58055 11.71 9.58055C11.5865 9.58055 11.4666 9.53884 11.3698 9.46218L9.15286 7.79883C8.99529 7.67972 8.81464 7.5947 8.62242 7.54918C8.43019 7.50366 8.2306 7.49864 8.03633 7.53443C7.84206 7.57022 7.65736 7.64604 7.49399 7.75707C7.33061 7.8681 7.19213 8.01191 7.08736 8.17935Z" fill="url(#paint0_linear)"/>
  <defs>
    <linearGradient id="paint0_linear" x1="16.1742" y1="-1.43731" x2="3.11172" y2="21.8377" gradientUnits="userSpaceOnUse">
      <stop stop-color="#EE4733"/>
      <stop offset="0.427083" stop-color="#D33CD1"/>
      <stop offset="1" stop-color="#0091FF"/>
    </linearGradient>
  </defs>
</svg>