<svg xmlns="http://www.w3.org/2000/svg" width="71" height="37" viewBox="0 0 71 37" fill="none">
  <path d="M7.08044 6.21522L14.7036 8.59149C20.8323 10.1291 26.1439 12.8172 31.7833 15.1773C41.3395 19.2286 50.5568 24.0585 59.3409 29.6175L50.7474 29.8782C47.4438 30.1819 45.9923 34.6332 49.9679 35.6574C56.0014 36.7875 62.1788 36.7255 68.1496 35.4748C68.6606 35.348 69.123 35.0788 69.4836 34.6982C69.8441 34.3177 70.0882 33.8412 70.1876 33.3238C70.2871 32.8064 70.2378 32.269 70.0456 31.7735C69.8534 31.2781 69.526 30.8448 69.1011 30.5235L64.7276 21.231C62.7277 19.2311 61.0611 17.5645 59.2279 15.7313C57.3946 13.8981 57.7522 17.207 57.2603 17.6989C57.1803 19.0643 57.6029 20.4199 58.4484 21.5105C50.4898 16.955 42.2266 12.9657 33.7213 9.57281C28.3753 7.25678 22.8933 5.27976 17.3083 3.65365L8.52922 1.43327C6.21216 1.0838 4.22303 0.406404 2.08338 1.5461C-0.0562601 2.68579 1.09958 2.5299 1.09958 2.5299C1.79283 3.52155 2.68262 4.36134 3.71231 4.99583C4.74201 5.63031 5.88906 6.04559 7.08044 6.21522Z" fill="#ACC2E4"/>
</svg>