<svg xmlns="http://www.w3.org/2000/svg" width="20" height="20" viewBox="0 0 20 20" fill="none">
  <path d="M10 0C4.48 0 0 4.48 0 10C0 15.52 4.48 20 10 20C15.52 20 20 15.52 20 10C20 4.48 15.52 0 10 0ZM15 14.34C15 14.65 14.84 15 14.45 15C9.29 15 5 10.71 5 5.55C5 5.13 5.36 5 5.66 5H7.58C7.88 5 8.13 5.25 8.13 5.55C8.13 6.23 8.24 6.89 8.44 7.51C8.5 7.7 8.46 7.92 8.31 8.08L7.23 9C8.01 10.63 9.49 12.04 11.06 12.79L11.93 11.7C12.08 11.55 12.3 11.5 12.49 11.57C13.11 11.77 13.77 11.88 14.45 11.88C14.75 11.88 15 12.13 15 12.43V14.34Z" fill="#19C372"/>
</svg>