<svg xmlns="http://www.w3.org/2000/svg" width="81" height="58" viewBox="0 0 81 58" fill="none">
  <path d="M3.66576 28.298C4.70441 24.5462 6.50844 21.0481 8.96474 18.023C11.421 14.9979 14.4766 12.5111 17.9398 10.7186C21.403 8.92607 25.1991 7.86646 29.0901 7.60623C32.9811 7.346 36.883 7.89076 40.5511 9.20634C47.8864 12.3896 54.1253 17.6461 58.4991 24.3279C62.8729 31.0097 65.1903 38.8249 65.1659 46.8103C62.5225 43.8353 60.0369 40.5878 56.575 37.1415C53.1131 33.6952 49.2543 39.1031 52.2131 41.5332C57.2389 46.1333 62.0104 51.0027 66.5065 56.1197C66.7636 56.4549 67.0914 56.7297 67.4666 56.9248C67.8418 57.1198 68.2554 57.2304 68.6783 57.2488C69.1012 57.2671 69.5231 57.1928 69.9143 57.031C70.3055 56.8692 70.6566 56.6239 70.9428 56.3122C74.7511 50.9287 77.8367 45.0713 80.1208 38.8896C80.2921 38.4811 80.3228 38.0276 80.2083 37.6001C80.0937 37.1726 79.8403 36.7952 79.4878 36.527C79.4846 36.1504 79.3856 35.7808 79.2 35.4531V35.4531C79.2 35.4531 77.4775 35.9146 76.8316 36.0877L70.2332 45.9129C71.0395 36.4692 68.6414 27.0331 63.4241 19.1206C58.2067 11.2082 50.4732 5.27886 41.4659 2.28527C37.1225 0.726755 32.4785 0.179487 27.8883 0.685237C23.2981 1.19099 18.8831 2.73639 14.9802 5.20347C11.0773 7.67056 7.78983 10.9941 5.36859 14.9205C2.94735 18.8468 1.4564 23.2721 1.00954 27.8587C0.980416 28.0328 0.985934 28.2108 1.02577 28.3827C1.06561 28.5545 1.13899 28.7168 1.24173 28.8603C1.34446 29.0038 1.47454 29.1257 1.62453 29.2189C1.77452 29.3122 1.94148 29.375 2.11589 29.4039C2.29031 29.4327 2.46875 29.427 2.64102 29.387C2.8133 29.3471 2.97604 29.2736 3.11996 29.1709C3.26388 29.0683 3.38616 28.9383 3.4798 28.7885C3.57345 28.6387 3.63664 28.472 3.66576 28.298V28.298Z" fill="#ACC2E4"/>
</svg>