
<svg xmlns="http://www.w3.org/2000/svg" width="20" height="20" viewBox="0 0 20 20" fill="none">
  <rect width="20" height="20" rx="10" fill="#25D366"/>
  <path d="M12.519 11.0921C12.3812 11.0223 11.7098 10.6947 11.5843 10.648C11.4589 10.6033 11.3678 10.5799 11.2763 10.7177C11.187 10.8522 10.9237 11.1598 10.8432 11.2495C10.7628 11.3393 10.6837 11.3461 10.5479 11.2853C10.4101 11.2155 9.96975 11.0722 9.44691 10.6033C9.03853 10.2399 8.76662 9.79238 8.68584 9.65453C8.60541 9.51841 8.67691 9.44141 8.74497 9.37334C8.80753 9.31078 8.88281 9.21591 8.95259 9.13341C9.01894 9.05091 9.04025 8.99556 9.08872 8.90619C9.13341 8.80959 9.11037 8.73431 9.07634 8.66625C9.04231 8.59819 8.76834 7.92341 8.65387 7.65459C8.54456 7.38784 8.43009 7.42188 8.34587 7.42188C8.26716 7.41466 8.17572 7.41466 8.08463 7.41466C7.99353 7.41466 7.84469 7.44869 7.71922 7.57931C7.59375 7.71716 7.23934 8.04647 7.23934 8.71266C7.23934 9.38056 7.72987 10.0268 7.79794 10.1234C7.86772 10.2128 8.76284 11.5878 10.1361 12.1787C10.4637 12.3165 10.7181 12.399 10.9168 12.4671C11.2444 12.5709 11.5434 12.5565 11.7796 12.5224C12.0408 12.4795 12.5888 12.1911 12.7036 11.869C12.8201 11.5448 12.8201 11.2763 12.7861 11.2155C12.7521 11.1529 12.6627 11.1189 12.5248 11.0581L12.519 11.0921ZM10.0285 14.4688H10.0213C9.20834 14.4688 8.40466 14.2484 7.70272 13.8366L7.53806 13.7383L5.81931 14.1858L6.28131 12.5135L6.17028 12.3416C5.71635 11.6199 5.47553 10.7846 5.47556 9.93194C5.47556 7.43631 7.51847 5.40062 10.032 5.40062C11.2495 5.40062 12.3918 5.875 13.2512 6.73438C13.6751 7.15327 14.0114 7.65239 14.2404 8.20262C14.4694 8.75285 14.5865 9.34318 14.5849 9.93916C14.5815 12.4331 12.5403 14.4688 10.0302 14.4688H10.0285ZM13.9047 6.08091C12.859 5.07097 11.484 4.5 10.0213 4.5C7.00456 4.5 4.54813 6.94578 4.54641 9.95153C4.54641 10.9113 4.797 11.8477 5.27688 12.6764L4.5 15.5L7.404 14.7427C8.20848 15.1765 9.1077 15.4046 10.0217 15.4068H10.0234C13.0418 15.4068 15.4983 12.9611 15.5 9.95325C15.5 8.49781 14.9325 7.12797 13.8978 6.09844L13.9047 6.08091Z" fill="white"/>
</svg>