<svg xmlns="http://www.w3.org/2000/svg" width="20" height="20" viewBox="0 0 20 20" fill="none">
  <rect width="20" height="20" rx="10" fill="url(#paint0_linear)"/>
  <path d="M12.4639 8.13416C12.5456 8.13416 12.6272 8.13693 12.7074 8.14108C12.3699 6.361 10.5179 5 8.28276 5C5.80973 5 3.8042 6.66805 3.8042 8.72614C3.8042 9.84786 4.40724 10.8589 5.35192 11.5422C5.39088 11.5697 5.42266 11.6062 5.44456 11.6485C5.46647 11.6909 5.47786 11.7379 5.47778 11.7856C5.47778 11.8188 5.47087 11.8492 5.46257 11.881C5.38649 12.1618 5.26616 12.6113 5.26063 12.6321C5.25095 12.668 5.23712 12.704 5.23712 12.7414C5.23712 12.823 5.30351 12.8907 5.38649 12.8907C5.41831 12.8907 5.44459 12.8783 5.47225 12.8631L6.45288 12.2974C6.52619 12.2545 6.60503 12.2282 6.69078 12.2282C6.73504 12.2282 6.7793 12.2351 6.82218 12.2476C7.27999 12.379 7.77377 12.4523 8.28414 12.4523C8.36713 12.4523 8.44874 12.4509 8.53034 12.4467C8.43214 12.1563 8.37958 11.8506 8.37958 11.5339C8.37958 9.6556 10.2081 8.13416 12.4639 8.13416ZM9.77654 6.93776C10.1057 6.93776 10.374 7.2047 10.374 7.53389C10.374 7.86307 10.1071 8.13001 9.77654 8.13001C9.44735 8.13001 9.17903 7.86307 9.17903 7.53389C9.17903 7.2047 9.44735 6.93776 9.77654 6.93776ZM6.79037 8.13001C6.46118 8.13001 6.19286 7.86307 6.19286 7.53389C6.19286 7.2047 6.4598 6.93776 6.79037 6.93776C7.12093 6.93776 7.38788 7.2047 7.38788 7.53389C7.38788 7.86307 7.11955 8.13001 6.79037 8.13001ZM14.9065 13.8783C15.6935 13.3084 16.1956 12.4675 16.1956 11.5311C16.1956 9.81604 14.5248 8.426 12.4626 8.426C10.4017 8.426 8.72951 9.81604 8.72951 11.5311C8.72951 13.2462 10.4003 14.6362 12.4626 14.6362C12.8886 14.6362 13.3007 14.5754 13.6811 14.4661C13.7171 14.455 13.753 14.4495 13.7904 14.4495C13.8623 14.4495 13.9273 14.4716 13.9882 14.5062L14.8056 14.9765C14.8291 14.9903 14.8512 15 14.8775 15C14.8939 15.0001 14.9102 14.997 14.9254 14.9908C14.9405 14.9847 14.9544 14.9756 14.966 14.964C14.9776 14.9524 14.9867 14.9386 14.9928 14.9234C14.999 14.9082 15.0021 14.8919 15.002 14.8755C15.002 14.8451 14.9895 14.8147 14.9826 14.7842C14.9785 14.7676 14.8775 14.3928 14.8139 14.1577C14.807 14.1314 14.8014 14.1051 14.8014 14.0788C14.8028 13.9972 14.8443 13.9239 14.9065 13.8783ZM11.2205 11.036C10.9453 11.036 10.7226 10.8133 10.7226 10.5394C10.7226 10.2656 10.9453 10.0429 11.2205 10.0429C11.4958 10.0429 11.7184 10.2656 11.7184 10.5394C11.7184 10.8133 11.4944 11.036 11.2205 11.036ZM13.7088 11.036C13.4335 11.036 13.2108 10.8133 13.2108 10.5394C13.2108 10.2656 13.4335 10.0429 13.7088 10.0429C13.984 10.0429 14.2067 10.2656 14.2067 10.5394C14.206 10.6711 14.1533 10.7973 14.06 10.8903C13.9668 10.9833 13.8405 11.0357 13.7088 11.036Z" fill="white"/>
  <defs>
    <linearGradient id="paint0_linear" x1="10" y1="0" x2="10" y2="20" gradientUnits="userSpaceOnUse">
      <stop stop-color="#14ED7A"/>
      <stop offset="1" stop-color="#0CC362"/>
    </linearGradient>
  </defs>
</svg>