<svg xmlns="http://www.w3.org/2000/svg" width="68" height="51" viewBox="0 0 68 51" fill="none">
  <path d="M67.4958 13.083L67.4117 12.523L67.3242 12.543C66.7264 9.77314 65.3493 7.22758 63.3522 5.20086C61.3551 3.17414 58.8196 1.7491 56.0392 1.09063C53.2587 0.432164 50.347 0.567175 47.6407 1.48005C44.9345 2.39292 42.5444 4.04634 40.7471 6.24899C38.9497 8.45165 37.8186 11.1135 37.4845 13.9266C37.1504 16.7397 37.627 19.589 38.8591 22.1449C40.0913 24.7008 42.0287 26.8588 44.4471 28.3692C46.8655 29.8796 49.6661 30.6806 52.5249 30.6797C53.2751 30.6797 53.9951 30.5664 54.7117 30.463C54.4795 31.2364 54.2407 32.023 53.8572 32.7297C53.4736 33.7564 52.8748 34.6463 52.2793 35.543C51.7814 36.513 50.9033 37.1697 50.2574 37.9997C49.5812 38.8063 48.6594 39.343 47.9294 40.013C47.2128 40.713 46.2741 41.063 45.5273 41.5564C44.7468 41.9997 44.0672 42.4897 43.3405 42.723L41.5272 43.463L39.9325 44.1197L41.5608 50.583L43.5693 50.103C44.2119 49.943 44.9957 49.7563 45.8873 49.533C46.799 49.3663 47.7712 48.9097 48.8545 48.493C49.921 48.0163 51.1624 47.6997 52.313 46.9364C53.4703 46.2097 54.8059 45.603 55.9834 44.6297C57.1238 43.6263 58.4998 42.7563 59.5158 41.483C60.626 40.2897 61.7228 39.0364 62.5739 37.6097C63.5596 36.2497 64.2291 34.7563 64.9356 33.2797C65.5748 31.803 66.0895 30.293 66.5101 28.8264C67.3074 25.8864 67.664 23.093 67.8019 20.703C67.9163 18.3097 67.849 16.3197 67.7077 14.8797C67.6605 14.2783 67.5898 13.679 67.4958 13.083V13.083ZM30.4891 13.083L30.405 12.523L30.3175 12.543C29.7197 9.77314 28.3426 7.22758 26.3455 5.20086C24.3484 3.17414 21.813 1.7491 19.0325 1.09063C16.2521 0.432164 13.3403 0.567175 10.634 1.48005C7.9278 2.39292 5.53774 4.04634 3.7404 6.24899C1.94306 8.45165 0.81189 11.1135 0.47778 13.9266C0.143671 16.7397 0.620275 19.589 1.85245 22.1449C3.08462 24.7008 5.022 26.8588 7.44042 28.3692C9.85884 29.8796 12.6595 30.6806 15.5182 30.6797C16.2684 30.6797 16.9884 30.5664 17.705 30.463C17.4728 31.2364 17.234 32.023 16.8505 32.7297C16.4669 33.7564 15.8681 34.6463 15.2726 35.543C14.7747 36.513 13.8967 37.1697 13.2507 37.9997C12.5745 38.8063 11.6527 39.343 10.9227 40.013C10.2061 40.713 9.26746 41.063 8.5206 41.5564C7.74009 41.9997 7.06051 42.4897 6.33384 42.723L4.52051 43.463C3.50787 43.873 2.92922 44.113 2.92922 44.113L4.55752 50.5763L6.56597 50.0964C7.20854 49.9364 7.99241 49.7497 8.88393 49.5263C9.79564 49.3597 10.7679 48.903 11.8512 48.4863C12.9177 48.0097 14.1591 47.693 15.3096 46.9297C16.4669 46.203 17.8025 45.5964 18.98 44.623C20.1205 43.6197 21.4965 42.7497 22.5125 41.4764C23.6227 40.283 24.7194 39.0297 25.5706 37.603C26.5563 36.243 27.2258 34.7497 27.9323 33.273C28.5715 31.7964 29.0862 30.2864 29.5068 28.8197C30.3041 25.8797 30.6607 23.0864 30.7986 20.6964C30.913 18.303 30.8457 16.313 30.7044 14.873C30.6542 14.274 30.5824 13.677 30.4891 13.083V13.083Z" fill="#FFBE00"/>
</svg>