<svg xmlns="http://www.w3.org/2000/svg" width="68" height="51" viewBox="0 0 68 51" fill="none">
  <path d="M15.4682 20.3375C14.718 20.3375 13.9981 20.4508 13.2815 20.5542C13.5136 19.7808 13.7525 18.9942 14.136 18.2875C14.5195 17.2608 15.1184 16.3708 15.7138 15.4742C16.2117 14.5042 17.0898 13.8475 17.7357 13.0175C18.4119 12.2108 19.3338 11.6742 20.0638 11.0042C20.7804 10.3042 21.719 9.95416 22.4659 9.46083C23.2464 9.0175 23.9259 8.5275 24.6526 8.29416L26.466 7.55416L28.0606 6.8975L26.4289 0.4375L24.4205 0.917498C23.7779 1.0775 22.9941 1.26416 22.1025 1.4875C21.1908 1.65416 20.2185 2.11083 19.1353 2.5275C18.0654 3.00083 16.8274 3.32083 15.6768 4.08083C14.5195 4.8075 13.1839 5.41416 12.0064 6.3875C10.866 7.39083 9.48997 8.26083 8.47397 9.5375C7.36377 10.7308 6.26703 11.9842 5.41588 13.4108C4.43015 14.7708 3.76067 16.2642 3.05418 17.7408C2.41497 19.2175 1.90024 20.7275 1.47971 22.1942C0.682384 25.1342 0.325774 27.9275 0.18784 30.3175C0.0734552 32.7108 0.14074 34.7008 0.282038 36.1408C0.332502 36.8208 0.426701 37.4808 0.493986 37.9375L0.578092 38.4975L0.665562 38.4775C1.26393 41.2469 2.6414 43.7919 4.63861 45.8181C6.63583 47.8442 9.17118 49.2688 11.9514 49.9269C14.7316 50.585 17.643 50.4498 20.3489 49.5369C23.0548 48.624 25.4446 46.9708 27.2418 44.7684C29.039 42.5661 30.1701 39.9046 30.5044 37.0918C30.8388 34.2791 30.3625 31.43 29.1309 28.8742C27.8992 26.3184 25.9624 24.1604 23.5446 22.6497C21.1268 21.1389 18.3267 20.3373 15.4682 20.3375V20.3375ZM52.4749 20.3375C51.7247 20.3375 51.0047 20.4508 50.2882 20.5542C50.5203 19.7808 50.7592 18.9942 51.1427 18.2875C51.5262 17.2608 52.125 16.3708 52.7205 15.4742C53.2184 14.5042 54.0965 13.8475 54.7424 13.0175C55.4186 12.2108 56.3404 11.6742 57.0705 11.0042C57.7871 10.3042 58.7257 9.95416 59.4725 9.46083C60.2531 9.0175 60.9326 8.5275 61.6593 8.29416L63.4726 7.55416L65.0673 6.8975L63.4356 0.4375L61.4272 0.917498C60.7846 1.0775 60.0007 1.26416 59.1092 1.4875C58.1975 1.65416 57.2252 2.11083 56.1419 2.5275C55.0755 3.00417 53.8341 3.32083 52.6835 4.08416C51.5262 4.81083 50.1906 5.4175 49.0131 6.39083C47.8726 7.39416 46.4967 8.26416 45.4807 9.5375C44.3705 10.7308 43.2737 11.9842 42.4226 13.4108C41.4368 14.7708 40.7674 16.2642 40.0609 17.7408C39.4217 19.2175 38.9069 20.7275 38.4864 22.1942C37.6891 25.1342 37.3325 27.9275 37.1945 30.3175C37.0801 32.7108 37.1474 34.7008 37.2887 36.1408C37.3392 36.8208 37.4334 37.4808 37.5007 37.9375L37.5848 38.4975L37.6722 38.4775C38.2706 41.2469 39.6481 43.7919 41.6453 45.8181C43.6425 47.8442 46.1779 49.2688 48.9581 49.9269C51.7383 50.585 54.6497 50.4498 57.3556 49.5369C60.0615 48.624 62.4513 46.9708 64.2485 44.7684C66.0456 42.5661 67.1768 39.9046 67.5111 37.0918C67.8454 34.2791 67.3692 31.43 66.1376 28.8742C64.9059 26.3184 62.9691 24.1604 60.5513 22.6497C58.1335 21.1389 55.3334 20.3373 52.4749 20.3375V20.3375Z" fill="#FFBE00"/>
</svg>