<svg xmlns="http://www.w3.org/2000/svg" width="64" height="64" viewBox="0 0 64 64" fill="none">
  <rect x="0.5" y="0.5" width="63" height="63" fill="white"/>
  <path d="M12.0029 31.3974C12.0029 20.2471 20.7322 12 32.0014 12C43.2706 12 52 20.2471 52 31.3974C52 42.5414 43.2706 50.7947 32.0014 50.7947C29.9828 50.7947 28.0367 50.5273 26.2206 50.0261C25.8657 49.9295 25.4883 49.9596 25.1532 50.1111L21.1685 51.862C20.928 51.9688 20.665 52.0148 20.4026 51.9958C20.1402 51.9769 19.8865 51.8937 19.6639 51.7535C19.4412 51.6133 19.2566 51.4205 19.1262 51.192C18.9958 50.9635 18.9236 50.7065 18.9161 50.4435L18.7986 46.8767C18.7911 46.6623 18.7405 46.4516 18.6499 46.257C18.5593 46.0625 18.4305 45.8882 18.2712 45.7445C16.2661 43.9364 14.6698 41.7216 13.5887 39.2477C12.5076 36.7739 11.9665 34.098 12.0016 31.3986L12.0029 31.3974ZM25.8694 27.7456L20.0035 37.08C19.4173 37.9585 20.5372 38.9808 21.3709 38.3297L27.6855 33.5457C27.8928 33.384 28.1482 33.2962 28.4111 33.2962C28.674 33.2962 28.9293 33.384 29.1366 33.5457L33.7976 37.0475C34.1298 37.2939 34.5092 37.4694 34.9122 37.5628C35.3152 37.6562 35.7331 37.6656 36.1399 37.5905C36.5467 37.5153 36.9336 37.3572 37.2766 37.1259C37.6196 36.8947 37.9113 36.5953 38.1335 36.2464L43.9993 26.912C44.5855 26.0334 43.4656 25.0311 42.6319 25.6623L36.3174 30.4463C36.1135 30.6077 35.8612 30.6955 35.6012 30.6955C35.3412 30.6955 35.0888 30.6077 34.885 30.4463L30.2178 26.9445C29.8861 26.6937 29.5058 26.5147 29.1011 26.4189C28.6964 26.3231 28.2762 26.3125 27.8672 26.3879C27.4582 26.4632 27.0694 26.6228 26.7254 26.8566C26.3815 27.0903 26.0899 27.3931 25.8694 27.7456V27.7456Z" fill="url(#paint0_linear)"/>
  <rect x="0.5" y="0.5" width="63" height="63" stroke="#F3F3F3"/>
  <defs>
  <linearGradient id="paint0_linear" x1="45" y1="7.5" x2="17.5" y2="56.5" gradientUnits="userSpaceOnUse">
  <stop stop-color="#EE4733"/>
  <stop offset="0.427083" stop-color="#D33CD1"/>
  <stop offset="1" stop-color="#0091FF"/>
  </linearGradient>
  </defs>
</svg>