<svg xmlns="http://www.w3.org/2000/svg" width="267" height="48" viewBox="0 0 267 48" fill="none">
  <path d="M266.695 9.09991L265.614 8.44406H264.992C264.8 8.55826 264.588 8.55826 264.397 8.44406H264.207C263.612 9.05299 262.889 9.30165 262.179 9.14091C256.864 9.32657 251.546 9.08028 246.248 8.40307C244.923 8.15713 243.544 8.40307 242.137 8.40307C240.76 8.54984 239.377 8.54984 237.999 8.40307C237.216 8.13527 236.403 8.13527 235.619 8.40307C234.894 8.70911 234.123 8.63692 233.428 8.19812H232.833C229.209 8.19812 225.639 7.66524 222.015 7.58326C219.31 7.58326 216.606 7.09137 213.685 7.17336C211.602 7.17336 209.546 6.84543 207.464 6.76345L193.941 6.23057C188.856 6.02562 183.825 5.49274 178.768 5.2468C172.25 4.75491 165.867 4.09906 159.565 3.68915C155.102 3.40222 150.748 2.91033 146.393 2.6234C142.039 2.33646 138.279 1.88557 134.114 1.68061C130.733 1.68061 127.353 1.18873 123.945 1.10675L111.206 0.737831C105.472 0.532878 99.6842 0.450897 93.9503 0.245944C89.2443 0 84.2677 0 79.4264 0C74.5851 0 70.1225 0 65.4705 0C62.4143 0 59.3039 0 56.1936 0C53.489 0 50.7843 0 48.0797 0C45.3751 0 42.0213 0 39.0462 0.409906C34.9622 1.06576 30.9323 0.778822 26.7672 1.27071C24.5764 1.51665 22.1963 1.27071 19.9515 1.27071C16.6518 1.27071 13.3522 1.27071 10.0525 1.27071C9.86443 1.22405 9.67261 1.22405 9.48453 1.27071C7.67069 2.13065 5.72683 2.13065 3.91298 1.27071C2.91227 1.80359 1.96564 1.39368 1.1813 2.33646C0.396955 3.27925 0.342863 4.46798 1.1813 5.20581C2.01974 5.94364 1.74927 7.21435 1.1813 8.15713C0.72321 9.27015 0.469196 10.5481 0.445426 11.8595C0.421656 13.1708 0.62899 14.468 1.04607 15.6174C1.37062 17.0521 1.85746 18.5278 1.04607 19.9624C0.234677 21.3971 0.721512 23.1597 1.12721 24.5944C1.25322 25.2193 1.28462 25.8792 1.21906 26.525C1.1535 27.1708 0.992676 27.7859 0.748558 28.3245C0.177 29.9225 -0.0761368 31.7376 0.0198862 33.5495C0.115909 35.3613 0.556961 37.0919 1.28949 38.5312C2.2902 40.9086 3.99412 41.4415 6.83399 40.6217C9.05896 40.3926 11.2922 40.42 13.5144 40.7037C17.6255 40.7037 21.6284 40.3757 25.8476 40.0068C28.5522 39.7609 31.2569 39.6789 33.9615 39.433C38.2078 39.0231 42.4811 39.187 46.7274 38.8591C52.1367 38.4492 57.3566 38.5722 62.6847 38.5722C66.4712 38.5722 70.2307 38.3672 73.9901 38.3672C77.7496 38.3672 81.3197 38.3672 84.998 38.3672C87.919 38.3672 90.867 38.0393 93.761 38.3672C96.2222 38.3672 98.6834 38.3672 101.118 38.6541C102.416 38.8591 103.66 38.6541 104.931 38.6541C109.583 38.6541 114.235 38.6541 118.887 38.6541C124.675 38.9001 130.436 39.146 136.197 39.5969C140.984 40.0068 145.798 40.0888 150.558 40.6627C155.968 41.3185 161.566 41.6465 167.084 42.1383C171.6 42.5482 176.171 42.7942 180.607 43.0401C187.125 43.4091 193.67 43.9009 200.215 44.0239C202.433 44.0239 204.57 44.4338 206.842 44.2699C209.122 44.3588 211.397 44.6324 213.658 45.0897C216.092 45.3356 218.526 45.0897 220.96 45.4996C225.423 46.0325 229.939 46.4833 234.483 46.6063C237.675 46.6063 240.812 47.0982 244.004 47.2212C248.412 47.2212 252.794 47.7131 257.202 48C258.527 48 259.907 48 261.151 48C262.395 48 264.018 45.9915 263.504 44.8027C263.287 44.3228 263.147 43.7726 263.095 43.1961C263.044 42.6196 263.082 42.0327 263.206 41.4825C263.206 41.4825 263.206 41.1956 263.206 41.0726C262.693 40.7037 262.693 40.3348 263.017 39.8839C263.288 39.5291 263.533 39.1305 263.747 38.6951C264.288 37.5474 263.558 36.6866 262.152 36.8506C258.456 37.1586 254.751 37.0764 251.063 36.6046C249.927 36.6046 248.845 36.6046 247.709 36.6046C246.573 36.6046 245.004 36.6046 243.787 36.2767C240.758 35.9078 237.675 35.9898 234.618 35.6618C233.104 35.6618 231.508 35.6618 229.939 35.6618C227.613 35.4569 225.26 35.3339 222.934 35.006C220.608 34.6781 218.12 34.719 215.713 34.5141C212.116 34.1862 208.519 34.2272 204.895 34.1042C200.865 34.1042 196.781 33.4073 192.805 33.6533C190.398 33.6533 187.963 33.2844 185.529 33.1204C182.662 33.1204 179.741 33.1204 176.902 32.5465C173.277 32.1366 169.599 32.5465 166.083 31.6857C164.638 31.397 163.174 31.397 161.729 31.6857C160.882 31.6308 160.041 31.4662 159.213 31.1939C154.994 30.9479 150.748 30.8659 146.556 30.456L141.146 29.8002C138.063 29.5132 134.98 29.4313 131.869 29.2673C126.46 28.9804 121.051 28.9394 115.642 28.2015C115.148 28.0977 114.647 28.0977 114.154 28.2015C113.856 28.2015 113.505 28.2015 113.343 28.2015C113.303 28.1339 113.281 28.0463 113.281 27.9556C113.281 27.8648 113.303 27.7773 113.343 27.7097C113.438 27.5581 113.56 27.4507 113.694 27.4C113.828 27.3492 113.969 27.3571 114.1 27.4227C116.63 27.659 119.167 27.6864 121.7 27.5047C124.621 28.1196 127.677 27.5047 130.733 28.0376C133.086 28.4475 135.683 28.0376 138.171 28.3245C142.093 28.6934 146.015 29.1443 149.963 29.2673C152.37 29.2673 154.778 30.1281 157.131 30.1281C160.322 30.1281 163.459 30.415 166.624 30.661C167.679 30.661 169.329 31.0709 169.869 29.3903C170.194 30.7839 171.114 30.9889 172.412 31.0709C175.279 31.0709 178.092 31.7677 180.931 31.7267C183.771 31.6857 186.746 32.0956 189.667 32.1366C191.756 32.1941 193.841 32.413 195.915 32.7925C197.322 33.0384 198.836 32.7925 200.297 32.7925C204.489 32.7925 208.681 32.7925 212.873 33.3664C214.875 33.3664 216.93 33.9402 218.877 34.0222C221.435 34.2887 224.001 34.2887 226.559 34.0222C227.699 34.0396 228.838 34.1766 229.966 34.4321C233.131 34.4321 236.268 34.965 239.406 35.2109C242.543 35.4569 245.707 35.4979 248.845 35.7848C249.977 35.9714 251.12 35.9714 252.253 35.7848C253.128 35.3192 254.082 35.3192 254.957 35.7848C255.552 36.1537 255.985 35.7848 255.985 35.047C255.985 34.3091 256.174 33.9812 256.878 33.7763L263.856 31.9727C264.342 30.9889 264.829 30.0871 263.152 29.4722C262.368 29.1853 262.828 28.7344 263.369 28.4065C264.559 27.5867 264.532 27.2588 263.179 26.7259C262.584 26.4799 262.314 26.275 262.855 25.7421C263.396 25.2092 263.558 24.6763 264.099 24.4304C265.803 23.6106 265.587 22.5038 265.019 21.2331C264.099 20.7822 262.72 20.9872 262.314 19.7575C262.083 19.6754 261.842 19.6754 261.611 19.7575C256.878 20.2904 252.226 19.2246 247.493 19.3886C245.924 19.5776 244.347 19.2561 242.868 18.4458C242.337 18.2179 241.775 18.2179 241.245 18.4458C239.152 19.0238 237 18.8979 234.943 18.0769C234.79 18.0538 234.636 18.0538 234.483 18.0769C232.076 18.0769 229.831 17.0521 227.37 17.38C227.038 17.4426 226.702 17.4426 226.369 17.38C225.202 16.8255 223.941 16.9423 222.826 17.7079C222.636 17.8433 222.428 17.9134 222.218 17.9134C222.007 17.9134 221.8 17.8433 221.609 17.7079C220.789 17.2452 219.936 16.9288 219.067 16.7652H218.607C216.343 15.7957 213.959 15.6691 211.656 16.3962C210.673 16.3067 209.697 16.1011 208.735 15.7814C208.295 15.6991 207.85 15.6991 207.41 15.7814C204.354 16.1503 201.433 15.1665 198.43 15.0845C195.428 15.0026 192.156 15.0845 189.045 15.3715C188.803 15.4079 188.558 15.4079 188.315 15.3715C184.753 14.2962 181.129 13.7607 177.497 13.7728C175.143 13.5269 172.736 13.4039 170.383 13.24C168.459 12.604 166.466 12.604 164.541 13.24C164.347 13.3221 164.141 13.3221 163.946 13.24C162.892 12.1742 161.891 13.24 160.863 13.24C159.695 13.4779 158.507 13.2809 157.401 12.6661C156.238 12.2972 154.94 12.2972 153.831 11.4774C153.454 11.3415 153.057 11.4295 152.722 11.7233C150.685 12.9103 148.43 12.9103 146.393 11.7233C144.492 11.2195 142.555 11.0955 140.632 11.3544C140.443 11.3544 140.173 11.3544 140.091 11.3544C138.378 10.5961 136.558 10.5961 134.844 11.3544C132.891 11.4358 130.939 11.1605 129.029 10.5346C126.777 9.85426 124.483 9.53823 122.187 9.5918C120.59 9.47517 118.989 9.54368 117.4 9.79676C117.05 9.87906 116.694 9.87906 116.345 9.79676C114.379 9.29543 112.388 9.06221 110.395 9.09991C110.07 9.09991 109.583 9.09991 109.583 8.69001C109.583 8.2801 110.016 8.23911 110.367 8.19812C110.871 8.11643 111.379 8.11643 111.882 8.19812C114.803 8.85397 117.778 7.99317 120.672 8.19812C124.513 8.731 128.38 8.56704 132.221 8.89496C134.017 9.19745 135.823 9.33434 137.63 9.30487C140.247 9.20311 142.866 9.32627 145.474 9.67378C145.825 9.67378 146.312 9.67378 146.528 9.67378C147.98 9.01964 149.535 9.13532 150.937 10.0017C153.869 10.7214 156.842 10.9687 159.808 10.7395C162.919 10.7395 165.867 11.6823 168.977 11.6823C172.087 11.6823 175.171 11.6823 178.227 12.1742C179.723 12.501 181.232 12.6654 182.744 12.6661C186.287 12.3792 189.749 13.117 193.292 13.035C195.05 13.035 196.835 13.035 198.701 13.035C199.512 13.035 200.405 13.281 200.838 12.3382C200.838 12.0922 201.351 12.0102 201.649 12.3382C201.946 12.6661 201.649 12.6661 201.649 12.912C201.649 13.158 202.001 13.4039 202.217 13.3629C204.164 13.3629 206.057 13.7728 207.978 13.7728C208.519 13.7728 209.141 13.7728 209.438 13.281C209.736 12.7891 209.438 12.8301 209.655 13.281C209.871 13.7319 211.656 14.1008 212.684 14.0598C217.931 13.8138 223.016 15.1665 228.236 15.1665C230.94 15.1665 233.834 15.1665 236.62 15.5354H239.649C239.988 15.6451 240.338 15.6451 240.677 15.5354C241.596 14.7566 242.354 14.1418 242.841 15.8224C242.841 16.1503 243.463 16.0683 243.787 15.8224C245.211 15.9696 246.641 15.804 248.033 15.3305C248.451 15.0835 248.914 15.0835 249.332 15.3305C251.471 16.8793 253.899 17.2559 256.201 16.3962H256.661C259.014 16.8881 261.043 15.3715 263.369 15.6584C264.153 15.6584 264.532 14.9206 265.262 14.8386C265.262 14.8386 265.262 14.8386 265.262 14.5927C265.262 14.3467 264.613 14.3467 264.748 13.9778C264.883 13.6089 265.181 13.4039 265.641 13.5679H266.209C267.642 12.2562 266.668 10.7395 266.777 9.46883C266.722 9.22289 266.695 9.1819 266.695 9.09991ZM17.1927 7.33732C16.6518 7.33732 16.0298 7.13237 15.597 7.66524C15.8945 8.07515 16.5707 8.07515 16.7871 8.60803C17.0034 9.1409 16.9493 9.71477 16.1109 9.75576C14.3098 10.0834 12.4865 10.0005 10.7016 9.50982C9.45749 9.05892 8.10517 9.1819 6.94218 8.85397C8.2404 8.85397 9.43044 7.82921 10.7828 8.56704C12.1351 9.30487 13.2981 8.19812 14.5692 8.19812C14.5692 8.19812 14.7586 7.99317 14.7586 7.91119C14.7586 7.82921 14.4611 7.54227 14.1906 7.50128C13.3792 7.50128 12.5678 7.50128 11.7564 7.50128C10.5879 7.58586 9.42207 7.26334 8.34859 6.5585H14.7045H17.1387C17.3821 6.5585 17.7066 6.5585 17.7066 6.84543C17.7066 7.13237 17.4632 7.29633 17.1927 7.33732ZM37.9644 27.8326C37.1976 28.2816 36.3609 28.3813 35.5572 28.1196C35.3679 28.1196 35.3409 27.7096 35.5572 27.6687C36.3847 27.5461 37.218 27.5461 38.0455 27.6687C38.0455 27.6687 37.9914 27.7506 37.8562 27.7916L37.9644 27.8326ZM37.4505 9.1819C37.153 9.1819 36.7743 9.1819 36.7473 8.81298C36.7202 8.44407 37.0989 8.40307 37.3693 8.36208C38.1652 8.15212 38.9845 8.35426 39.6953 8.93595L37.4505 9.1819ZM42.2918 27.7506C44.3226 26.4708 46.5913 26.3543 48.6747 27.4227C46.5613 27.8878 44.4197 27.984 42.2918 27.7097V27.7506ZM241.137 24.8403C241.461 24.8403 241.759 24.8403 241.786 25.2912C241.813 25.7421 241.515 25.6601 241.299 25.7421C240.74 26 240.147 26.049 239.573 25.8848C238.998 25.7206 238.458 25.3482 237.999 24.7993L241.137 24.8403ZM60.9267 27.6277C60.0165 27.8215 59.0889 27.681 58.2221 27.2178C59.0318 26.748 59.8995 26.5522 60.7644 26.6439C61.116 26.6439 61.5488 26.6439 61.5217 27.0538C61.4947 27.4637 61.3054 27.5457 60.9267 27.5867V27.6277ZM63.3338 27.1768V26.8488C63.849 26.7461 64.3729 26.8595 64.8484 27.1768C64.6073 27.3259 64.3487 27.3992 64.0884 27.3922C63.828 27.3851 63.5713 27.2979 63.3338 27.1358V27.1768ZM62.1979 8.19812C64.5304 7.62237 66.8972 7.42996 69.257 7.62425C70.0992 7.42178 70.9572 7.42178 71.7994 7.62425C72.0698 7.62425 72.4214 7.8702 72.3403 8.19812C72.2591 8.52605 71.8805 8.44406 71.583 8.48506C70.7811 8.5473 69.9777 8.5473 69.1759 8.48506C66.8482 8.5905 64.5184 8.4947 62.1979 8.19812V8.19812ZM78.4257 27.4637C75.5858 27.7096 72.746 27.0948 69.9061 27.4637C69.5816 27.4637 69.4193 27.4637 69.3652 27.0948C69.3111 26.7259 69.5275 26.6849 69.825 26.6849C72.6888 26.3976 75.5619 26.3976 78.4257 26.6849C78.8298 26.6982 79.2233 26.8828 79.5617 27.2178C79.2161 27.5093 78.8178 27.6243 78.4257 27.5457V27.4637ZM81.1304 27.0128C82.346 26.3561 83.6741 26.3561 84.8898 27.0128C83.5916 27.7916 83.5645 27.7916 81.1304 27.0948V27.0128ZM95.1945 8.56704C94.1937 8.32109 93.4094 9.09991 92.3005 8.85397C90.3626 8.49774 88.4084 8.38805 86.4585 8.52605C85.4037 8.52605 84.4571 8.19812 83.4293 8.52605C86.6354 7.68508 89.9029 7.51956 93.1389 8.03416C93.7069 8.03416 94.329 8.03416 94.951 8.03416C95.1113 8.06014 95.2624 8.16033 95.3838 8.32109C95.3838 8.32109 95.1404 8.64902 95.0863 8.64902L95.1945 8.56704ZM98.413 8.56704C101.317 7.72729 104.299 7.72729 107.203 8.56704C104.253 9.18252 101.265 9.25135 98.3048 8.77199L98.413 8.56704Z" fill="#FFBE00" fill-opacity="0.5"/>
</svg>