<svg xmlns="http://www.w3.org/2000/svg" width="571" height="671" viewBox="0 0 571 671" fill="none">
<path d="M282 106.753V0.125977C340.266 0.125977 387.5 47.8645 387.5 106.753C387.5 138.271 373.703 168.175 349.814 188.434L282 106.753Z" fill="#003282"/>
<path d="M282 106.753L349.814 188.434C305.18 226.287 238.635 220.403 201.183 175.291C197.235 170.536 193.706 165.442 190.635 160.066L282 106.753Z" fill="#5069F5"/>
<path d="M282 106.753L190.635 160.066C178.233 138.357 173.796 112.925 178.103 88.2373L282 106.753Z" fill="#FFBE00"/>
<path d="M282.001 106.753L178.104 88.2377C182.411 63.5503 195.186 41.1859 214.187 25.0723L282.001 106.753Z" fill="#FFF100"/>
<path d="M282 106.753L214.186 25.072C233.186 8.95837 257.196 0.125977 282 0.125977V106.753Z" fill="#6DD400"/>
<circle cx="282" cy="106.754" r="66.008" fill="white"/>
<path d="M258.338 89.4056C256.914 88.6216 256.202 87.3976 256.202 85.7336C256.202 84.8696 256.426 84.0856 256.874 83.3816C257.338 82.6616 258.034 82.0936 258.962 81.6776C259.89 81.2456 261.034 81.0296 262.394 81.0296C263.754 81.0296 264.898 81.2456 265.826 81.6776C266.754 82.0936 267.442 82.6616 267.89 83.3816C268.354 84.0856 268.586 84.8696 268.586 85.7336C268.586 86.5816 268.394 87.3176 268.01 87.9416C267.642 88.5496 267.122 89.0376 266.45 89.4056C267.282 89.8376 267.914 90.4136 268.346 91.1336C268.778 91.8536 268.994 92.7016 268.994 93.6776C268.994 94.8456 268.698 95.8536 268.106 96.7016C267.514 97.5336 266.714 98.1656 265.706 98.5976C264.714 99.0296 263.61 99.2456 262.394 99.2456C261.178 99.2456 260.066 99.0296 259.058 98.5976C258.066 98.1656 257.274 97.5336 256.682 96.7016C256.09 95.8536 255.794 94.8456 255.794 93.6776C255.794 92.7016 256.01 91.8536 256.442 91.1336C256.874 90.4136 257.506 89.8376 258.338 89.4056ZM263.978 86.4776C263.978 85.9176 263.834 85.4856 263.546 85.1816C263.258 84.8616 262.874 84.7016 262.394 84.7016C261.93 84.7016 261.546 84.8616 261.242 85.1816C260.954 85.5016 260.81 85.9336 260.81 86.4776C260.81 87.0216 260.954 87.4456 261.242 87.7496C261.546 88.0536 261.93 88.2056 262.394 88.2056C262.858 88.2056 263.234 88.0536 263.522 87.7496C263.826 87.4456 263.978 87.0216 263.978 86.4776ZM262.394 91.4216C261.786 91.4216 261.29 91.6056 260.906 91.9736C260.538 92.3256 260.354 92.8056 260.354 93.4136C260.354 93.9896 260.538 94.4616 260.906 94.8296C261.274 95.1976 261.77 95.3816 262.394 95.3816C263.018 95.3816 263.506 95.1976 263.858 94.8296C264.226 94.4616 264.41 93.9896 264.41 93.4136C264.41 92.8056 264.226 92.3256 263.858 91.9736C263.49 91.6056 263.002 91.4216 262.394 91.4216ZM271.042 95.1656C272.594 93.9496 273.866 92.9016 274.858 92.0216C275.85 91.1416 276.682 90.2376 277.354 89.3096C278.026 88.3656 278.362 87.4696 278.362 86.6216C278.362 86.1096 278.242 85.7096 278.002 85.4216C277.778 85.1336 277.442 84.9896 276.994 84.9896C276.53 84.9896 276.17 85.1896 275.914 85.5896C275.658 85.9736 275.538 86.5416 275.554 87.2936H270.994C271.042 85.8696 271.354 84.6936 271.93 83.7656C272.506 82.8216 273.258 82.1336 274.186 81.7016C275.114 81.2536 276.146 81.0296 277.282 81.0296C279.25 81.0296 280.714 81.5176 281.674 82.4936C282.634 83.4696 283.114 84.7336 283.114 86.2856C283.114 87.9496 282.554 89.5096 281.434 90.9656C280.33 92.4216 278.946 93.7256 277.282 94.8776H283.282V98.6936H271.042V95.1656ZM284.346 85.8056V81.3896H291.738V98.9336H286.818V85.8056H284.346ZM302.459 86.4296C302.347 85.8856 302.163 85.4856 301.907 85.2296C301.651 84.9736 301.275 84.8456 300.779 84.8456C300.027 84.8456 299.499 85.1976 299.195 85.9016C298.907 86.6056 298.755 87.7096 298.739 89.2136C299.059 88.7176 299.523 88.3256 300.131 88.0376C300.739 87.7496 301.411 87.6056 302.147 87.6056C303.699 87.6056 304.939 88.0856 305.867 89.0456C306.811 90.0056 307.283 91.3816 307.283 93.1736C307.283 94.3576 307.035 95.3976 306.539 96.2936C306.059 97.1736 305.355 97.8536 304.427 98.3336C303.515 98.8136 302.435 99.0536 301.187 99.0536C298.707 99.0536 296.979 98.2856 296.003 96.7496C295.043 95.1976 294.563 93.0056 294.563 90.1736C294.563 87.0376 295.075 84.7336 296.099 83.2616C297.123 81.7896 298.771 81.0536 301.043 81.0536C302.883 81.0536 304.275 81.5736 305.219 82.6136C306.179 83.6376 306.715 84.9096 306.827 86.4296H302.459ZM300.995 91.2536C300.435 91.2536 299.971 91.4136 299.603 91.7336C299.251 92.0536 299.075 92.5096 299.075 93.1016C299.075 93.7256 299.243 94.2056 299.579 94.5416C299.915 94.8776 300.395 95.0456 301.019 95.0456C301.595 95.0456 302.043 94.8856 302.363 94.5656C302.699 94.2296 302.867 93.7576 302.867 93.1496C302.867 92.5576 302.699 92.0936 302.363 91.7576C302.043 91.4216 301.587 91.2536 300.995 91.2536ZM251.273 114.014L245.441 130.934H239.417L233.561 114.014H238.601L242.441 126.23L246.257 114.014H251.273ZM255.115 116.222C254.283 116.222 253.611 115.998 253.099 115.55C252.603 115.086 252.355 114.51 252.355 113.822C252.355 113.118 252.603 112.534 253.099 112.07C253.611 111.606 254.283 111.374 255.115 111.374C255.931 111.374 256.587 111.606 257.083 112.07C257.595 112.534 257.851 113.118 257.851 113.822C257.851 114.51 257.595 115.086 257.083 115.55C256.587 115.998 255.931 116.222 255.115 116.222ZM257.443 117.47V130.934H252.739V117.47H257.443ZM265.857 131.102C264.641 131.102 263.553 130.902 262.593 130.502C261.649 130.086 260.897 129.526 260.337 128.822C259.793 128.102 259.489 127.294 259.425 126.398H263.985C264.049 126.83 264.249 127.166 264.585 127.406C264.921 127.646 265.337 127.766 265.833 127.766C266.217 127.766 266.521 127.686 266.745 127.526C266.969 127.366 267.081 127.158 267.081 126.902C267.081 126.566 266.897 126.318 266.529 126.158C266.161 125.998 265.553 125.822 264.705 125.63C263.745 125.438 262.945 125.222 262.305 124.982C261.665 124.742 261.105 124.35 260.625 123.806C260.161 123.262 259.929 122.526 259.929 121.598C259.929 120.798 260.145 120.078 260.577 119.438C261.009 118.782 261.641 118.262 262.473 117.878C263.321 117.494 264.337 117.302 265.521 117.302C267.281 117.302 268.665 117.734 269.673 118.598C270.681 119.462 271.265 120.598 271.425 122.006H267.177C267.097 121.574 266.905 121.246 266.601 121.022C266.313 120.782 265.921 120.662 265.425 120.662C265.041 120.662 264.745 120.734 264.537 120.878C264.345 121.022 264.249 121.222 264.249 121.478C264.249 121.798 264.433 122.046 264.801 122.222C265.169 122.382 265.761 122.55 266.577 122.726C267.553 122.934 268.361 123.166 269.001 123.422C269.657 123.678 270.225 124.094 270.705 124.67C271.201 125.23 271.449 125.998 271.449 126.974C271.449 127.758 271.217 128.462 270.753 129.086C270.305 129.71 269.657 130.206 268.809 130.574C267.977 130.926 266.993 131.102 265.857 131.102ZM276.138 116.222C275.306 116.222 274.634 115.998 274.122 115.55C273.626 115.086 273.378 114.51 273.378 113.822C273.378 113.118 273.626 112.534 274.122 112.07C274.634 111.606 275.306 111.374 276.138 111.374C276.954 111.374 277.61 111.606 278.106 112.07C278.618 112.534 278.874 113.118 278.874 113.822C278.874 114.51 278.618 115.086 278.106 115.55C277.61 115.998 276.954 116.222 276.138 116.222ZM278.466 117.47V130.934H273.762V117.47H278.466ZM289.089 126.926V130.934H287.049C283.609 130.934 281.889 129.23 281.889 125.822V121.382H280.233V117.47H281.889V114.206H286.617V117.47H289.065V121.382H286.617V125.894C286.617 126.262 286.697 126.526 286.857 126.686C287.033 126.846 287.321 126.926 287.721 126.926H289.089ZM297.51 131.102C296.166 131.102 294.958 130.822 293.886 130.262C292.83 129.702 291.998 128.902 291.39 127.862C290.782 126.822 290.478 125.598 290.478 124.19C290.478 122.798 290.782 121.582 291.39 120.542C292.014 119.502 292.854 118.702 293.91 118.142C294.982 117.582 296.19 117.302 297.534 117.302C298.878 117.302 300.078 117.582 301.134 118.142C302.206 118.702 303.046 119.502 303.654 120.542C304.278 121.582 304.59 122.798 304.59 124.19C304.59 125.582 304.278 126.806 303.654 127.862C303.046 128.902 302.206 129.702 301.134 130.262C300.062 130.822 298.854 131.102 297.51 131.102ZM297.51 127.022C298.166 127.022 298.71 126.782 299.142 126.302C299.59 125.806 299.814 125.102 299.814 124.19C299.814 123.278 299.59 122.582 299.142 122.102C298.71 121.622 298.174 121.382 297.534 121.382C296.894 121.382 296.358 121.622 295.926 122.102C295.494 122.582 295.278 123.278 295.278 124.19C295.278 125.118 295.486 125.822 295.902 126.302C296.318 126.782 296.854 127.022 297.51 127.022ZM311.208 119.846C311.736 119.078 312.376 118.47 313.128 118.022C313.88 117.574 314.688 117.35 315.552 117.35V122.366H314.232C313.208 122.366 312.448 122.566 311.952 122.966C311.456 123.366 311.208 124.062 311.208 125.054V130.934H306.504V117.47H311.208V119.846ZM322.975 131.102C321.759 131.102 320.671 130.902 319.711 130.502C318.767 130.086 318.015 129.526 317.455 128.822C316.911 128.102 316.607 127.294 316.543 126.398H321.103C321.167 126.83 321.367 127.166 321.703 127.406C322.039 127.646 322.455 127.766 322.951 127.766C323.335 127.766 323.639 127.686 323.863 127.526C324.087 127.366 324.199 127.158 324.199 126.902C324.199 126.566 324.015 126.318 323.647 126.158C323.279 125.998 322.671 125.822 321.823 125.63C320.863 125.438 320.063 125.222 319.423 124.982C318.783 124.742 318.223 124.35 317.743 123.806C317.279 123.262 317.047 122.526 317.047 121.598C317.047 120.798 317.263 120.078 317.695 119.438C318.127 118.782 318.759 118.262 319.591 117.878C320.439 117.494 321.455 117.302 322.639 117.302C324.399 117.302 325.783 117.734 326.791 118.598C327.799 119.462 328.383 120.598 328.543 122.006H324.295C324.215 121.574 324.023 121.246 323.719 121.022C323.431 120.782 323.039 120.662 322.543 120.662C322.159 120.662 321.863 120.734 321.655 120.878C321.463 121.022 321.367 121.222 321.367 121.478C321.367 121.798 321.551 122.046 321.919 122.222C322.287 122.382 322.879 122.55 323.695 122.726C324.671 122.934 325.479 123.166 326.119 123.422C326.775 123.678 327.343 124.094 327.823 124.67C328.319 125.23 328.567 125.998 328.567 126.974C328.567 127.758 328.335 128.462 327.871 129.086C327.423 129.71 326.775 130.206 325.927 130.574C325.095 130.926 324.111 131.102 322.975 131.102Z" fill="#002855"/>
<g filter="url(#filter0_d_11212_33446)">
<rect x="24" y="583.934" width="522.855" height="58.4021" rx="7.43828" fill="white"/>
<mask id="mask0_11212_33446" style="mask-type:alpha" maskUnits="userSpaceOnUse" x="153" y="596" width="49" height="34">
<path d="M153.24 596.37H201.24V629.9H153.24V596.37Z" fill="white"/>
</mask>
<g mask="url(#mask0_11212_33446)">
<path fill-rule="evenodd" clip-rule="evenodd" d="M173.171 600.04C174.72 598.427 176.877 597.429 179.259 597.429C182.436 597.429 185.189 599.193 186.671 601.823C187.987 601.234 189.412 600.931 190.853 600.931C196.571 600.931 201.212 605.608 201.212 611.379C201.212 617.149 196.571 621.826 190.853 621.826C190.155 621.826 189.473 621.755 188.806 621.623C187.509 623.934 185.03 625.505 182.206 625.505C181.057 625.507 179.922 625.247 178.889 624.743C177.574 627.831 174.512 630.002 170.948 630.002C167.224 630.002 164.065 627.654 162.848 624.354C162.306 624.469 161.753 624.526 161.199 624.526C156.77 624.526 153.188 620.891 153.188 616.426C153.188 613.426 154.8 610.814 157.193 609.402C156.686 608.233 156.424 606.971 156.426 605.697C156.426 600.544 160.608 596.379 165.761 596.379C168.779 596.379 171.479 597.817 173.173 600.049" fill="#00A1E0"/>
<path fill-rule="evenodd" clip-rule="evenodd" d="M160.182 613.805C160.152 613.884 160.193 613.901 160.202 613.915C160.292 613.98 160.384 614.027 160.476 614.08C160.966 614.34 161.429 614.416 161.912 614.416C162.897 614.416 163.509 613.891 163.509 613.048V613.031C163.509 612.251 162.818 611.967 162.172 611.764L162.087 611.737C161.598 611.578 161.177 611.44 161.177 611.119V611.103C161.177 610.828 161.424 610.625 161.805 610.625C162.228 610.625 162.733 610.766 163.056 610.944C163.056 610.944 163.152 611.006 163.186 610.913C163.205 610.864 163.37 610.423 163.388 610.373C163.406 610.322 163.373 610.283 163.34 610.263C162.969 610.037 162.457 609.883 161.928 609.883L161.83 609.884C160.928 609.884 160.298 610.429 160.298 611.209V611.226C160.298 612.048 160.993 612.316 161.643 612.502L161.747 612.534C162.22 612.679 162.629 612.806 162.629 613.138V613.154C162.629 613.459 162.363 613.687 161.936 613.687C161.77 613.687 161.241 613.684 160.667 613.322C160.598 613.281 160.558 613.252 160.505 613.22C160.477 613.202 160.406 613.172 160.375 613.264L160.181 613.804L160.182 613.805ZM174.599 613.804C174.569 613.883 174.61 613.899 174.62 613.913C174.709 613.978 174.801 614.026 174.893 614.079C175.384 614.338 175.846 614.414 176.33 614.414C177.314 614.414 177.927 613.89 177.927 613.046V613.03C177.927 612.25 177.237 611.966 176.589 611.763L176.504 611.735C176.016 611.577 175.594 611.439 175.594 611.118V611.101C175.594 610.826 175.841 610.623 176.222 610.623C176.646 610.623 177.149 610.764 177.473 610.943C177.473 610.943 177.569 611.004 177.604 610.912C177.623 610.862 177.787 610.421 177.803 610.372C177.822 610.32 177.789 610.281 177.756 610.261C177.385 610.035 176.873 609.882 176.344 609.882L176.245 609.882C175.344 609.882 174.714 610.427 174.714 611.207V611.224C174.714 612.047 175.409 612.315 176.058 612.5L176.163 612.533C176.637 612.678 177.045 612.804 177.045 613.136V613.153C177.045 613.458 176.779 613.686 176.351 613.686C176.185 613.686 175.654 613.683 175.083 613.32C175.013 613.28 174.973 613.252 174.92 613.218C174.902 613.207 174.819 613.174 174.791 613.263L174.597 613.803L174.599 613.804ZM184.444 612.151C184.444 612.627 184.355 613.003 184.181 613.27C184.007 613.533 183.745 613.661 183.38 613.661C183.014 613.661 182.753 613.534 182.582 613.271C182.41 613.007 182.323 612.629 182.323 612.153C182.323 611.676 182.41 611.302 182.582 611.039C182.753 610.778 183.013 610.653 183.38 610.653C183.747 610.653 184.008 610.779 184.181 611.039C184.356 611.302 184.444 611.676 184.444 612.153V612.151ZM185.266 611.269C185.185 610.995 185.06 610.755 184.892 610.554C184.724 610.353 184.513 610.19 184.26 610.074C184.01 609.956 183.713 609.897 183.378 609.897C183.043 609.897 182.748 609.957 182.495 610.074C182.245 610.191 182.031 610.353 181.864 610.554C181.696 610.755 181.571 610.995 181.49 611.269C181.409 611.54 181.369 611.837 181.369 612.153C181.369 612.469 181.409 612.765 181.49 613.037C181.57 613.31 181.696 613.55 181.864 613.751C182.032 613.953 182.245 614.113 182.495 614.228C182.748 614.342 183.044 614.401 183.378 614.401C183.711 614.401 184.008 614.342 184.258 614.228C184.509 614.114 184.723 613.953 184.89 613.751C185.058 613.55 185.183 613.31 185.264 613.037C185.344 612.765 185.385 612.469 185.385 612.153C185.385 611.839 185.344 611.54 185.264 611.269H185.266ZM192.023 613.527C191.996 613.447 191.918 613.478 191.918 613.478C191.799 613.523 191.671 613.566 191.535 613.587C191.398 613.608 191.246 613.619 191.085 613.619C190.688 613.619 190.37 613.501 190.145 613.266C189.917 613.031 189.79 612.654 189.792 612.142C189.793 611.676 189.905 611.327 190.108 611.059C190.307 610.794 190.614 610.656 191.02 610.656C191.359 610.656 191.618 610.696 191.89 610.781C191.89 610.781 191.954 610.809 191.985 610.724C192.057 610.524 192.111 610.381 192.188 610.163C192.21 610.1 192.156 610.073 192.137 610.066C192.03 610.024 191.779 609.956 191.588 609.927C191.41 609.9 191.203 609.886 190.97 609.886C190.624 609.886 190.317 609.945 190.054 610.062C189.791 610.179 189.569 610.341 189.393 610.542C189.216 610.743 189.082 610.983 188.992 611.257C188.903 611.529 188.858 611.827 188.858 612.143C188.858 612.824 189.041 613.376 189.405 613.78C189.769 614.186 190.316 614.391 191.029 614.391C191.45 614.391 191.883 614.306 192.193 614.183C192.193 614.183 192.253 614.154 192.227 614.085L192.024 613.527H192.023ZM193.462 611.692C193.501 611.427 193.574 611.207 193.688 611.036C193.859 610.774 194.119 610.631 194.484 610.631C194.849 610.631 195.091 610.775 195.264 611.036C195.379 611.208 195.429 611.436 195.447 611.692L193.453 611.692L193.462 611.692ZM196.233 611.11C196.163 610.847 195.989 610.58 195.876 610.459C195.696 610.266 195.521 610.13 195.347 610.056C195.095 609.949 194.823 609.894 194.549 609.894C194.201 609.894 193.886 609.953 193.63 610.073C193.374 610.193 193.159 610.357 192.989 610.561C192.82 610.766 192.693 611.008 192.611 611.285C192.53 611.558 192.489 611.858 192.489 612.173C192.489 612.494 192.532 612.792 192.616 613.062C192.7 613.334 192.836 613.572 193.02 613.77C193.203 613.969 193.438 614.124 193.72 614.234C194.001 614.342 194.341 614.399 194.731 614.397C195.536 614.395 195.96 614.216 196.133 614.119C196.163 614.101 196.193 614.071 196.156 613.985L195.974 613.475C195.947 613.399 195.87 613.427 195.87 613.427C195.67 613.501 195.388 613.635 194.726 613.633C194.294 613.633 193.974 613.505 193.773 613.305C193.568 613.1 193.466 612.802 193.45 612.379L196.238 612.381C196.238 612.381 196.312 612.38 196.319 612.308C196.322 612.279 196.415 611.737 196.236 611.11L196.233 611.11ZM171.174 611.692C171.213 611.427 171.286 611.207 171.4 611.036C171.571 610.774 171.83 610.631 172.196 610.631C172.561 610.631 172.803 610.775 172.976 611.036C173.09 611.208 173.14 611.436 173.159 611.692L171.165 611.692L171.174 611.692ZM173.944 611.11C173.875 610.847 173.701 610.58 173.588 610.459C173.408 610.266 173.233 610.13 173.059 610.056C172.806 609.949 172.535 609.894 172.261 609.894C171.913 609.894 171.597 609.953 171.341 610.073C171.086 610.193 170.87 610.357 170.701 610.561C170.532 610.766 170.404 611.008 170.323 611.285C170.242 611.558 170.201 611.858 170.201 612.173C170.201 612.494 170.244 612.792 170.328 613.062C170.412 613.334 170.548 613.572 170.73 613.77C170.914 613.969 171.148 614.124 171.431 614.234C171.711 614.342 172.05 614.399 172.442 614.397C173.247 614.395 173.67 614.216 173.843 614.119C173.874 614.101 173.903 614.071 173.867 613.985L173.685 613.475C173.657 613.399 173.58 613.427 173.58 613.427C173.38 613.501 173.098 613.635 172.436 613.633C172.006 613.633 171.685 613.505 171.483 613.305C171.279 613.1 171.176 612.802 171.16 612.379L173.949 612.381C173.949 612.381 174.022 612.38 174.03 612.308C174.033 612.279 174.125 611.737 173.946 611.11L173.944 611.11ZM165.156 613.51C165.047 613.423 165.032 613.401 164.996 613.345C164.94 613.259 164.912 613.138 164.912 612.983C164.912 612.739 164.993 612.563 165.161 612.445C165.159 612.445 165.401 612.236 165.969 612.243C166.222 612.248 166.474 612.269 166.724 612.308V613.573H166.725C166.725 613.573 166.372 613.649 165.973 613.673C165.407 613.707 165.156 613.51 165.158 613.511L165.156 613.51ZM166.264 611.551C166.151 611.543 166.005 611.539 165.83 611.539C165.592 611.539 165.361 611.568 165.146 611.626C164.929 611.685 164.733 611.776 164.565 611.896C164.397 612.016 164.259 612.173 164.161 612.355C164.062 612.539 164.012 612.754 164.012 612.998C164.012 613.245 164.055 613.458 164.14 613.633C164.223 613.806 164.347 613.956 164.503 614.069C164.658 614.181 164.849 614.265 165.07 614.314C165.288 614.364 165.535 614.389 165.807 614.389C166.093 614.389 166.377 614.365 166.652 614.319C166.887 614.278 167.121 614.233 167.353 614.183C167.446 614.161 167.549 614.133 167.549 614.133C167.618 614.116 167.612 614.042 167.612 614.042L167.611 611.501C167.611 610.943 167.462 610.529 167.168 610.273C166.875 610.017 166.446 609.888 165.89 609.888C165.682 609.888 165.345 609.916 165.144 609.957C165.144 609.957 164.537 610.075 164.286 610.271C164.286 610.271 164.231 610.305 164.261 610.381L164.459 610.911C164.483 610.979 164.55 610.956 164.55 610.956C164.55 610.956 164.571 610.948 164.596 610.933C165.131 610.642 165.808 610.651 165.808 610.651C166.108 610.651 166.341 610.712 166.496 610.831C166.648 610.947 166.726 611.124 166.726 611.494V611.612C166.488 611.577 166.267 611.557 166.267 611.557L166.264 611.551ZM188.676 610.116C188.68 610.107 188.682 610.097 188.682 610.087C188.682 610.077 188.68 610.067 188.677 610.057C188.673 610.048 188.667 610.039 188.66 610.032C188.652 610.025 188.644 610.02 188.634 610.016C188.587 609.998 188.35 609.948 188.168 609.937C187.819 609.915 187.625 609.974 187.45 610.052C187.278 610.13 187.087 610.255 186.981 610.4L186.98 610.061C186.98 610.014 186.947 609.977 186.901 609.977H186.188C186.141 609.977 186.108 610.014 186.108 610.061V614.208C186.108 614.23 186.117 614.252 186.133 614.268C186.148 614.284 186.17 614.292 186.192 614.293H186.923C186.945 614.292 186.967 614.284 186.983 614.268C186.998 614.252 187.007 614.23 187.007 614.208V612.126C187.007 611.847 187.038 611.57 187.099 611.395C187.16 611.222 187.242 611.084 187.343 610.986C187.439 610.89 187.557 610.819 187.687 610.779C187.809 610.744 187.934 610.727 188.061 610.727C188.207 610.727 188.366 610.764 188.366 610.764C188.42 610.77 188.45 610.737 188.468 610.689C188.516 610.562 188.651 610.181 188.678 610.105" fill="#FFFFFE"/>
<path fill-rule="evenodd" clip-rule="evenodd" d="M181.855 608.203C181.765 608.176 181.673 608.154 181.58 608.138C181.455 608.117 181.328 608.107 181.202 608.109C180.698 608.109 180.301 608.251 180.023 608.532C179.746 608.811 179.558 609.235 179.463 609.794L179.429 609.983H178.797C178.797 609.983 178.72 609.98 178.704 610.064L178.6 610.643C178.593 610.698 178.617 610.733 178.691 610.732H179.306L178.682 614.216C178.633 614.497 178.577 614.728 178.515 614.903C178.454 615.075 178.394 615.205 178.321 615.298C178.25 615.389 178.182 615.456 178.066 615.495C177.97 615.528 177.86 615.542 177.738 615.542C177.671 615.542 177.581 615.531 177.515 615.518C177.449 615.505 177.415 615.49 177.365 615.469C177.365 615.469 177.293 615.442 177.264 615.514C177.241 615.573 177.077 616.024 177.058 616.08C177.038 616.135 177.066 616.178 177.101 616.191C177.183 616.22 177.244 616.239 177.355 616.265C177.51 616.302 177.641 616.304 177.763 616.304C178.019 616.304 178.253 616.268 178.446 616.198C178.641 616.128 178.811 616.005 178.961 615.839C179.123 615.66 179.225 615.472 179.322 615.216C179.419 614.963 179.501 614.648 179.567 614.281L180.194 610.732H181.111C181.111 610.732 181.188 610.735 181.205 610.651L181.308 610.072C181.316 610.017 181.292 609.982 181.217 609.983H180.327C180.332 609.963 180.372 609.65 180.474 609.355C180.518 609.229 180.6 609.128 180.67 609.058C180.735 608.992 180.814 608.942 180.903 608.913C180.999 608.883 181.1 608.868 181.202 608.87C181.285 608.87 181.368 608.88 181.43 608.893C181.517 608.911 181.55 608.921 181.573 608.928C181.663 608.955 181.676 608.929 181.693 608.885L181.906 608.3C181.928 608.237 181.875 608.211 181.855 608.203ZM169.418 614.224C169.418 614.27 169.385 614.308 169.339 614.308H168.6C168.554 614.308 168.521 614.27 168.521 614.224V608.282C168.521 608.236 168.554 608.198 168.6 608.198H169.339C169.385 608.198 169.418 608.236 169.418 608.282V614.224Z" fill="#FFFFFE"/>
</g>
<path d="M237.578 613.135C237.578 617.759 240.265 621.755 244.162 623.649L238.59 608.381C237.941 609.834 237.578 611.441 237.578 613.135Z" fill="#464342"/>
<path d="M257.146 612.545C257.146 611.101 256.627 610.102 256.182 609.323C255.59 608.361 255.035 607.546 255.035 606.584C255.035 605.51 255.85 604.51 256.997 604.51C257.049 604.51 257.098 604.517 257.148 604.52C255.07 602.616 252.301 601.453 249.26 601.453C245.178 601.453 241.588 603.547 239.499 606.719C239.773 606.727 240.031 606.733 240.251 606.733C241.473 606.733 243.364 606.584 243.364 606.584C243.994 606.547 244.068 607.472 243.439 607.547C243.439 607.547 242.806 607.621 242.102 607.658L246.356 620.312L248.913 612.644L247.092 607.658C246.463 607.621 245.867 607.546 245.867 607.546C245.238 607.509 245.312 606.547 245.941 606.584C245.941 606.584 247.87 606.732 249.018 606.732C250.24 606.732 252.132 606.584 252.132 606.584C252.762 606.547 252.836 607.472 252.207 607.546C252.207 607.546 251.572 607.621 250.87 607.658L255.091 620.215L256.256 616.322C256.761 614.706 257.146 613.545 257.146 612.545Z" fill="#464342"/>
<path d="M249.466 614.155L245.961 624.34C247.007 624.648 248.114 624.816 249.261 624.816C250.621 624.816 251.926 624.581 253.14 624.154C253.109 624.104 253.08 624.051 253.057 623.993L249.466 614.155Z" fill="#464342"/>
<path d="M259.511 607.529C259.561 607.901 259.589 608.301 259.589 608.731C259.589 609.916 259.368 611.249 258.701 612.915L255.133 623.232C258.606 621.206 260.942 617.444 260.942 613.134C260.942 611.103 260.423 609.193 259.511 607.529Z" fill="#464342"/>
<path d="M249.26 599.518C241.752 599.518 235.643 605.626 235.643 613.135C235.643 620.644 241.752 626.753 249.26 626.753C256.768 626.753 262.878 620.644 262.878 613.135C262.878 605.626 256.768 599.518 249.26 599.518ZM249.26 626.128C242.096 626.128 236.267 620.299 236.267 613.135C236.267 605.97 242.096 600.142 249.26 600.142C256.424 600.142 262.253 605.97 262.253 613.135C262.253 620.299 256.424 626.128 249.26 626.128Z" fill="#464342"/>
<g clip-path="url(#clip0_11212_33446)">
<path d="M319.261 604.431C319.242 604.288 319.116 604.208 319.012 604.2C318.908 604.191 316.715 604.029 316.715 604.029C316.715 604.029 315.192 602.517 315.025 602.35C314.858 602.183 314.531 602.233 314.404 602.271C314.386 602.276 314.071 602.373 313.552 602.534C313.043 601.07 312.145 599.726 310.565 599.726C310.522 599.726 310.477 599.727 310.432 599.73C309.983 599.136 309.426 598.878 308.945 598.878C305.266 598.878 303.507 603.476 302.956 605.813C301.526 606.256 300.51 606.571 300.381 606.611C299.583 606.862 299.557 606.887 299.452 607.638C299.374 608.208 297.285 624.351 297.285 624.351L313.559 627.399L322.376 625.492C322.376 625.492 319.281 604.574 319.261 604.431H319.261ZM312.652 602.812L311.275 603.238C311.276 603.141 311.276 603.045 311.276 602.941C311.276 602.032 311.15 601.299 310.947 600.719C311.761 600.821 312.304 601.747 312.652 602.812ZM309.938 600.899C310.164 601.466 310.311 602.279 310.311 603.377C310.311 603.433 310.311 603.484 310.31 603.536C309.415 603.814 308.442 604.115 307.466 604.417C308.014 602.304 309.04 601.284 309.938 600.899ZM308.844 599.865C309.003 599.865 309.163 599.918 309.316 600.024C308.137 600.578 306.873 601.976 306.339 604.766L304.091 605.461C304.716 603.333 306.201 599.865 308.844 599.865H308.844Z" fill="#95BF46"/>
<path d="M319.013 604.199C318.91 604.19 316.716 604.028 316.716 604.028C316.716 604.028 315.193 602.516 315.026 602.349C314.964 602.287 314.879 602.255 314.791 602.241L313.561 627.398L322.377 625.492C322.377 625.492 319.282 604.574 319.262 604.43C319.243 604.287 319.117 604.208 319.013 604.199Z" fill="#5E8E3E"/>
<path d="M310.565 609.068L309.478 612.301C309.478 612.301 308.525 611.793 307.358 611.793C305.646 611.793 305.56 612.867 305.56 613.137C305.56 614.614 309.41 615.179 309.41 618.638C309.41 621.359 307.684 623.111 305.356 623.111C302.562 623.111 301.134 621.373 301.134 621.373L301.882 618.903C301.882 618.903 303.35 620.163 304.589 620.163C305.399 620.163 305.728 619.526 305.728 619.06C305.728 617.134 302.569 617.048 302.569 613.884C302.569 611.22 304.482 608.643 308.343 608.643C309.83 608.643 310.565 609.068 310.565 609.068Z" fill="white"/>
</g>
<path d="M383.076 604.865C382.156 605.334 381.828 606.106 381.828 608.246C381.828 608.246 382.288 607.815 382.972 607.575C383.471 607.41 383.892 607.144 384.141 606.967C384.916 606.422 385.022 605.726 385.022 604.548C385.022 604.548 383.76 604.51 383.076 604.865Z" fill="#FFCB29"/>
<path d="M377.688 605.372C376.952 606.005 376.729 607.006 376.729 607.006L374.258 616.149L372.221 608.652C372.024 607.867 371.655 606.867 371.09 606.208C370.381 605.372 368.922 605.321 368.764 605.321C368.606 605.321 367.135 605.372 366.411 606.221C365.846 606.892 365.478 607.88 365.281 608.665L363.244 616.162L360.799 607.006C360.799 607.006 360.589 605.992 359.84 605.372C358.631 604.346 356.83 604.562 356.83 604.562L361.522 621.709C361.522 621.709 363.073 621.822 363.849 621.43C364.86 620.936 365.36 620.543 365.978 618.2C366.53 616.124 368.067 610.019 368.212 609.576C368.278 609.361 368.369 608.842 368.764 608.842C369.171 608.842 369.251 609.348 369.316 609.576C369.46 610.007 370.985 616.124 371.55 618.2C372.168 620.531 372.654 620.911 373.68 621.43C374.455 621.822 376.006 621.709 376.006 621.709L380.698 604.574C380.698 604.574 378.897 604.359 377.688 605.372ZM385.022 607.36C385.022 607.36 384.733 607.791 384.063 608.171C383.629 608.399 383.221 608.563 382.775 608.766C382.038 609.108 381.828 609.5 381.828 610.083V621.709C381.828 621.709 383.024 621.848 383.786 621.481C384.785 620.987 385.008 620.519 385.022 618.379V607.36ZM396.746 613.173L402.699 604.612C402.699 604.612 400.189 604.194 398.941 605.296C398.139 605.992 397.245 607.246 397.245 607.246L395.063 610.311C394.945 610.463 394.827 610.641 394.603 610.641C394.38 610.641 394.235 610.476 394.143 610.311L391.935 607.259C391.935 607.259 391.055 606.005 390.24 605.309C389.004 604.207 386.481 604.624 386.481 604.624L392.448 613.161L386.481 621.684C386.481 621.684 389.11 622.013 390.345 620.911C391.147 620.215 391.922 619.062 391.922 619.062L394.104 616.01C394.222 615.858 394.34 615.681 394.564 615.681C394.787 615.681 394.931 615.845 395.024 616.01L397.205 619.062C397.205 619.062 398.02 620.189 398.809 620.911C400.044 622.013 402.634 621.684 402.634 621.684L396.746 613.173Z" fill="#2E3133"/>
<path d="M437.816 613.857C437.816 613.024 437.979 612.295 438.307 611.671C438.644 611.036 439.105 610.55 439.69 610.213C440.285 609.866 440.955 609.692 441.698 609.692C442.472 609.692 443.136 609.87 443.692 610.228C444.257 610.585 444.664 611.041 444.912 611.596V609.811H445.953V617.934H444.912V616.134C444.654 616.689 444.242 617.15 443.677 617.517C443.122 617.874 442.457 618.053 441.684 618.053C440.95 618.053 440.285 617.879 439.69 617.532C439.105 617.185 438.644 616.694 438.307 616.059C437.979 615.424 437.816 614.691 437.816 613.857ZM444.912 613.872C444.912 613.218 444.778 612.642 444.51 612.147C444.242 611.651 443.875 611.269 443.409 611.001C442.953 610.733 442.447 610.599 441.892 610.599C441.317 610.599 440.801 610.728 440.345 610.986C439.888 611.244 439.526 611.621 439.259 612.117C439.001 612.603 438.872 613.183 438.872 613.857C438.872 614.522 439.001 615.107 439.259 615.613C439.526 616.109 439.888 616.491 440.345 616.758C440.801 617.016 441.317 617.145 441.892 617.145C442.447 617.145 442.953 617.011 443.409 616.743C443.875 616.476 444.242 616.094 444.51 615.598C444.778 615.102 444.912 614.527 444.912 613.872ZM452.139 609.662C453.111 609.662 453.904 609.965 454.519 610.57C455.134 611.165 455.441 612.033 455.441 613.173V617.934H454.415V613.292C454.415 612.409 454.192 611.735 453.746 611.269C453.309 610.803 452.709 610.57 451.945 610.57C451.162 610.57 450.537 610.818 450.071 611.314C449.605 611.809 449.372 612.538 449.372 613.5V617.934H448.33V609.811H449.372V611.195C449.63 610.699 450.002 610.322 450.488 610.064C450.974 609.796 451.524 609.662 452.139 609.662ZM457.268 613.857C457.268 613.024 457.437 612.295 457.774 611.671C458.111 611.036 458.573 610.55 459.158 610.213C459.753 609.866 460.422 609.692 461.166 609.692C461.88 609.692 462.525 609.866 463.1 610.213C463.675 610.56 464.097 611.011 464.365 611.566V606.925H465.406V617.934H464.365V616.119C464.117 616.684 463.71 617.15 463.145 617.517C462.579 617.874 461.915 618.053 461.151 618.053C460.407 618.053 459.738 617.879 459.143 617.532C458.558 617.185 458.097 616.694 457.759 616.059C457.432 615.424 457.268 614.691 457.268 613.857ZM464.365 613.872C464.365 613.218 464.231 612.642 463.963 612.147C463.695 611.651 463.328 611.269 462.862 611.001C462.406 610.733 461.9 610.599 461.345 610.599C460.769 610.599 460.254 610.728 459.798 610.986C459.341 611.244 458.979 611.621 458.712 612.117C458.454 612.603 458.325 613.183 458.325 613.857C458.325 614.522 458.454 615.107 458.712 615.613C458.979 616.109 459.341 616.491 459.798 616.758C460.254 617.016 460.769 617.145 461.345 617.145C461.9 617.145 462.406 617.011 462.862 616.743C463.328 616.476 463.695 616.094 463.963 615.598C464.231 615.102 464.365 614.527 464.365 613.872ZM481.535 609.662C482.488 609.662 483.261 609.965 483.856 610.57C484.461 611.165 484.764 612.033 484.764 613.173V617.934H483.737V613.292C483.737 612.409 483.524 611.735 483.097 611.269C482.671 610.803 482.091 610.57 481.357 610.57C480.593 610.57 479.983 610.823 479.527 611.328C479.071 611.834 478.843 612.568 478.843 613.53V617.934H477.816V613.292C477.816 612.409 477.603 611.735 477.177 611.269C476.75 610.803 476.165 610.57 475.421 610.57C474.657 610.57 474.048 610.823 473.591 611.328C473.135 611.834 472.907 612.568 472.907 613.53V617.934H471.866V609.811H472.907V611.209C473.165 610.704 473.532 610.322 474.008 610.064C474.484 609.796 475.015 609.662 475.6 609.662C476.304 609.662 476.919 609.831 477.444 610.168C477.98 610.505 478.367 611.001 478.605 611.656C478.823 611.011 479.195 610.52 479.72 610.183C480.256 609.836 480.861 609.662 481.535 609.662ZM490.632 618.053C489.868 618.053 489.179 617.884 488.564 617.547C487.959 617.2 487.478 616.714 487.121 616.089C486.774 615.454 486.6 614.715 486.6 613.872C486.6 613.029 486.779 612.295 487.136 611.671C487.493 611.036 487.979 610.55 488.594 610.213C489.209 609.866 489.898 609.692 490.662 609.692C491.425 609.692 492.115 609.866 492.729 610.213C493.354 610.55 493.84 611.036 494.187 611.671C494.544 612.295 494.723 613.029 494.723 613.872C494.723 614.705 494.544 615.439 494.187 616.074C493.83 616.709 493.339 617.2 492.715 617.547C492.09 617.884 491.396 618.053 490.632 618.053ZM490.632 617.145C491.167 617.145 491.663 617.026 492.12 616.788C492.576 616.54 492.943 616.173 493.22 615.687C493.508 615.191 493.652 614.586 493.652 613.872C493.652 613.158 493.513 612.558 493.235 612.072C492.958 611.576 492.591 611.209 492.134 610.971C491.678 610.723 491.182 610.599 490.647 610.599C490.111 610.599 489.615 610.723 489.159 610.971C488.703 611.209 488.336 611.576 488.058 612.072C487.79 612.558 487.657 613.158 487.657 613.872C487.657 614.586 487.79 615.191 488.058 615.687C488.336 616.173 488.698 616.54 489.144 616.788C489.6 617.026 490.096 617.145 490.632 617.145ZM497.663 611.254C497.891 610.748 498.238 610.356 498.704 610.079C499.18 609.801 499.76 609.662 500.444 609.662V610.748H500.162C499.408 610.748 498.803 610.952 498.347 611.358C497.891 611.765 497.663 612.444 497.663 613.396V617.934H496.621V609.811H497.663V611.254ZM509.36 613.456C509.36 613.813 509.35 614.086 509.33 614.274H502.591C502.621 614.889 502.77 615.414 503.038 615.851C503.305 616.287 503.657 616.619 504.094 616.848C504.53 617.066 505.006 617.175 505.522 617.175C506.196 617.175 506.762 617.011 507.218 616.684C507.684 616.357 507.991 615.915 508.14 615.36H509.241C509.043 616.153 508.616 616.803 507.962 617.309C507.317 617.805 506.504 618.053 505.522 618.053C504.758 618.053 504.074 617.884 503.469 617.547C502.864 617.2 502.388 616.714 502.041 616.089C501.704 615.454 501.535 614.715 501.535 613.872C501.535 613.029 501.704 612.29 502.041 611.656C502.378 611.021 502.849 610.535 503.454 610.198C504.059 609.861 504.748 609.692 505.522 609.692C506.296 609.692 506.97 609.861 507.545 610.198C508.13 610.535 508.577 610.991 508.884 611.566C509.201 612.132 509.36 612.762 509.36 613.456ZM508.304 613.426C508.314 612.821 508.19 612.305 507.932 611.879C507.684 611.452 507.342 611.13 506.905 610.912C506.469 610.694 505.993 610.585 505.477 610.585C504.704 610.585 504.044 610.833 503.499 611.328C502.953 611.824 502.651 612.523 502.591 613.426H508.304ZM511.444 618.008C511.226 618.008 511.042 617.934 510.893 617.785C510.755 617.636 510.685 617.453 510.685 617.234C510.685 617.016 510.755 616.838 510.893 616.699C511.042 616.55 511.226 616.476 511.444 616.476C511.652 616.476 511.826 616.55 511.965 616.699C512.113 616.838 512.188 617.016 512.188 617.234C512.188 617.453 512.113 617.636 511.965 617.785C511.826 617.934 511.652 618.008 511.444 618.008ZM514.146 618.008C513.928 618.008 513.744 617.934 513.596 617.785C513.457 617.636 513.387 617.453 513.387 617.234C513.387 617.016 513.457 616.838 513.596 616.699C513.744 616.55 513.928 616.476 514.146 616.476C514.354 616.476 514.528 616.55 514.667 616.699C514.815 616.838 514.89 617.016 514.89 617.234C514.89 617.453 514.815 617.636 514.667 617.785C514.528 617.934 514.354 618.008 514.146 618.008ZM516.848 618.008C516.63 618.008 516.447 617.934 516.298 617.785C516.159 617.636 516.09 617.453 516.09 617.234C516.09 617.016 516.159 616.838 516.298 616.699C516.447 616.55 516.63 616.476 516.848 616.476C517.056 616.476 517.23 616.55 517.369 616.699C517.518 616.838 517.592 617.016 517.592 617.234C517.592 617.453 517.518 617.636 517.369 617.785C517.23 617.934 517.056 618.008 516.848 618.008Z" fill="#979797"/>
</g>
<g filter="url(#filter1_d_11212_33446)">
<rect x="39" y="576.383" width="78.6696" height="73.4826" rx="7.43828" fill="white"/>
<path d="M69.6572 597.458H74.6161V602.417H69.6572V597.458ZM82.0544 609.855H87.0132V614.814H82.0544V609.855ZM69.6572 609.855H74.6161V614.814H69.6572V609.855ZM84.1123 596.863L80.6039 600.359L84.1123 603.868L87.6207 600.359L84.1123 596.863Z" fill="#003282"/>
<path d="M84.1113 593.354L77.0945 600.359L84.1113 607.376L91.128 600.359L84.1113 593.354ZM80.6029 600.359L84.1113 596.85L87.6196 600.359L84.1113 603.867L80.6029 600.359ZM67.1768 594.979V604.896H77.0945V594.979H67.1768ZM74.615 602.417H69.6562V597.458H74.615V602.417ZM67.1768 617.293H77.0945V607.376H67.1768V617.293ZM69.6562 609.855H74.615V614.814H69.6562V609.855ZM79.5739 607.376V617.293H89.4916V607.376H79.5739ZM87.0122 614.814H82.0533V609.855H87.0122V614.814Z" fill="#003282"/>
<path d="M49.9806 629.043V636.013H49.0706V629.043H49.9806ZM54.2015 630.433C54.8682 630.433 55.4082 630.636 55.8215 631.043C56.2349 631.443 56.4415 632.023 56.4415 632.783V636.013H55.5415V632.913C55.5415 632.366 55.4049 631.949 55.1315 631.663C54.8582 631.369 54.4849 631.223 54.0115 631.223C53.5315 631.223 53.1482 631.373 52.8615 631.673C52.5815 631.973 52.4415 632.409 52.4415 632.983V636.013H51.5315V630.533H52.4415V631.313C52.6215 631.033 52.8649 630.816 53.1715 630.663C53.4849 630.509 53.8282 630.433 54.2015 630.433ZM59.038 631.283V634.513C59.038 634.779 59.0947 634.969 59.208 635.083C59.3214 635.189 59.518 635.243 59.798 635.243H60.468V636.013H59.648C59.1414 636.013 58.7614 635.896 58.508 635.663C58.2547 635.429 58.128 635.046 58.128 634.513V631.283H57.418V630.533H58.128V629.153H59.038V630.533H60.468V631.283H59.038ZM66.5706 633.063C66.5706 633.236 66.5606 633.419 66.5406 633.613H62.1606C62.1939 634.153 62.3773 634.576 62.7106 634.883C63.0506 635.183 63.4606 635.333 63.9406 635.333C64.3339 635.333 64.6606 635.243 64.9206 635.063C65.1873 634.876 65.3739 634.629 65.4806 634.323H66.4606C66.3139 634.849 66.0206 635.279 65.5806 635.613C65.1406 635.939 64.5939 636.103 63.9406 636.103C63.4206 636.103 62.9539 635.986 62.5406 635.753C62.1339 635.519 61.8139 635.189 61.5806 634.763C61.3473 634.329 61.2306 633.829 61.2306 633.263C61.2306 632.696 61.3439 632.199 61.5706 631.773C61.7973 631.346 62.1139 631.019 62.5206 630.793C62.9339 630.559 63.4073 630.443 63.9406 630.443C64.4606 630.443 64.9206 630.556 65.3206 630.783C65.7206 631.009 66.0273 631.323 66.2406 631.723C66.4606 632.116 66.5706 632.563 66.5706 633.063ZM65.6306 632.873C65.6306 632.526 65.5539 632.229 65.4006 631.983C65.2473 631.729 65.0373 631.539 64.7706 631.413C64.5106 631.279 64.2206 631.213 63.9006 631.213C63.4406 631.213 63.0473 631.359 62.7206 631.653C62.4006 631.946 62.2173 632.353 62.1706 632.873H65.6306ZM70.0318 630.443C70.5051 630.443 70.9184 630.546 71.2718 630.753C71.6318 630.959 71.8984 631.219 72.0718 631.533V630.533H72.9918V636.133C72.9918 636.633 72.8851 637.076 72.6718 637.463C72.4584 637.856 72.1518 638.163 71.7518 638.383C71.3584 638.603 70.8984 638.713 70.3718 638.713C69.6518 638.713 69.0518 638.543 68.5718 638.203C68.0918 637.863 67.8084 637.399 67.7218 636.813H68.6218C68.7218 637.146 68.9284 637.413 69.2418 637.613C69.5551 637.819 69.9318 637.923 70.3718 637.923C70.8718 637.923 71.2784 637.766 71.5918 637.453C71.9118 637.139 72.0718 636.699 72.0718 636.133V634.983C71.8918 635.303 71.6251 635.569 71.2718 635.783C70.9184 635.996 70.5051 636.103 70.0318 636.103C69.5451 636.103 69.1018 635.983 68.7018 635.743C68.3084 635.503 67.9984 635.166 67.7718 634.733C67.5451 634.299 67.4318 633.806 67.4318 633.253C67.4318 632.693 67.5451 632.203 67.7718 631.783C67.9984 631.356 68.3084 631.026 68.7018 630.793C69.1018 630.559 69.5451 630.443 70.0318 630.443ZM72.0718 633.263C72.0718 632.849 71.9884 632.489 71.8218 632.183C71.6551 631.876 71.4284 631.643 71.1418 631.483C70.8618 631.316 70.5518 631.233 70.2118 631.233C69.8718 631.233 69.5618 631.313 69.2818 631.473C69.0018 631.633 68.7784 631.866 68.6118 632.173C68.4451 632.479 68.3618 632.839 68.3618 633.253C68.3618 633.673 68.4451 634.039 68.6118 634.353C68.7784 634.659 69.0018 634.896 69.2818 635.063C69.5618 635.223 69.8718 635.303 70.2118 635.303C70.5518 635.303 70.8618 635.223 71.1418 635.063C71.4284 634.896 71.6551 634.659 71.8218 634.353C71.9884 634.039 72.0718 633.676 72.0718 633.263ZM75.4396 631.423C75.5996 631.109 75.8262 630.866 76.1196 630.693C76.4196 630.519 76.7829 630.433 77.2096 630.433V631.373H76.9696C75.9496 631.373 75.4396 631.926 75.4396 633.033V636.013H74.5296V630.533H75.4396V631.423ZM77.9201 633.253C77.9201 632.693 78.0334 632.203 78.2601 631.783C78.4867 631.356 78.7967 631.026 79.1901 630.793C79.5901 630.559 80.0334 630.443 80.5201 630.443C81.0001 630.443 81.4167 630.546 81.7701 630.753C82.1234 630.959 82.3867 631.219 82.5601 631.533V630.533H83.4801V636.013H82.5601V634.993C82.3801 635.313 82.1101 635.579 81.7501 635.793C81.3967 635.999 80.9834 636.103 80.5101 636.103C80.0234 636.103 79.5834 635.983 79.1901 635.743C78.7967 635.503 78.4867 635.166 78.2601 634.733C78.0334 634.299 77.9201 633.806 77.9201 633.253ZM82.5601 633.263C82.5601 632.849 82.4767 632.489 82.3101 632.183C82.1434 631.876 81.9167 631.643 81.6301 631.483C81.3501 631.316 81.0401 631.233 80.7001 631.233C80.3601 631.233 80.0501 631.313 79.7701 631.473C79.4901 631.633 79.2667 631.866 79.1001 632.173C78.9334 632.479 78.8501 632.839 78.8501 633.253C78.8501 633.673 78.9334 634.039 79.1001 634.353C79.2667 634.659 79.4901 634.896 79.7701 635.063C80.0501 635.223 80.3601 635.303 80.7001 635.303C81.0401 635.303 81.3501 635.223 81.6301 635.063C81.9167 634.896 82.1434 634.659 82.3101 634.353C82.4767 634.039 82.5601 633.676 82.5601 633.263ZM86.1279 631.283V634.513C86.1279 634.779 86.1845 634.969 86.2979 635.083C86.4112 635.189 86.6079 635.243 86.8879 635.243H87.5579V636.013H86.7379C86.2312 636.013 85.8512 635.896 85.5979 635.663C85.3445 635.429 85.2179 635.046 85.2179 634.513V631.283H84.5079V630.533H85.2179V629.153H86.1279V630.533H87.5579V631.283H86.1279ZM89.1304 629.643C88.9571 629.643 88.8104 629.583 88.6904 629.463C88.5704 629.343 88.5104 629.196 88.5104 629.023C88.5104 628.849 88.5704 628.703 88.6904 628.583C88.8104 628.463 88.9571 628.403 89.1304 628.403C89.2971 628.403 89.4371 628.463 89.5504 628.583C89.6704 628.703 89.7304 628.849 89.7304 629.023C89.7304 629.196 89.6704 629.343 89.5504 629.463C89.4371 629.583 89.2971 629.643 89.1304 629.643ZM89.5704 630.533V636.013H88.6604V630.533H89.5704ZM93.5114 636.103C92.998 636.103 92.5314 635.986 92.1114 635.753C91.698 635.519 91.3714 635.189 91.1314 634.763C90.898 634.329 90.7814 633.829 90.7814 633.263C90.7814 632.703 90.9014 632.209 91.1414 631.783C91.388 631.349 91.7214 631.019 92.1414 630.793C92.5614 630.559 93.0314 630.443 93.5514 630.443C94.0714 630.443 94.5414 630.559 94.9614 630.793C95.3814 631.019 95.7114 631.346 95.9514 631.773C96.198 632.199 96.3214 632.696 96.3214 633.263C96.3214 633.829 96.1947 634.329 95.9414 634.763C95.6947 635.189 95.358 635.519 94.9314 635.753C94.5047 635.986 94.0314 636.103 93.5114 636.103ZM93.5114 635.303C93.838 635.303 94.1447 635.226 94.4314 635.073C94.718 634.919 94.948 634.689 95.1214 634.383C95.3014 634.076 95.3914 633.703 95.3914 633.263C95.3914 632.823 95.3047 632.449 95.1314 632.143C94.958 631.836 94.7314 631.609 94.4514 631.463C94.1714 631.309 93.868 631.233 93.5414 631.233C93.208 631.233 92.9014 631.309 92.6214 631.463C92.348 631.609 92.128 631.836 91.9614 632.143C91.7947 632.449 91.7114 632.823 91.7114 633.263C91.7114 633.709 91.7914 634.086 91.9514 634.393C92.118 634.699 92.338 634.929 92.6114 635.083C92.8847 635.229 93.1847 635.303 93.5114 635.303ZM100.188 630.433C100.855 630.433 101.395 630.636 101.808 631.043C102.221 631.443 102.428 632.023 102.428 632.783V636.013H101.528V632.913C101.528 632.366 101.391 631.949 101.118 631.663C100.845 631.369 100.471 631.223 99.9979 631.223C99.5179 631.223 99.1345 631.373 98.8479 631.673C98.5679 631.973 98.4279 632.409 98.4279 632.983V636.013H97.5179V630.533H98.4279V631.313C98.6079 631.033 98.8512 630.816 99.1579 630.663C99.4712 630.509 99.8145 630.433 100.188 630.433ZM105.854 636.103C105.434 636.103 105.058 636.033 104.724 635.893C104.391 635.746 104.128 635.546 103.934 635.293C103.741 635.033 103.634 634.736 103.614 634.403H104.554C104.581 634.676 104.708 634.899 104.934 635.073C105.168 635.246 105.471 635.333 105.844 635.333C106.191 635.333 106.464 635.256 106.664 635.103C106.864 634.949 106.964 634.756 106.964 634.523C106.964 634.283 106.858 634.106 106.644 633.993C106.431 633.873 106.101 633.756 105.654 633.643C105.248 633.536 104.914 633.429 104.654 633.323C104.401 633.209 104.181 633.046 103.994 632.833C103.814 632.613 103.724 632.326 103.724 631.973C103.724 631.693 103.808 631.436 103.974 631.203C104.141 630.969 104.378 630.786 104.684 630.653C104.991 630.513 105.341 630.443 105.734 630.443C106.341 630.443 106.831 630.596 107.204 630.903C107.578 631.209 107.778 631.629 107.804 632.163H106.894C106.874 631.876 106.758 631.646 106.544 631.473C106.338 631.299 106.058 631.213 105.704 631.213C105.378 631.213 105.118 631.283 104.924 631.423C104.731 631.563 104.634 631.746 104.634 631.973C104.634 632.153 104.691 632.303 104.804 632.423C104.924 632.536 105.071 632.629 105.244 632.703C105.424 632.769 105.671 632.846 105.984 632.933C106.378 633.039 106.698 633.146 106.944 633.253C107.191 633.353 107.401 633.506 107.574 633.713C107.754 633.919 107.848 634.189 107.854 634.523C107.854 634.823 107.771 635.093 107.604 635.333C107.438 635.573 107.201 635.763 106.894 635.903C106.594 636.036 106.248 636.103 105.854 636.103Z" fill="black"/>
</g>
<g filter="url(#filter2_d_11212_33446)">
<rect x="24" y="314.383" width="157" height="163.286" rx="4.2783" fill="white"/>
<path d="M84.5 342.883H63.5C61.85 342.883 60.5 344.233 60.5 345.883V366.883C60.5 368.533 61.85 369.883 63.5 369.883H84.5C86.15 369.883 87.5 368.533 87.5 366.883V345.883C87.5 344.233 86.15 342.883 84.5 342.883ZM84.5 366.883H63.5V345.883H84.5V366.883ZM66.5 353.383H69.5V363.883H66.5V353.383ZM72.5 348.883H75.5V363.883H72.5V348.883ZM78.5 357.883H81.5V363.883H78.5V357.883Z" fill="#003282"/>
<path d="M61.328 398.383L59.336 394.963H58.016V398.383H56.924V390.019H59.624C60.256 390.019 60.788 390.127 61.22 390.343C61.66 390.559 61.988 390.851 62.204 391.219C62.42 391.587 62.528 392.007 62.528 392.479C62.528 393.055 62.36 393.563 62.024 394.003C61.696 394.443 61.2 394.735 60.536 394.879L62.636 398.383H61.328ZM58.016 394.087H59.624C60.216 394.087 60.66 393.943 60.956 393.655C61.252 393.359 61.4 392.967 61.4 392.479C61.4 391.983 61.252 391.599 60.956 391.327C60.668 391.055 60.224 390.919 59.624 390.919H58.016V394.087ZM70.2248 394.843C70.2248 395.051 70.2128 395.271 70.1888 395.503H64.9328C64.9728 396.151 65.1928 396.659 65.5928 397.027C66.0008 397.387 66.4928 397.567 67.0688 397.567C67.5408 397.567 67.9328 397.459 68.2448 397.243C68.5648 397.019 68.7888 396.723 68.9168 396.355H70.0928C69.9168 396.987 69.5648 397.503 69.0368 397.903C68.5088 398.295 67.8528 398.491 67.0688 398.491C66.4448 398.491 65.8848 398.351 65.3888 398.071C64.9008 397.791 64.5168 397.395 64.2368 396.883C63.9568 396.363 63.8168 395.763 63.8168 395.083C63.8168 394.403 63.9528 393.807 64.2248 393.295C64.4968 392.783 64.8768 392.391 65.3648 392.119C65.8608 391.839 66.4288 391.699 67.0688 391.699C67.6928 391.699 68.2448 391.835 68.7248 392.107C69.2048 392.379 69.5728 392.755 69.8288 393.235C70.0928 393.707 70.2248 394.243 70.2248 394.843ZM69.0968 394.615C69.0968 394.199 69.0048 393.843 68.8208 393.547C68.6368 393.243 68.3848 393.015 68.0648 392.863C67.7528 392.703 67.4048 392.623 67.0208 392.623C66.4688 392.623 65.9968 392.799 65.6048 393.151C65.2208 393.503 65.0008 393.991 64.9448 394.615H69.0968ZM71.2582 395.071C71.2582 394.399 71.3942 393.811 71.6662 393.307C71.9382 392.795 72.3102 392.399 72.7822 392.119C73.2622 391.839 73.7942 391.699 74.3782 391.699C74.9542 391.699 75.4542 391.823 75.8782 392.071C76.3022 392.319 76.6182 392.631 76.8262 393.007V391.807H77.9302V398.383H76.8262V397.159C76.6102 397.543 76.2862 397.863 75.8542 398.119C75.4302 398.367 74.9342 398.491 74.3662 398.491C73.7822 398.491 73.2542 398.347 72.7822 398.059C72.3102 397.771 71.9382 397.367 71.6662 396.847C71.3942 396.327 71.2582 395.735 71.2582 395.071ZM76.8262 395.083C76.8262 394.587 76.7262 394.155 76.5262 393.787C76.3262 393.419 76.0542 393.139 75.7102 392.947C75.3742 392.747 75.0022 392.647 74.5942 392.647C74.1862 392.647 73.8142 392.743 73.4782 392.935C73.1422 393.127 72.8742 393.407 72.6742 393.775C72.4742 394.143 72.3742 394.575 72.3742 395.071C72.3742 395.575 72.4742 396.015 72.6742 396.391C72.8742 396.759 73.1422 397.043 73.4782 397.243C73.8142 397.435 74.1862 397.531 74.5942 397.531C75.0022 397.531 75.3742 397.435 75.7102 397.243C76.0542 397.043 76.3262 396.759 76.5262 396.391C76.7262 396.015 76.8262 395.579 76.8262 395.083ZM80.8676 389.503V398.383H79.7756V389.503H80.8676ZM87.2887 393.523V394.447H82.5007V393.523H87.2887ZM90.6701 392.707V396.583C90.6701 396.903 90.7381 397.131 90.8741 397.267C91.0101 397.395 91.2461 397.459 91.5821 397.459H92.3861V398.383H91.4021C90.7941 398.383 90.3381 398.243 90.0341 397.963C89.7301 397.683 89.5781 397.223 89.5781 396.583V392.707H88.7261V391.807H89.5781V390.151H90.6701V391.807H92.3861V392.707H90.6701ZM94.2732 390.739C94.0652 390.739 93.8892 390.667 93.7452 390.523C93.6012 390.379 93.5292 390.203 93.5292 389.995C93.5292 389.787 93.6012 389.611 93.7452 389.467C93.8892 389.323 94.0652 389.251 94.2732 389.251C94.4732 389.251 94.6412 389.323 94.7772 389.467C94.9212 389.611 94.9932 389.787 94.9932 389.995C94.9932 390.203 94.9212 390.379 94.7772 390.523C94.6412 390.667 94.4732 390.739 94.2732 390.739ZM94.8012 391.807V398.383H93.7092V391.807H94.8012ZM104.57 391.687C105.082 391.687 105.538 391.795 105.938 392.011C106.338 392.219 106.654 392.535 106.886 392.959C107.118 393.383 107.234 393.899 107.234 394.507V398.383H106.154V394.663C106.154 394.007 105.99 393.507 105.662 393.163C105.342 392.811 104.906 392.635 104.354 392.635C103.786 392.635 103.334 392.819 102.998 393.187C102.662 393.547 102.494 394.071 102.494 394.759V398.383H101.414V394.663C101.414 394.007 101.25 393.507 100.922 393.163C100.602 392.811 100.166 392.635 99.6143 392.635C99.0463 392.635 98.5943 392.819 98.2583 393.187C97.9223 393.547 97.7543 394.071 97.7543 394.759V398.383H96.6623V391.807H97.7543V392.755C97.9703 392.411 98.2583 392.147 98.6183 391.963C98.9863 391.779 99.3903 391.687 99.8303 391.687C100.382 391.687 100.87 391.811 101.294 392.059C101.718 392.307 102.034 392.671 102.242 393.151C102.426 392.687 102.73 392.327 103.154 392.071C103.578 391.815 104.05 391.687 104.57 391.687ZM115.026 394.843C115.026 395.051 115.014 395.271 114.99 395.503H109.734C109.774 396.151 109.994 396.659 110.394 397.027C110.802 397.387 111.294 397.567 111.87 397.567C112.342 397.567 112.734 397.459 113.046 397.243C113.366 397.019 113.59 396.723 113.718 396.355H114.894C114.718 396.987 114.366 397.503 113.838 397.903C113.31 398.295 112.654 398.491 111.87 398.491C111.246 398.491 110.686 398.351 110.19 398.071C109.702 397.791 109.318 397.395 109.038 396.883C108.758 396.363 108.618 395.763 108.618 395.083C108.618 394.403 108.754 393.807 109.026 393.295C109.298 392.783 109.678 392.391 110.166 392.119C110.662 391.839 111.23 391.699 111.87 391.699C112.494 391.699 113.046 391.835 113.526 392.107C114.006 392.379 114.374 392.755 114.63 393.235C114.894 393.707 115.026 394.243 115.026 394.843ZM113.898 394.615C113.898 394.199 113.806 393.843 113.622 393.547C113.438 393.243 113.186 393.015 112.866 392.863C112.554 392.703 112.206 392.623 111.822 392.623C111.27 392.623 110.798 392.799 110.406 393.151C110.022 393.503 109.802 393.991 109.746 394.615H113.898Z" fill="black"/>
<rect x="56" y="411.383" width="93" height="6.42857" rx="3.21429" fill="#ECECEC"/>
<rect x="56" y="422.097" width="93" height="6.42857" rx="3.21429" fill="#ECECEC"/>
<rect x="56" y="436.525" width="75" height="6.42857" rx="3.21429" fill="#ECECEC"/>
<rect x="56" y="447.239" width="26.7857" height="6.42857" rx="3.21429" fill="#ECECEC"/>
</g>
<g filter="url(#filter3_d_11212_33446)">
<rect x="205" y="313.383" width="157" height="163.286" rx="4.2783" fill="white"/>
<path d="M261 346.383L264.435 349.818L257.115 357.138L251.115 351.138L240 362.268L242.115 364.383L251.115 355.383L257.115 361.383L266.565 351.948L270 355.383V346.383H261Z" fill="#003282"/>
<path d="M243.072 389.019V389.907H240.792V397.383H239.7V389.907H237.408V389.019H243.072ZM245.508 391.875C245.7 391.499 245.972 391.207 246.324 390.999C246.684 390.791 247.12 390.687 247.632 390.687V391.815H247.344C246.12 391.815 245.508 392.479 245.508 393.807V397.383H244.416V390.807H245.508V391.875ZM254.893 393.843C254.893 394.051 254.881 394.271 254.857 394.503H249.601C249.641 395.151 249.861 395.659 250.261 396.027C250.669 396.387 251.161 396.567 251.737 396.567C252.209 396.567 252.601 396.459 252.913 396.243C253.233 396.019 253.457 395.723 253.585 395.355H254.761C254.585 395.987 254.233 396.503 253.705 396.903C253.177 397.295 252.521 397.491 251.737 397.491C251.113 397.491 250.553 397.351 250.057 397.071C249.569 396.791 249.185 396.395 248.905 395.883C248.625 395.363 248.485 394.763 248.485 394.083C248.485 393.403 248.621 392.807 248.893 392.295C249.165 391.783 249.545 391.391 250.033 391.119C250.529 390.839 251.097 390.699 251.737 390.699C252.361 390.699 252.913 390.835 253.393 391.107C253.873 391.379 254.241 391.755 254.497 392.235C254.761 392.707 254.893 393.243 254.893 393.843ZM253.765 393.615C253.765 393.199 253.673 392.843 253.489 392.547C253.305 392.243 253.053 392.015 252.733 391.863C252.421 391.703 252.073 391.623 251.689 391.623C251.137 391.623 250.665 391.799 250.273 392.151C249.889 392.503 249.669 392.991 249.613 393.615H253.765ZM259.538 390.687C260.338 390.687 260.986 390.931 261.482 391.419C261.978 391.899 262.226 392.595 262.226 393.507V397.383H261.146V393.663C261.146 393.007 260.982 392.507 260.654 392.163C260.326 391.811 259.878 391.635 259.31 391.635C258.734 391.635 258.274 391.815 257.93 392.175C257.594 392.535 257.426 393.059 257.426 393.747V397.383H256.334V390.807H257.426V391.743C257.642 391.407 257.934 391.147 258.302 390.963C258.678 390.779 259.09 390.687 259.538 390.687ZM263.602 394.071C263.602 393.399 263.738 392.811 264.01 392.307C264.282 391.795 264.654 391.399 265.126 391.119C265.606 390.839 266.142 390.699 266.734 390.699C267.246 390.699 267.722 390.819 268.162 391.059C268.602 391.291 268.938 391.599 269.17 391.983V388.503H270.274V397.383H269.17V396.147C268.954 396.539 268.634 396.863 268.21 397.119C267.786 397.367 267.29 397.491 266.722 397.491C266.138 397.491 265.606 397.347 265.126 397.059C264.654 396.771 264.282 396.367 264.01 395.847C263.738 395.327 263.602 394.735 263.602 394.071ZM269.17 394.083C269.17 393.587 269.07 393.155 268.87 392.787C268.67 392.419 268.398 392.139 268.054 391.947C267.718 391.747 267.346 391.647 266.938 391.647C266.53 391.647 266.158 391.743 265.822 391.935C265.486 392.127 265.218 392.407 265.018 392.775C264.818 393.143 264.718 393.575 264.718 394.071C264.718 394.575 264.818 395.015 265.018 395.391C265.218 395.759 265.486 396.043 265.822 396.243C266.158 396.435 266.53 396.531 266.938 396.531C267.346 396.531 267.718 396.435 268.054 396.243C268.398 396.043 268.67 395.759 268.87 395.391C269.07 395.015 269.17 394.579 269.17 394.083ZM274.447 397.491C273.943 397.491 273.491 397.407 273.091 397.239C272.691 397.063 272.375 396.823 272.143 396.519C271.911 396.207 271.783 395.851 271.759 395.451H272.887C272.919 395.779 273.071 396.047 273.343 396.255C273.623 396.463 273.987 396.567 274.435 396.567C274.851 396.567 275.179 396.475 275.419 396.291C275.659 396.107 275.779 395.875 275.779 395.595C275.779 395.307 275.651 395.095 275.395 394.959C275.139 394.815 274.743 394.675 274.207 394.539C273.719 394.411 273.319 394.283 273.007 394.155C272.703 394.019 272.439 393.823 272.215 393.567C271.999 393.303 271.891 392.959 271.891 392.535C271.891 392.199 271.991 391.891 272.191 391.611C272.391 391.331 272.675 391.111 273.043 390.951C273.411 390.783 273.831 390.699 274.303 390.699C275.031 390.699 275.619 390.883 276.067 391.251C276.515 391.619 276.755 392.123 276.787 392.763H275.695C275.671 392.419 275.531 392.143 275.275 391.935C275.027 391.727 274.691 391.623 274.267 391.623C273.875 391.623 273.563 391.707 273.331 391.875C273.099 392.043 272.983 392.263 272.983 392.535C272.983 392.751 273.051 392.931 273.187 393.075C273.331 393.211 273.507 393.323 273.715 393.411C273.931 393.491 274.227 393.583 274.603 393.687C275.075 393.815 275.459 393.943 275.755 394.071C276.051 394.191 276.303 394.375 276.511 394.623C276.727 394.871 276.839 395.195 276.847 395.595C276.847 395.955 276.747 396.279 276.547 396.567C276.347 396.855 276.063 397.083 275.695 397.251C275.335 397.411 274.919 397.491 274.447 397.491Z" fill="black"/>
<rect x="237" y="410.383" width="93" height="6.42857" rx="3.21429" fill="#ECECEC"/>
<rect x="237" y="421.097" width="93" height="6.42857" rx="3.21429" fill="#ECECEC"/>
<rect x="237" y="435.525" width="75" height="6.42857" rx="3.21429" fill="#ECECEC"/>
<rect x="237" y="446.239" width="26.7857" height="6.42857" rx="3.21429" fill="#ECECEC"/>
</g>
<g filter="url(#filter4_d_11212_33446)">
<rect x="387" y="312.383" width="157" height="163.286" rx="4.2783" fill="white"/>
<path d="M438.5 340.883C431.045 340.883 425 346.928 425 354.383H420.5L426.335 360.218L426.44 360.428L432.5 354.383H428C428 348.578 432.695 343.883 438.5 343.883C444.305 343.883 449 348.578 449 354.383C449 360.188 444.305 364.883 438.5 364.883C435.605 364.883 432.98 363.698 431.09 361.793L428.96 363.923C431.405 366.368 434.765 367.883 438.5 367.883C445.955 367.883 452 361.838 452 354.383C452 346.928 445.955 340.883 438.5 340.883ZM437 348.383V355.883L443.42 359.693L444.5 357.878L439.25 354.758V348.383H437Z" fill="#003282"/>
<path d="M426.368 388.019V396.383H425.276V392.591H421.016V396.383H419.924V388.019H421.016V391.691H425.276V388.019H426.368ZM428.797 388.739C428.589 388.739 428.413 388.667 428.269 388.523C428.125 388.379 428.053 388.203 428.053 387.995C428.053 387.787 428.125 387.611 428.269 387.467C428.413 387.323 428.589 387.251 428.797 387.251C428.997 387.251 429.165 387.323 429.301 387.467C429.445 387.611 429.517 387.787 429.517 387.995C429.517 388.203 429.445 388.379 429.301 388.523C429.165 388.667 428.997 388.739 428.797 388.739ZM429.325 389.807V396.383H428.233V389.807H429.325ZM433.514 396.491C433.01 396.491 432.558 396.407 432.158 396.239C431.758 396.063 431.442 395.823 431.21 395.519C430.978 395.207 430.85 394.851 430.826 394.451H431.954C431.986 394.779 432.138 395.047 432.41 395.255C432.69 395.463 433.054 395.567 433.502 395.567C433.918 395.567 434.246 395.475 434.486 395.291C434.726 395.107 434.846 394.875 434.846 394.595C434.846 394.307 434.718 394.095 434.462 393.959C434.206 393.815 433.81 393.675 433.274 393.539C432.786 393.411 432.386 393.283 432.074 393.155C431.77 393.019 431.506 392.823 431.282 392.567C431.066 392.303 430.958 391.959 430.958 391.535C430.958 391.199 431.058 390.891 431.258 390.611C431.458 390.331 431.742 390.111 432.11 389.951C432.478 389.783 432.898 389.699 433.37 389.699C434.098 389.699 434.686 389.883 435.134 390.251C435.582 390.619 435.822 391.123 435.854 391.763H434.762C434.738 391.419 434.598 391.143 434.342 390.935C434.094 390.727 433.758 390.623 433.334 390.623C432.942 390.623 432.63 390.707 432.398 390.875C432.166 391.043 432.05 391.263 432.05 391.535C432.05 391.751 432.118 391.931 432.254 392.075C432.398 392.211 432.574 392.323 432.782 392.411C432.998 392.491 433.294 392.583 433.67 392.687C434.142 392.815 434.526 392.943 434.822 393.071C435.118 393.191 435.37 393.375 435.578 393.623C435.794 393.871 435.906 394.195 435.914 394.595C435.914 394.955 435.814 395.279 435.614 395.567C435.414 395.855 435.13 396.083 434.762 396.251C434.402 396.411 433.986 396.491 433.514 396.491ZM438.787 390.707V394.583C438.787 394.903 438.855 395.131 438.991 395.267C439.127 395.395 439.363 395.459 439.699 395.459H440.503V396.383H439.519C438.911 396.383 438.455 396.243 438.151 395.963C437.847 395.683 437.695 395.223 437.695 394.583V390.707H436.843V389.807H437.695V388.151H438.787V389.807H440.503V390.707H438.787ZM444.694 396.491C444.078 396.491 443.518 396.351 443.014 396.071C442.518 395.791 442.126 395.395 441.838 394.883C441.558 394.363 441.418 393.763 441.418 393.083C441.418 392.411 441.562 391.819 441.85 391.307C442.146 390.787 442.546 390.391 443.05 390.119C443.554 389.839 444.118 389.699 444.742 389.699C445.366 389.699 445.93 389.839 446.434 390.119C446.938 390.391 447.334 390.783 447.622 391.295C447.918 391.807 448.066 392.403 448.066 393.083C448.066 393.763 447.914 394.363 447.61 394.883C447.314 395.395 446.91 395.791 446.398 396.071C445.886 396.351 445.318 396.491 444.694 396.491ZM444.694 395.531C445.086 395.531 445.454 395.439 445.798 395.255C446.142 395.071 446.418 394.795 446.626 394.427C446.842 394.059 446.95 393.611 446.95 393.083C446.95 392.555 446.846 392.107 446.638 391.739C446.43 391.371 446.158 391.099 445.822 390.923C445.486 390.739 445.122 390.647 444.73 390.647C444.33 390.647 443.962 390.739 443.626 390.923C443.298 391.099 443.034 391.371 442.834 391.739C442.634 392.107 442.534 392.555 442.534 393.083C442.534 393.619 442.63 394.071 442.822 394.439C443.022 394.807 443.286 395.083 443.614 395.267C443.942 395.443 444.302 395.531 444.694 395.531ZM450.594 390.875C450.786 390.499 451.058 390.207 451.41 389.999C451.77 389.791 452.206 389.687 452.718 389.687V390.815H452.43C451.206 390.815 450.594 391.479 450.594 392.807V396.383H449.502V389.807H450.594V390.875ZM459.643 389.807L455.683 399.479H454.555L455.851 396.311L453.199 389.807H454.411L456.475 395.135L458.515 389.807H459.643Z" fill="black"/>
<rect x="419" y="409.383" width="93" height="6.42857" rx="3.21429" fill="#ECECEC"/>
<rect x="419" y="420.097" width="93" height="6.42857" rx="3.21429" fill="#ECECEC"/>
<rect x="419" y="434.525" width="75" height="6.42857" rx="3.21429" fill="#ECECEC"/>
<rect x="419" y="445.239" width="26.7857" height="6.42857" rx="3.21429" fill="#ECECEC"/>
</g>
<path d="M426 309.383V277.383C426 268.546 418.837 261.383 410 261.383H151.16C143.892 261.383 138 267.275 138 274.543V274.543V309.383" stroke="#6A8FBB" stroke-width="2" stroke-linecap="round" stroke-dasharray="6 6"/>
<path d="M282 213.383V312.383" stroke="#6A8FBB" stroke-width="2" stroke-linecap="round" stroke-dasharray="6 6"/>
<path d="M138 480.383L138 512.383C138 521.219 145.163 528.383 154 528.383L412.84 528.383C420.108 528.383 426 522.491 426 515.222V515.222L426 480.383" stroke="#6A8FBB" stroke-width="2" stroke-linecap="round" stroke-dasharray="6 6"/>
<path d="M282 576.383L282 477.383" stroke="#6A8FBB" stroke-width="2" stroke-linecap="round" stroke-dasharray="6 6"/>
<defs>
<filter id="filter0_d_11212_33446" x="0" y="563.934" width="570.854" height="106.402" filterUnits="userSpaceOnUse" color-interpolation-filters="sRGB">
<feFlood flood-opacity="0" result="BackgroundImageFix"/>
<feColorMatrix in="SourceAlpha" type="matrix" values="0 0 0 0 0 0 0 0 0 0 0 0 0 0 0 0 0 0 127 0" result="hardAlpha"/>
<feOffset dy="4"/>
<feGaussianBlur stdDeviation="12"/>
<feComposite in2="hardAlpha" operator="out"/>
<feColorMatrix type="matrix" values="0 0 0 0 0 0 0 0 0 0 0 0 0 0 0 0 0 0 0.08 0"/>
<feBlend mode="normal" in2="BackgroundImageFix" result="effect1_dropShadow_11212_33446"/>
<feBlend mode="normal" in="SourceGraphic" in2="effect1_dropShadow_11212_33446" result="shape"/>
</filter>
<filter id="filter1_d_11212_33446" x="29.14" y="566.523" width="104.89" height="99.7024" filterUnits="userSpaceOnUse" color-interpolation-filters="sRGB">
<feFlood flood-opacity="0" result="BackgroundImageFix"/>
<feColorMatrix in="SourceAlpha" type="matrix" values="0 0 0 0 0 0 0 0 0 0 0 0 0 0 0 0 0 0 127 0" result="hardAlpha"/>
<feOffset dx="3.25" dy="3.25"/>
<feGaussianBlur stdDeviation="6.555"/>
<feComposite in2="hardAlpha" operator="out"/>
<feColorMatrix type="matrix" values="0 0 0 0 0 0 0 0 0 0 0 0 0 0 0 0 0 0 0.15 0"/>
<feBlend mode="normal" in2="BackgroundImageFix" result="effect1_dropShadow_11212_33446"/>
<feBlend mode="normal" in="SourceGraphic" in2="effect1_dropShadow_11212_33446" result="shape"/>
</filter>
<filter id="filter2_d_11212_33446" x="0" y="294.383" width="205" height="211.286" filterUnits="userSpaceOnUse" color-interpolation-filters="sRGB">
<feFlood flood-opacity="0" result="BackgroundImageFix"/>
<feColorMatrix in="SourceAlpha" type="matrix" values="0 0 0 0 0 0 0 0 0 0 0 0 0 0 0 0 0 0 127 0" result="hardAlpha"/>
<feOffset dy="4"/>
<feGaussianBlur stdDeviation="12"/>
<feComposite in2="hardAlpha" operator="out"/>
<feColorMatrix type="matrix" values="0 0 0 0 0 0 0 0 0 0 0 0 0 0 0 0 0 0 0.08 0"/>
<feBlend mode="normal" in2="BackgroundImageFix" result="effect1_dropShadow_11212_33446"/>
<feBlend mode="normal" in="SourceGraphic" in2="effect1_dropShadow_11212_33446" result="shape"/>
</filter>
<filter id="filter3_d_11212_33446" x="181" y="293.383" width="205" height="211.286" filterUnits="userSpaceOnUse" color-interpolation-filters="sRGB">
<feFlood flood-opacity="0" result="BackgroundImageFix"/>
<feColorMatrix in="SourceAlpha" type="matrix" values="0 0 0 0 0 0 0 0 0 0 0 0 0 0 0 0 0 0 127 0" result="hardAlpha"/>
<feOffset dy="4"/>
<feGaussianBlur stdDeviation="12"/>
<feComposite in2="hardAlpha" operator="out"/>
<feColorMatrix type="matrix" values="0 0 0 0 0 0 0 0 0 0 0 0 0 0 0 0 0 0 0.08 0"/>
<feBlend mode="normal" in2="BackgroundImageFix" result="effect1_dropShadow_11212_33446"/>
<feBlend mode="normal" in="SourceGraphic" in2="effect1_dropShadow_11212_33446" result="shape"/>
</filter>
<filter id="filter4_d_11212_33446" x="363" y="292.383" width="205" height="211.286" filterUnits="userSpaceOnUse" color-interpolation-filters="sRGB">
<feFlood flood-opacity="0" result="BackgroundImageFix"/>
<feColorMatrix in="SourceAlpha" type="matrix" values="0 0 0 0 0 0 0 0 0 0 0 0 0 0 0 0 0 0 127 0" result="hardAlpha"/>
<feOffset dy="4"/>
<feGaussianBlur stdDeviation="12"/>
<feComposite in2="hardAlpha" operator="out"/>
<feColorMatrix type="matrix" values="0 0 0 0 0 0 0 0 0 0 0 0 0 0 0 0 0 0 0.08 0"/>
<feBlend mode="normal" in2="BackgroundImageFix" result="effect1_dropShadow_11212_33446"/>
<feBlend mode="normal" in="SourceGraphic" in2="effect1_dropShadow_11212_33446" result="shape"/>
</filter>
<clipPath id="clip0_11212_33446">
<rect width="25.1477" height="28.6684" fill="white" transform="translate(297.28 598.801)"/>
</clipPath>
</defs>
</svg>