<svg xmlns="http://www.w3.org/2000/svg" width="96" height="50" viewBox="0 0 96 50" fill="none">
<path fill-rule="evenodd" clip-rule="evenodd" d="M64.6585 19.2883C64.0572 18.8422 63.117 18.5701 62.2009 18.5853C61.2089 18.5972 60.2584 18.9169 59.5983 19.442V13.1768H56.4971V33.6105H59.5983V22.9464C59.5983 22.2035 60.2225 21.3858 61.3798 21.3347C61.8913 21.3142 62.6071 21.5346 62.9667 22.0745C63.3524 22.6487 63.3286 23.4084 63.3286 24.2426L63.3253 33.6105H66.425V24.1224C66.425 21.3261 66.0606 20.3296 64.6585 19.2883Z" fill="#002855"/>
<path fill-rule="evenodd" clip-rule="evenodd" d="M42.438 23.8913C41.999 19.5231 39.5182 18.5869 37.4837 18.5869C34.5995 18.5869 32.8401 20.421 32.5243 23.8865C32.5006 24.1632 32.4543 24.6721 32.4385 26.3018C32.4281 27.4917 32.5039 28.4678 32.5188 28.7135C32.7194 31.9482 34.574 33.9415 37.4837 33.9415C40.3914 33.9415 42.2447 31.9125 42.4468 28.7119C42.46 28.4827 42.527 27.4917 42.527 26.3018C42.527 25.765 42.4792 24.3033 42.438 23.8913ZM39.4394 26.3018C39.4394 28.304 39.3764 28.8661 39.3605 29.0402C39.2548 30.1482 38.7814 31.3246 37.489 31.3246C36.1983 31.3246 35.6734 30.0696 35.6183 28.9854C35.6168 28.979 35.5382 28.304 35.5382 26.3018C35.5382 24.3 35.6168 23.4657 35.6183 23.4584C35.6342 22.3307 36.219 21.202 37.489 21.202C38.761 21.202 39.3456 22.3307 39.359 23.4481C39.3605 23.4657 39.4394 24.3 39.4394 26.3018Z" fill="#002855"/>
<mask id="mask0" style="mask-type:alpha" maskUnits="userSpaceOnUse" x="0" y="0" width="96" height="50">
<path d="M0 0.245117H95.5895V49.8579H0V0.245117Z" fill="white"/>
</mask>
<g mask="url(#mask0)">
<path fill-rule="evenodd" clip-rule="evenodd" d="M75.4265 28.5567C75.4265 28.5567 75.4321 28.7842 75.3997 29.0627C75.3145 29.784 75.0267 31.3246 73.5169 31.3246C72.2315 31.3246 71.7409 30.1548 71.6542 28.9925C71.635 28.6611 71.5754 28.2936 71.5784 27.0368H78.4904C78.4904 27.0368 78.5023 26.0092 78.4833 25.3903C78.4736 25.1479 78.4609 24.7423 78.403 23.8895C78.3092 22.5803 77.8182 21.1472 77.07 20.2229C76.1998 19.1506 74.9723 18.5869 73.5169 18.5869C70.7259 18.5869 68.9803 20.4019 68.6366 23.888C68.6078 24.1989 68.5547 24.6333 68.5547 26.3018C68.5547 27.4917 68.6199 28.4845 68.6333 28.7135C68.8226 31.8949 70.7037 33.9415 73.5169 33.9415C76.3277 33.9415 78.2081 31.9482 78.403 28.5567H75.4265ZM71.5994 24.4638C71.6216 23.7869 71.6216 23.6454 71.635 23.4481C71.7242 22.2241 72.2689 21.2124 73.524 21.202C75.013 21.1901 75.3605 22.6479 75.4129 23.4553C75.4424 23.8792 75.4728 24.1632 75.4695 24.4638H71.5994Z" fill="#002855"/>
<path fill-rule="evenodd" clip-rule="evenodd" d="M74.2344 0.245117H21.4178L-0.0126953 25.1307L21.4202 49.8579H74.2326L95.59 25.2134L74.2344 0.245117ZM22.6354 2.74814H73.0159L92.2805 25.285L73.0205 47.5141H22.6338L3.29509 25.2095L22.6354 2.74814Z" fill="#002855"/>
</g>
<path fill-rule="evenodd" clip-rule="evenodd" d="M30.6011 32.3473C30.6011 32.3491 30.2814 27.3294 30.2814 27.3294C30.1431 25.0847 29.5585 23.7653 28.3988 23.0867C29.2373 22.5825 30.3206 21.3345 30.3124 18.7289C30.2966 14.7626 27.8334 13.3715 24.9325 13.3389H20.1953V33.6103H23.2552L23.2569 24.338H24.9596C25.9445 24.338 27.0555 25.1994 27.2233 27.6172L27.543 32.3641C27.567 33.0363 27.6949 33.6121 27.6949 33.6121H30.7563C30.7563 33.6121 30.6251 33.0552 30.6011 32.3473ZM23.2569 15.9524H24.7236C26.319 15.9524 27.1836 16.7988 27.2233 18.3081C27.2264 18.4195 27.24 18.5459 27.24 18.7822C27.24 19.0561 27.2352 19.1512 27.2233 19.2589C27.1359 20.1552 26.7413 21.7227 24.8737 21.7227H23.2569V15.9524Z" fill="#002855"/>
<path fill-rule="evenodd" clip-rule="evenodd" d="M51.4941 28.416C51.4822 28.6419 51.4688 28.8441 51.4569 28.9854C51.3692 30.1189 50.9692 31.3246 49.5844 31.3246C48.2944 31.3246 47.7829 30.0178 47.6889 29.057C47.6328 28.4748 47.646 28.023 47.6341 26.3018C47.6206 24.3 47.6852 23.7854 47.7129 23.4584C47.8219 22.1939 48.3142 21.2124 49.5844 21.202C50.8912 21.1934 51.4414 22.3307 51.4569 23.4481C51.4569 23.4584 51.4822 23.7288 51.5046 24.3224H54.5698C54.561 24.1187 54.5522 23.9474 54.5442 23.8466C54.195 19.6121 51.6156 18.5869 49.5796 18.5869C46.6957 18.5869 44.9377 20.421 44.6205 23.8865C44.5967 24.1632 44.552 24.6721 44.5361 26.3018C44.5258 27.4917 44.6015 28.4678 44.6165 28.7135C44.8155 31.9482 46.6703 33.9327 49.5796 33.9415C52.5934 33.9518 54.2549 32.1144 54.5442 28.7119C54.5546 28.5871 54.5713 28.5034 54.561 28.416H51.4941Z" fill="#002855"/>
</svg>